{
.appVersion = "3108";
.formatVersion = 3;
DisplayStrings = (
"RAEG
FPR
ABCDEFGHIJKLMNOPQRSTUVWXYZabcd
0123456789/zero.lf/one.lf/two.lf/three.lf/four.lf/five.lf/six.lf/seven.lf/eight.lf/nine.lf ¹²³⁴⁄½¼¾⟨⟩.,:;…!¡?¿·•*#///backslash/periodcentered.loclCAT -­–—‐_(){}[]‚„“”‘’«»‹›\"'ƒ@&¶§©®™°′″|¦†‡№/at.001 ₵¢₡¤$₫€₣₲₭₤₺₼₦₧₱₽₹£W₩Y¥/dollar.001 ∙⁒∕+−×÷=≠><≥≤±≈~¬^µ%‰",
"ẮẰẴȀȂĄÆǼÇDÐĐĜĦĮŁŅÑȪȰØǾŒÞŚŠŞŜȘHẞHHOOHOŢÚȔÙƯỨỪỮŰŲÝŶŸỲắẵæǽðđe̵ħiıĩłœþsbnßnnoonouúùưứonừn
TýVýKý
TỳVỳKỳ
TũVũKũ
tu
TAHINI
ATTACK
ARTARZAN
HINTA

axolotl
xenophone
extreme
hexide"
);
axes = (
{
name = Weight;
tag = wght;
}
);
classes = (
{
automatic = 1;

glyphs = (
{
color = 4;
glyphname = A;
kernLeft = A;
kernRight = A;
lastChange = "2022-06-08 16:40:10 +0000";
layers = (
{
anchors = (
{
name = bottom;
pos = (135,0);
},
{
name = top;
pos = (138,700);
}
);
attr = {
color = "1";
};
layerId = "33AE93C6-B8B3-427A-A53B-F24970E840CE";
shapes = (
{
attr = {
gradient = {
colors = (
(
(64,255),
0
),
(
(191,255),
1
)
);
end = (0.5074,0.9658);
start = (0.6091,0.0797);
};
};
closed = 1;
nodes = (
(76,700,l),
(77,700,l),
(77,0,l),
(53,0,l),
(53,677,l)
);
},
{
attr = {
gradient = {
colors = (
(
(64,255),
0
),
(
(191,255),
1
)
);
end = (0.8878,0.5878);
start = (0.0693,0.513);
};
};
closed = 1;
nodes = (
(220,677,l),
(220,676,l),
(77,676,l),
(77,700,l),
(197,700,l)
);
},
{
attr = {
gradient = {
colors = (
(
(64,255),
0
),
(
(191,255),
0.50056
),
(
(64,255),
1
)
);
end = (1.2582,0.0143);
start = (-0.3003,0.8873);
};
};
closed = 1;
nodes = (
(197,0,l),
(196,0,l),
(196,676,l),
(220,676,l),
(220,0,l)
);
},
{
attr = {
gradient = {
colors = (
(
(191,255),
0
),
(
(64,255),
1
)
);
end = (0.8878,0.5878);
start = (0.0693,0.513);
};
};
closed = 1;
nodes = (
(77,353,l),
(77,376,l),
(77,377,l),
(196,377,l),
(196,353,l)
);
}
);
width = 273;
},
{
anchors = (
{
name = bottom;
pos = (462,0);
},
{
name = top;
pos = (486,730);
}
);
attr = {
color = "1";
};
layerId = "E87239EE-82B8-404C-B23A-53843E270889";
shapes = (
{
attr = {
gradient = {
colors = (
(
(64,255),
0
),
(
(191,255),
1
)
);
end = (0.4877,0.9217);
start = (0.4155,-0.0037);
};
};
closed = 1;
nodes = (
(248,730,l),
(249,730,l),
(249,0,l),
(35,0,l),
(35,523,l)
);
},
{
attr = {
gradient = {
colors = (
(
(64,255),
0
),
(
(191,255),
1
)
);
end = (0.8814,0.226);
start = (0.0812,0.4764);
};
};
closed = 1;
nodes = (
(812,527,l),
(812,526,l),
(249,526,l),
(249,730,l),
(650,730,l)
);
},
{
attr = {
gradient = {
colors = (
(
(64,255),
0
),
(
(191,255),
1
)
);
end = (0.3691,0.1797);
start = (0.4192,0.8964);
};
};
closed = 1;
nodes = (
(598,0,l),
(598,526,l),
(599,526,l),
(812,526,l),
(812,0,l)
);
},
{
attr = {
gradient = {
colors = (
(
(64,255),
0
),
(
(191,255),
1
)
);
end = (0.0383,0.0895);
start = (0.8943,0.4519);
};
};
closed = 1;
nodes = (
(249,193,l),
(249,397,l),
(598,397,l),
(598,396,l),
(598,193,l)
);
}
);
width = 847;
},
{
anchors = (
{
name = bottom;
pos = (462,0);
},
{
name = top;
pos = (486,730);
}
);
attr = {
color = "1";
};
layerId = m003;
shapes = (
{
attr = {
gradient = {
colors = (
(
(64,255),
0
),
(
(191,255),
1
)
);
end = (0.4877,0.9217);
start = (0.4155,-0.0037);
};
};
closed = 1;
nodes = (
(288,730,l),
(289,730,l),
(289,0,l),
(35,0,l),
(35,523,l)
);
},
{
attr = {
gradient = {
colors = (
(
(64,255),
0
),
(
(191,255),
1
)
);
end = (0.8814,0.226);
start = (0.0812,0.4764);
};
};
closed = 1;
nodes = (
(892,487,l),
(892,486,l),
(289,486,l),
(289,730,l),
(690,730,l)
);
},
{
attr = {
gradient = {
colors = (
(
(64,255),
0
),
(
(191,255),
1
)
);
end = (0.3691,0.1797);
start = (0.4192,0.8964);
};
};
closed = 1;
nodes = (
(638,0,l),
(638,486,l),
(639,486,l),
(892,486,l),
(892,0,l)
);
},
{
attr = {
gradient = {
colors = (
(
(64,255),
0
),
(
(191,255),
1
)
);
end = (0.0383,0.0895);
start = (0.8943,0.4519);
};
};
closed = 1;
nodes = (
(289,173,l),
(289,417,l),
(638,417,l),
(638,416,l),
(638,173,l)
);
}
);
width = 927;
}
);
unicode = 65;
},
{
color = 4;
glyphname = Aringacute;
kernLeft = A;
kernRight = A;
lastChange = "2022-06-06 09:42:41 +0000";
layers = (
{
attr = {
color = "1";
};
layerId = "33AE93C6-B8B3-427A-A53B-F24970E840CE";
shapes = (
{
ref = A;
},
{
attr = {
gradient = {
colors = (
(
(64,255),
0
),
(
(191,255),
1
)
);
end = (0.4877,0.9217);
start = (0.453,0.0037);
};
identifier = ID0x60000019dce0;
};
closed = 1;
nodes = (
(114,821,l),
(115,821,l),
(115,758,l),
(94,758,l),
(94,803,l)
);
},
{
attr = {
gradient = {
colors = (
(
(64,255),
0
),
(
(191,255),
1
)
);
end = (0.8878,0.5878);
start = (0.0693,0.513);
};
identifier = ID0x60000019dce0;
};
closed = 1;
nodes = (
(181,801,l),
(181,800,l),
(115,800,l),
(115,821,l),
(163,821,l)
);
},
{
attr = {
gradient = {
colors = (
(
(64,255),
0
),
(
(191,255),
1
)
);
end = (0.4056,0.1204);
start = (0.4192,0.8964);
};
identifier = ID0x60000019dce0;
};
closed = 1;
nodes = (
(161,737,l),
(160,737,l),
(160,800,l),
(181,800,l),
(181,755,l)
);
},
{
attr = {
gradient = {
colors = (
(
(191,255),
0
),
(
(64,255),
1
)
);
end = (0.8878,0.5878);
start = (0.0693,0.513);
};
identifier = ID0x60000019dce0;
};
closed = 1;
nodes = (
(94,757,l),
(94,758,l),
(160,758,l),
(160,737,l),
(112,737,l)
);
},
{
attr = {
gradient = {
colors = (
(
(191,255),
0
),
(
(64,255),
1
)
);
end = (0.9495,0.9626);
start = (0.0378,0.0149);
};
identifier = ID0x60000019dc00;
};
closed = 1;
nodes = (
(148,900,l),
(177,900,l),
(177,899,l),
(139,840,l),
(118,840,l)
);
}
);
width = 273;
},
{
attr = {
color = "1";
};
layerId = "E87239EE-82B8-404C-B23A-53843E270889";
shapes = (
{
ref = A;
},
{
attr = {
gradient = {
colors = (
(
(64,255),
0
),
(
(191,255),
1
)
);
end = (0.4877,0.9217);
start = (0.4155,-0.0037);
};
identifier = ID0x6000006279c0;
};
closed = 1;
nodes = (
(384,914,l),
(385,914,l),
(385,818,l),
(304,818,l),
(304,852,l)
);
},
{
attr = {
gradient = {
colors = (
(
(64,255),
0
),
(
(191,255),
1
)
);
end = (0.8878,0.5878);
start = (0.0693,0.513);
};
identifier = ID0x6000006279c0;
};
closed = 1;
nodes = (
(620,846,l),
(620,845,l),
(385,845,l),
(385,914,l),
(560,914,l)
);
},
{
attr = {
gradient = {
colors = (
(
(64,255),
0
),
(
(191,255),
1
)
);
end = (0.4056,0.1204);
start = (0.4192,0.8964);
};
identifier = ID0x6000006279c0;
};
closed = 1;
nodes = (
(540,751,l),
(539,751,l),
(539,845,l),
(620,845,l),
(620,807,l)
);
},
{
attr = {
gradient = {
colors = (
(
(191,255),
0
),
(
(64,255),
1
)
);
end = (0.8878,0.5878);
start = (0.0693,0.513);
};
identifier = ID0x6000006279c0;
};
closed = 1;
nodes = (
(304,817,l),
(304,818,l),
(539,818,l),
(539,751,l),
(364,751,l)
);
},
{
attr = {
gradient = {
colors = (
(
(191,255),
0
),
(
(64,255),
1
)
);
end = (0.0479,0.095);
start = (0.9467,0.9402);
};
identifier = ID0x600000627aa0;
};
closed = 1;
nodes = (
(448,1029,l),
(654,1029,l),
(654,1028,l),
(509,939,l),
(393,939,l)
);
}
);
width = 907;
},
{
attr = {
color = "1";
};
layerId = m003;
shapes = (
{
ref = A;
},
{
attr = {
gradient = {
colors = (
(
(64,255),
0
),
(
(191,255),
1
)
);
end = (0.4877,0.9217);
start = (0.4155,-0.0037);
};
identifier = ID0x6000006279c0;
};
closed = 1;
nodes = (
(384,914,l),
(385,914,l),
(385,818,l),
(304,818,l),
(304,852,l)
);
},
{
attr = {
gradient = {
colors = (
(
(64,255),
0
),
(
(191,255),
1
)
);
end = (0.8878,0.5878);
start = (0.0693,0.513);
};
identifier = ID0x6000006279c0;
};
closed = 1;
nodes = (
(620,846,l),
(620,845,l),
(385,845,l),
(385,914,l),
(560,914,l)
);
},
{
attr = {
gradient = {
colors = (
(
(64,255),
0
),
(
(191,255),
1
)
);
end = (0.4056,0.1204);
start = (0.4192,0.8964);
};
identifier = ID0x6000006279c0;
};
closed = 1;
nodes = (
(540,751,l),
(539,751,l),
(539,845,l),
(620,845,l),
(620,807,l)
);
},
{
attr = {
gradient = {
colors = (
(
(191,255),
0
),
(
(64,255),
1
)
);
end = (0.8878,0.5878);
start = (0.0693,0.513);
};
identifier = ID0x6000006279c0;
};
closed = 1;
nodes = (
(304,817,l),
(304,818,l),
(539,818,l),
(539,751,l),
(364,751,l)
);
},
{
attr = {
gradient = {
colors = (
(
(191,255),
0
),
(
(64,255),
1
)
);
end = (0.0479,0.095);
start = (0.9467,0.9402);
};
identifier = ID0x600000627aa0;
};
closed = 1;
nodes = (
(448,1029,l),
(654,1029,l),
(654,1028,l),
(509,939,l),
(393,939,l)
);
}
);
width = 907;
}
);
unicode = 506;
},
{
color = 4;
glyphname = AE;
kernLeft = A;
kernRight = E;
lastChange = "2022-06-08 16:24:30 +0000";
layers = (
{
anchors = (
{
name = top;
pos = (138,700);
}
);
attr = {
color = "1";
};
layerId = "33AE93C6-B8B3-427A-A53B-F24970E840CE";
shapes = (
{
attr = {
gradient = {
colors = (
(
(191,255),
0
),
(
(64,255),
1
)
);
end = (0.8878,0.5878);
start = (0.0693,0.513);
};
};
closed = 1;
nodes = (
(77,353,l),
(77,377,l),
(196,377,l),
(196,353,l)
);
},
{
attr = {
gradient = {
colors = (
(
(64,255),
0
),
(
(191,255),
1
)
);
end = (0.5074,0.9658);
start = (0.6091,0.0797);
};
};
closed = 1;
nodes = (
(53,0,l),
(53,677,l),
(76,700,l),
(77,700,l),
(77,0,l)
);
},
{
attr = {
gradient = {
colors = (
(
(64,255),
0
),
(
(191,255),
1
)
);
end = (0.8878,0.5878);
start = (0.0878,0.6802);
};
};
closed = 1;
nodes = (
(363,699,l),
(340,676,l),
(220,676,l),
(197,700,l),
(363,700,l)
);
},
{
attr = {
gradient = {
colors = (
(
(64,255),
0
),
(
(191,255),
1
)
);
end = (0.8878,0.5878);
start = (0.0693,0.513);
};
};
closed = 1;
nodes = (
(220,353,l),
(220,377,l),
(339,377,l),
(339,353,l)
);
},
{
attr = {
gradient = {
colors = (
(
(191,255),
0
),
(
(64,255),
1
)
);
end = (0.8878,0.5878);
start = (0.09,0.6491);
};
};
closed = 1;
nodes = (
(363,0,l),
(220,0,l),
(196,23,l),
(196,24,l),
(363,24,l)
);
},
{
attr = {
gradient = {
colors = (
(
(64,255),
0
),
(
(191,255),
0.50056
),
(
(64,255),
1
)
);
end = (1.2582,0.0143);
start = (0.3883,0.9192);
};
};
closed = 1;
nodes = (
(196,24,l),
(196,676,l),
(220,676,l),
(220,24,l)
);
},
{
attr = {
gradient = {
colors = (
(
(64,255),
0
),
(
(191,255),
1
)
);
end = (0.8875,0.2428);
start = (0.0693,0.513);
};
};
closed = 1;
nodes = (
(220,677,l),
(220,676,l),
(77,676,l),
(77,700,l),
(197,700,l)
);
}
);
width = 372;
},
{
anchors = (
{
name = top;
pos = (486,730);
}
);
attr = {
color = "1";
};
layerId = "E87239EE-82B8-404C-B23A-53843E270889";
shapes = (
{
attr = {
gradient = {
colors = (
(
(64,255),
0
),
(
(191,255),
1
)
);
end = (0.0383,0.0895);
start = (0.8813,0.0608);
};
};
closed = 1;
nodes = (
(249,173,l),
(249,377,l),
(558,377,l),
(621,173,l)
);
},
{
attr = {
gradient = {
colors = (
(
(64,255),
0
),
(
(191,255),
1
)
);
end = (0.9039,0.9423);
start = (0.6371,0.0178);
};
};
closed = 1;
nodes = (
(35,0,l),
(35,523,l),
(248,730,l),
(249,730,l),
(249,0,l)
);
},
{
attr = {
gradient = {
colors = (
(
(64,255),
0
),
(
(191,255),
1
)
);
end = (0.8585,0.8442);
start = (0.1052,0.5322);
};
};
closed = 1;
nodes = (
(1296,729,l),
(1094,526,l),
(772,526,l),
(610,730,l),
(1296,730,l)
);
},
{
attr = {
gradient = {
colors = (
(
(64,255),
0
),
(
(191,255),
1
)
);
end = (0.926,0.8502);
start = (0.0825,0.1006);
};
};
closed = 1;
nodes = (
(772,263,l),
(772,467,l),
(1132,467,l),
(1132,263,l)
);
},
{
attr = {
gradient = {
colors = (
(
(64,255),
0
),
(
(191,255),
1
)
);
end = (0.0952,0.8756);
start = (0.9731,0.0568);
};
};
closed = 1;
nodes = (
(1245,0,l),
(760,0,l),
(558,203,l),
(558,204,l),
(1245,204,l)
);
},
{
attr = {
gradient = {
colors = (
(
(64,255),
0
),
(
(191,255),
1
)
);
end = (0.9202,0.0835);
start = (0.0855,0.7853);
};
};
closed = 1;
nodes = (
(558,204,l),
(558,526,l),
(772,526,l),
(772,204,l)
);
},
{
attr = {
gradient = {
colors = (
(
(64,255),
0
),
(
(191,255),
1
)
);
end = (0.713,0.9264);
start = (0.0306,0.307);
};
};
closed = 1;
nodes = (
(772,527,l),
(772,526,l),
(249,526,l),
(249,730,l),
(610,730,l)
);
}
);
width = 1276;
},
{
anchors = (
{
name = top;
pos = (476,730);
}
);
attr = {
color = "1";
};
layerId = m003;
shapes = (
{
attr = {
gradient = {
colors = (
(
(64,255),
0
),
(
(191,255),
1
)
);
end = (0.0383,0.0895);
start = (0.8813,0.0608);
};
};
closed = 1;
nodes = (
(279,173,l),
(279,417,l),
(588,417,l),
(651,173,l)
);
},
{
attr = {
gradient = {
colors = (
(
(64,255),
0
),
(
(191,255),
1
)
);
end = (0.9039,0.9423);
start = (0.6371,0.0178);
};
};
closed = 1;
nodes = (
(25,0,l),
(25,523,l),
(278,730,l),
(279,730,l),
(279,0,l)
);
},
{
attr = {
gradient = {
colors = (
(
(64,255),
0
),
(
(191,255),
1
)
);
end = (0.8585,0.8442);
start = (0.1052,0.5322);
};
};
closed = 1;
nodes = (
(1366,729,l),
(1164,486,l),
(842,486,l),
(640,730,l),
(1366,730,l)
);
},
{
attr = {
gradient = {
colors = (
(
(64,255),
0
),
(
(191,255),
1
)
);
end = (0.926,0.8502);
start = (0.0825,0.1006);
};
};
closed = 1;
nodes = (
(842,263,l),
(842,467,l),
(1202,467,l),
(1202,263,l)
);
},
{
attr = {
gradient = {
colors = (
(
(64,255),
0
),
(
(191,255),
1
)
);
end = (0.0952,0.8756);
start = (0.9731,0.0568);
};
};
closed = 1;
nodes = (
(1315,0,l),
(790,0,l),
(588,243,l),
(588,244,l),
(1315,244,l)
);
},
{
attr = {
gradient = {
colors = (
(
(64,255),
0
),
(
(191,255),
1
)
);
end = (0.9202,0.0835);
start = (0.0855,0.7853);
};
};
closed = 1;
nodes = (
(588,244,l),
(588,486,l),
(842,486,l),
(842,244,l)
);
},
{
attr = {
gradient = {
colors = (
(
(64,255),
0
),
(
(191,255),
1
)
);
end = (0.713,0.9264);
start = (0.0306,0.307);
};
};
closed = 1;
nodes = (
(842,487,l),
(842,486,l),
(279,486,l),
(279,730,l),
(640,730,l)
);
}
);
width = 1391;
}
);
metricLeft = A;
metricRight = E;
unicode = 198;
},
{
color = 4;
glyphname = B;
kernLeft = H;
kernRight = B;
lastChange = "2022-06-08 16:33:34 +0000";
layers = (
{
attr = {
color = "1";
};
layerId = "33AE93C6-B8B3-427A-A53B-F24970E840CE";
shapes = (
{
attr = {
gradient = {
colors = (
(
(64,255),
0
),
(
(191,255),
1
)
);
end = (0.4877,0.9217);
start = (0.4155,-0.0037);
};
};
closed = 1;
nodes = (
(77,700,l),
(77,699,l),
(77,23,l),
(53,24,l),
(53,700,l)
);
},
{
attr = {
gradient = {
colors = (
(
(64,255),
0
),
(
(128,255),
1
)
);
end = (0.522,0.9968);
start = (0.4393,0.0388);
};
};
closed = 1;
nodes = (
(152,676,l),
(77,676,l),
(77,700,l),
(152,700,l)
);
},
{
attr = {
gradient = {
colors = (
(
(64,255),
0
),
(
(191,255),
1
)
);
end = (0.1636,0.9918);
start = (0.9225,0.2287);
};
};
closed = 1;
nodes = (
(53,0,l),
(53,24,l),
(226,24,l),
(226,0,l)
);
},
{
attr = {
gradient = {
colors = (
(
(191,255),
0
),
(
(64,255),
1
)
);
end = (0.3759,0.0091);
start = (0.4447,0.6672);
};
};
closed = 1;
nodes = (
(166,377,l),
(152,377,l),
(152,700,l),
(153,700,l),
(176,677,l),
(176,377,l)
);
},
{
attr = {
gradient = {
colors = (
(
(64,255),
0
),
(
(191,255),
1
)
);
end = (0.2671,0.5486);
start = (0.937,0.3463);
};
};
closed = 1;
nodes = (
(77,353,l),
(54,377,l),
(152,377,l),
(226,377,l),
(226,353,l)
);
},
{
attr = {
gradient = {
colors = (
(
(191,255),
0
),
(
(64,255),
1
)
);
end = (0.5245,0.827);
start = (0.8235,0.1183);
};
};
closed = 1;
nodes = (
(227,0,l),
(226,0,l),
(226,377,l),
(227,377,l),
(250,354,l),
(250,23,l)
);
}
);
width = 283;
},
{
attr = {
color = "1";
};
layerId = "E87239EE-82B8-404C-B23A-53843E270889";
shapes = (
{
attr = {
gradient = {
colors = (
(
(64,255),
0
),
(
(191,255),
1
)
);
end = (0.4877,0.9217);
start = (0.4155,-0.0037);
};
};
closed = 1;
nodes = (
(248,730,l),
(249,730,l),
(249,204,l),
(35,204,l),
(35,730,l)
);
},
{
attr = {
gradient = {
colors = (
(
(64,255),
0
),
(
(128,255),
1
)
);
end = (0.522,0.9968);
start = (0.4393,0.0388);
};
};
closed = 1;
nodes = (
(504,526,l),
(249,526,l),
(249,730,l),
(504,730,l)
);
},
{
attr = {
gradient = {
colors = (
(
(64,255),
0
),
(
(191,255),
1
)
);
end = (0.1636,0.9918);
start = (0.6848,0.1052);
};
};
closed = 1;
nodes = (
(35,0,l),
(35,204,l),
(698,204,l),
(698,0,l)
);
},
{
attr = {
gradient = {
colors = (
(
(191,255),
0
),
(
(64,255),
1
)
);
end = (0.3644,-0.0049);
start = (0.4447,0.6672);
};
};
closed = 1;
nodes = (
(699,467,l),
(504,467,l),
(504,730,l),
(505,730,l),
(738,533,l),
(738,431,l)
);
},
{
attr = {
gradient = {
colors = (
(
(64,255),
0
),
(
(191,255),
1
)
);
end = (0.3103,0.7788);
start = (0.9832,0.4844);
};
};
closed = 1;
nodes = (
(697,263,l),
(504,466,l),
(504,467,l),
(698,467,l),
(698,263,l)
);
},
{
attr = {
gradient = {
colors = (
(
(191,255),
0
),
(
(64,255),
1
)
);
end = (0.8878,0.5878);
start = (0.0693,0.513);
};
};
closed = 1;
nodes = (
(699,0,l),
(698,0,l),
(698,467,l),
(699,467,l),
(912,274,l),
(912,193,l)
);
}
);
width = 912;
},
{
attr = {
color = "1";
};
layerId = m003;
shapes = (
{
attr = {
gradient = {
colors = (
(
(64,255),
0
),
(
(191,255),
1
)
);
end = (0.4877,0.9217);
start = (0.4155,-0.0037);
};
};
closed = 1;
nodes = (
(288,730,l),
(289,730,l),
(289,244,l),
(35,244,l),
(35,730,l)
);
},
{
attr = {
gradient = {
colors = (
(
(64,255),
0
),
(
(128,255),
1
)
);
end = (0.522,0.9968);
start = (0.4393,0.0388);
};
};
closed = 1;
nodes = (
(584,486,l),
(289,486,l),
(289,730,l),
(584,730,l)
);
},
{
attr = {
gradient = {
colors = (
(
(64,255),
0
),
(
(191,255),
1
)
);
end = (0.1636,0.9918);
start = (0.6848,0.1052);
};
};
closed = 1;
nodes = (
(35,0,l),
(35,244,l),
(738,244,l),
(738,0,l)
);
},
{
attr = {
gradient = {
colors = (
(
(191,255),
0
),
(
(64,255),
1
)
);
end = (0.3759,0.0091);
start = (0.4447,0.6672);
};
};
closed = 1;
nodes = (
(739,467,l),
(584,467,l),
(584,730,l),
(585,730,l),
(858,533,l),
(858,376,l)
);
},
{
attr = {
gradient = {
colors = (
(
(64,255),
0
),
(
(191,255),
1
)
);
end = (0.3103,0.7788);
start = (0.9832,0.4844);
};
};
closed = 1;
nodes = (
(737,263,l),
(584,466,l),
(584,467,l),
(738,467,l),
(738,263,l)
);
},
{
attr = {
gradient = {
colors = (
(
(191,255),
0
),
(
(64,255),
1
)
);
end = (0.8878,0.5878);
start = (0.0693,0.513);
};
};
closed = 1;
nodes = (
(739,0,l),
(738,0,l),
(738,467,l),
(739,467,l),
(992,274,l),
(992,193,l)
);
}
);
width = 992;
}
);
unicode = 66;
},
{
color = 4;
glyphname = C;
kernLeft = O;
lastChange = "2022-06-06 09:50:02 +0000";
layers = (
{
anchors = (
{
name = bottom;
pos = (140,0);
},
{
name = top;
pos = (138,700);
}
);
attr = {
color = "1";
};
layerId = "33AE93C6-B8B3-427A-A53B-F24970E840CE";
shapes = (
{
attr = {
gradient = {
colors = (
(
(64,255),
0
),
(
(191,255),
1
)
);
end = (0.4877,0.9217);
start = (0.453,0.0037);
};
};
closed = 1;
nodes = (
(76,700,l),
(77,700,l),
(77,24,l),
(53,24,l),
(53,677,l)
);
},
{
attr = {
gradient = {
colors = (
(
(64,255),
0
),
(
(191,255),
1
)
);
end = (0.8878,0.5878);
start = (0.0693,0.513);
};
};
closed = 1;
nodes = (
(220,677,l),
(220,676,l),
(77,676,l),
(77,700,l),
(197,700,l)
);
},
{
attr = {
gradient = {
colors = (
(
(191,255),
0
),
(
(64,255),
1
)
);
end = (0.8878,0.5878);
start = (0.0693,0.513);
};
};
closed = 1;
nodes = (
(53,23,l),
(53,24,l),
(220,24,l),
(197,0,l),
(76,0,l)
);
}
);
width = 235;
},
{
anchors = (
{
name = bottom;
pos = (482,0);
},
{
name = top;
pos = (476,730);
}
);
attr = {
color = "1";
};
layerId = "E87239EE-82B8-404C-B23A-53843E270889";
shapes = (
{
attr = {
gradient = {
colors = (
(
(64,255),
0
),
(
(191,255),
1
)
);
end = (0.4877,0.9217);
start = (0.4155,-0.0037);
};
};
closed = 1;
nodes = (
(238,730,l),
(239,730,l),
(239,204,l),
(25,204,l),
(25,523,l)
);
},
{
attr = {
gradient = {
colors = (
(
(64,255),
0
),
(
(191,255),
1
)
);
end = (0.8878,0.5878);
start = (0.0693,0.513);
};
};
closed = 1;
nodes = (
(822,527,l),
(822,526,l),
(239,526,l),
(239,730,l),
(620,730,l)
);
},
{
attr = {
gradient = {
colors = (
(
(191,255),
0
),
(
(64,255),
1
)
);
end = (0.8878,0.5878);
start = (0.0693,0.513);
};
};
closed = 1;
nodes = (
(25,203,l),
(25,204,l),
(822,204,l),
(620,0,l),
(227,0,l)
);
}
);
width = 822;
},
{
anchors = (
{
name = bottom;
pos = (482,0);
},
{
name = top;
pos = (476,730);
}
);
attr = {
color = "1";
};
layerId = m003;
shapes = (
{
attr = {
gradient = {
colors = (
(
(64,255),
0
),
(
(191,255),
1
)
);
end = (0.4877,0.9217);
start = (0.4155,-0.0037);
};
};
closed = 1;
nodes = (
(278,730,l),
(279,730,l),
(279,244,l),
(25,244,l),
(25,523,l)
);
},
{
attr = {
gradient = {
colors = (
(
(64,255),
0
),
(
(191,255),
1
)
);
end = (0.8878,0.5878);
start = (0.0693,0.513);
};
};
closed = 1;
nodes = (
(862,487,l),
(862,486,l),
(279,486,l),
(279,730,l),
(660,730,l)
);
},
{
attr = {
gradient = {
colors = (
(
(191,255),
0
),
(
(64,255),
1
)
);
end = (0.8878,0.5878);
start = (0.0693,0.513);
};
};
closed = 1;
nodes = (
(25,243,l),
(25,244,l),
(862,244,l),
(660,0,l),
(227,0,l)
);
}
);
width = 862;
}
);
unicode = 67;
},
{
color = 4;
glyphname = D;
kernRight = O;
lastChange = "2022-06-06 09:50:35 +0000";
layers = (
{
anchors = (
{
name = stroke;
pos = (65,365);
},
{
name = top;
pos = (138,700);
}
);
attr = {
color = "1";
};
layerId = "33AE93C6-B8B3-427A-A53B-F24970E840CE";
shapes = (
{
attr = {
gradient = {
colors = (
(
(64,255),
0
),
(
(191,255),
1
)
);
end = (0.4877,0.9217);
start = (0.453,0.0037);
};
};
closed = 1;
nodes = (
(76,700,l),
(77,700,l),
(77,24,l),
(53,24,l),
(53,700,l)
);
},
{
attr = {
gradient = {
colors = (
(
(64,255),
0
),
(
(191,255),
1
)
);
end = (0.8878,0.5878);
start = (0.1375,-0.0323);
};
};
closed = 1;
nodes = (
(222,677,l),
(222,676,l),
(77,676,l),
(77,700,l),
(199,700,l)
);
},
{
attr = {
gradient = {
colors = (
(
(64,255),
0
),
(
(191,255),
1
)
);
end = (0.4056,0.1204);
start = (0.4192,0.8964);
};
};
closed = 1;
nodes = (
(199,0,l),
(198,0,l),
(198,676,l),
(222,676,l),
(222,23,l)
);
},
{
attr = {
gradient = {
colors = (
(
(191,255),
0
),
(
(64,255),
1
)
);
end = (0.8878,0.5878);
start = (0.0693,0.513);
};
};
closed = 1;
nodes = (
(53,23,l),
(53,24,l),
(198,24,l),
(198,0,l),
(53,0,l)
);
}
);
width = 275;
},
{
anchors = (
{
name = stroke;
pos = (166,361);
},
{
name = top;
pos = (476,730);
}
);
attr = {
color = "1";
};
layerId = "E87239EE-82B8-404C-B23A-53843E270889";
shapes = (
{
attr = {
gradient = {
colors = (
(
(64,255),
0
),
(
(191,255),
1
)
);
end = (0.4877,0.9217);
start = (0.4155,-0.0037);
};
};
closed = 1;
nodes = (
(248,730,l),
(249,730,l),
(249,200,l),
(35,200,l),
(35,730,l)
);
},
{
attr = {
gradient = {
colors = (
(
(64,255),
0
),
(
(191,255),
1
)
);
end = (0.8878,0.5878);
start = (0.0693,0.513);
};
};
closed = 1;
nodes = (
(842,527,l),
(842,526,l),
(249,526,l),
(249,730,l),
(680,730,l)
);
},
{
attr = {
gradient = {
colors = (
(
(64,255),
0
),
(
(191,255),
1
)
);
end = (0.4056,0.1204);
start = (0.4192,0.8964);
};
};
closed = 1;
nodes = (
(629,-4,l),
(628,-4,l),
(628,526,l),
(842,526,l),
(842,193,l)
);
},
{
attr = {
gradient = {
colors = (
(
(191,255),
0
),
(
(64,255),
1
)
);
end = (0.8878,0.5878);
start = (0.0693,0.513);
};
};
closed = 1;
nodes = (
(35,199,l),
(35,200,l),
(628,200,l),
(628,-4,l),
(35,-4,l)
);
}
);
width = 867;
},
{
anchors = (
{
name = stroke;
pos = (166,361);
},
{
name = top;
pos = (476,730);
}
);
attr = {
color = "1";
};
layerId = m003;
shapes = (
{
attr = {
gradient = {
colors = (
(
(64,255),
0
),
(
(191,255),
1
)
);
end = (0.4877,0.9217);
start = (0.4155,-0.0037);
};
};
closed = 1;
nodes = (
(288,730,l),
(289,730,l),
(289,240,l),
(35,240,l),
(35,730,l)
);
},
{
attr = {
gradient = {
colors = (
(
(64,255),
0
),
(
(191,255),
1
)
);
end = (0.8878,0.5878);
start = (0.0693,0.513);
};
};
closed = 1;
nodes = (
(922,487,l),
(922,486,l),
(289,486,l),
(289,730,l),
(720,730,l)
);
},
{
attr = {
gradient = {
colors = (
(
(64,255),
0
),
(
(191,255),
1
)
);
end = (0.4056,0.1204);
start = (0.4192,0.8964);
};
};
closed = 1;
nodes = (
(669,-4,l),
(668,-4,l),
(668,486,l),
(922,486,l),
(922,193,l)
);
},
{
attr = {
gradient = {
colors = (
(
(191,255),
0
),
(
(64,255),
1
)
);
end = (0.8878,0.5878);
start = (0.0693,0.513);
};
};
closed = 1;
nodes = (
(35,239,l),
(35,240,l),
(668,240,l),
(668,-4,l),
(35,-4,l)
);
}
);
width = 947;
}
);
unicode = 68;
},
{
color = 3;
glyphname = E;
kernLeft = U;
lastChange = "2022-06-08 12:26:16 +0000";
layers = (
{
anchors = (
{
name = bottom;
pos = (135,0);
},
{
name = top;
pos = (138,700);
}
);
attr = {
color = "1";
};
layerId = "33AE93C6-B8B3-427A-A53B-F24970E840CE";
shapes = (
{
attr = {
gradient = {
colors = (
(
(64,255),
0
),
(
(191,255),
1
)
);
end = (0.5603,0.9888);
start = (0.4654,0.007);
};
};
closed = 1;
nodes = (
(77,700,l),
(77,24,l),
(53,24,l),
(53,700,l)
);
},
{
attr = {
gradient = {
colors = (
(
(64,255),
0
),
(
(191,255),
1
)
);
end = (0.9219,0.702);
start = (0.0502,0.2276);
};
};
closed = 1;
nodes = (
(77,676,l),
(77,700,l),
(220,700,l),
(220,699,l),
(197,676,l)
);
},
{
attr = {
gradient = {
colors = (
(
(64,255),
0
),
(
(191,255),
1
)
);
end = (0.9395,0.824);
start = (0.0304,0.1025);
};
};
closed = 1;
nodes = (
(77,353,l),
(77,377,l),
(196,377,l),
(196,353,l)
);
},
{
attr = {
gradient = {
colors = (
(
(64,255),
0
),
(
(191,255),
1
)
);
end = (0.0726,0.8409);
start = (0.9727,0.513);
};
};
closed = 1;
nodes = (
(77,0,l),
(53,23,l),
(53,24,l),
(220,24,l),
(220,0,l)
);
}
);
width = 240;
},
{
anchors = (
{
name = bottom;
pos = (442,0);
},
{
name = top;
pos = (456,730);
}
);
attr = {
color = "1";
};
layerId = "E87239EE-82B8-404C-B23A-53843E270889";
shapes = (
{
attr = {
gradient = {
colors = (
(
(64,255),
0
),
(
(191,255),
1
)
);
end = (0.4877,0.9217);
start = (0.5389,0.033);
};
};
closed = 1;
nodes = (
(249,730,l),
(249,204,l),
(35,204,l),
(35,730,l)
);
},
{
attr = {
gradient = {
colors = (
(
(64,255),
0
),
(
(191,255),
1
)
);
end = (0.713,0.9264);
start = (0.0306,0.307);
};
};
closed = 1;
nodes = (
(249,526,l),
(249,730,l),
(812,730,l),
(812,729,l),
(610,526,l)
);
},
{
attr = {
gradient = {
colors = (
(
(64,255),
0
),
(
(191,255),
1
)
);
end = (0.8437,0.8454);
start = (0.0849,0.1153);
};
};
closed = 1;
nodes = (
(249,283,l),
(249,447,l),
(658,447,l),
(658,283,l)
);
},
{
attr = {
gradient = {
colors = (
(
(64,255),
0
),
(
(191,255),
1
)
);
end = (0.082,0.9228);
start = (0.9659,0.1);
};
};
closed = 1;
nodes = (
(237,0,l),
(35,203,l),
(35,204,l),
(761,204,l),
(761,0,l)
);
}
);
width = 792;
},
{
anchors = (
{
name = bottom;
pos = (442,0);
},
{
name = top;
pos = (456,730);
}
);
attr = {
color = "1";
};
layerId = m003;
shapes = (
{
attr = {
gradient = {
colors = (
(
(64,255),
0
),
(
(191,255),
1
)
);
end = (0.4877,0.9217);
start = (0.5389,0.033);
};
};
closed = 1;
nodes = (
(289,730,l),
(289,244,l),
(35,244,l),
(35,730,l)
);
},
{
attr = {
gradient = {
colors = (
(
(64,255),
0
),
(
(191,255),
1
)
);
end = (0.713,0.9264);
start = (0.0306,0.307);
};
};
closed = 1;
nodes = (
(289,486,l),
(289,730,l),
(852,730,l),
(852,729,l),
(650,486,l)
);
},
{
attr = {
gradient = {
colors = (
(
(64,255),
0
),
(
(191,255),
1
)
);
end = (0.8437,0.8454);
start = (0.0849,0.1153);
};
};
closed = 1;
nodes = (
(289,263,l),
(289,467,l),
(698,467,l),
(698,263,l)
);
},
{
attr = {
gradient = {
colors = (
(
(64,255),
0
),
(
(191,255),
1
)
);
end = (0.082,0.9228);
start = (0.9659,0.1);
};
};
closed = 1;
nodes = (
(237,0,l),
(35,243,l),
(35,244,l),
(801,244,l),
(801,0,l)
);
}
);
width = 832;
}
);
unicode = 69;
},
{
color = 4;
glyphname = Schwa;
kernRight = O;
lastChange = "2022-06-06 09:42:41 +0000";
layers = (
{
attr = {
color = "1";
};
layerId = "33AE93C6-B8B3-427A-A53B-F24970E840CE";
shapes = (
{
attr = {
gradient = {
colors = (
(
(191,255),
0
),
(
(64,255),
1
)
);
end = (0.5074,0.9658);
start = (0.6091,0.0797);
};
};
closed = 1;
nodes = (
(177,0,l),
(176,0,l),
(176,676,l),
(200,676,l),
(200,24,l)
);
},
{
attr = {
gradient = {
colors = (
(
(191,255),
0
),
(
(64,255),
1
)
);
end = (0.8878,0.5878);
start = (0.1026,0.7131);
};
};
closed = 1;
nodes = (
(33,23,l),
(33,24,l),
(176,24,l),
(176,0,l),
(56,0,l)
);
},
{
attr = {
gradient = {
colors = (
(
(64,255),
0
),
(
(191,255),
1
)
);
end = (0.8878,0.5878);
start = (0.0693,0.513);
};
};
closed = 1;
nodes = (
(176,347,l),
(176,323,l),
(57,323,l),
(57,347,l)
);
},
{
attr = {
gradient = {
colors = (
(
(64,255),
0
),
(
(191,255),
1
)
);
end = (0.9022,0.4068);
start = (0.0925,0.2157);
};
};
closed = 1;
nodes = (
(176,700,l),
(200,677,l),
(200,676,l),
(33,676,l),
(33,677,l),
(56,700,l)
);
},
{
attr = {
gradient = {
colors = (
(
(191,255),
0
),
(
(64,255),
1
)
);
end = (0.4056,0.1204);
start = (0.4192,0.8964);
};
};
closed = 1;
nodes = (
(56,347,l),
(57,347,l),
(57,24,l),
(33,24,l),
(33,324,l)
);
}
);
width = 253;
},
{
attr = {
color = "1";
};
layerId = "E87239EE-82B8-404C-B23A-53843E270889";
shapes = (
{
attr = {
gradient = {
colors = (
(
(64,255),
0
),
(
(191,255),
1
)
);
end = (0.6652,0.3427);
start = (0.1474,0.954);
};
};
closed = 1;
nodes = (
(538,0,l),
(537,0,l),
(537,486,l),
(791,486,l),
(791,202,l)
);
},
{
attr = {
gradient = {
colors = (
(
(64,255),
0
),
(
(191,255),
1
)
);
end = (0.3541,0.2122);
start = (0.9654,0.9119);
};
};
closed = 1;
nodes = (
(25,243,l),
(25,244,l),
(537,244,l),
(537,0,l),
(227,0,l)
);
},
{
attr = {
gradient = {
colors = (
(
(64,255),
0
),
(
(191,255),
1
)
);
end = (0.9313,0.1669);
start = (0.0923,0.8678);
};
};
closed = 1;
nodes = (
(537,467,l),
(537,263,l),
(279,263,l),
(279,467,l)
);
},
{
attr = {
gradient = {
colors = (
(
(64,255),
0
),
(
(191,255),
1
)
);
end = (0.7478,0.8617);
start = (0.0583,0.0502);
};
};
closed = 1;
nodes = (
(589,730,l),
(791,487,l),
(791,486,l),
(25,486,l),
(25,487,l),
(227,730,l)
);
},
{
attr = {
gradient = {
colors = (
(
(64,255),
0
),
(
(191,255),
1
)
);
end = (0.9291,0.8367);
start = (0.1107,0.0655);
};
};
closed = 1;
nodes = (
(278,467,l),
(279,467,l),
(279,244,l),
(25,244,l),
(25,265,l)
);
}
);
width = 816;
},
{
attr = {
color = "1";
};
layerId = m003;
shapes = (
{
attr = {
gradient = {
colors = (
(
(64,255),
0
),
(
(191,255),
1
)
);
end = (0.6652,0.3427);
start = (0.1474,0.954);
};
};
closed = 1;
nodes = (
(538,0,l),
(537,0,l),
(537,486,l),
(791,486,l),
(791,202,l)
);
},
{
attr = {
gradient = {
colors = (
(
(64,255),
0
),
(
(191,255),
1
)
);
end = (0.3541,0.2122);
start = (0.9654,0.9119);
};
};
closed = 1;
nodes = (
(25,243,l),
(25,244,l),
(537,244,l),
(537,0,l),
(227,0,l)
);
},
{
attr = {
gradient = {
colors = (
(
(64,255),
0
),
(
(191,255),
1
)
);
end = (0.9313,0.1669);
start = (0.0923,0.8678);
};
};
closed = 1;
nodes = (
(537,467,l),
(537,263,l),
(279,263,l),
(279,467,l)
);
},
{
attr = {
gradient = {
colors = (
(
(64,255),
0
),
(
(191,255),
1
)
);
end = (0.7478,0.8617);
start = (0.0583,0.0502);
};
};
closed = 1;
nodes = (
(589,730,l),
(791,487,l),
(791,486,l),
(25,486,l),
(25,487,l),
(227,730,l)
);
},
{
attr = {
gradient = {
colors = (
(
(64,255),
0
),
(
(191,255),
1
)
);
end = (0.9291,0.8367);
start = (0.1107,0.0655);
};
};
closed = 1;
nodes = (
(278,467,l),
(279,467,l),
(279,244,l),
(25,244,l),
(25,265,l)
);
}
);
width = 816;
}
);
unicode = 399;
},
{
color = 4;
glyphname = F;
kernLeft = H;
lastChange = "2022-06-08 11:43:55 +0000";
layers = (
{
attr = {
color = "1";
};
layerId = "33AE93C6-B8B3-427A-A53B-F24970E840CE";
shapes = (
{
attr = {
gradient = {
colors = (
(
(64,255),
0
),
(
(191,255),
1
)
);
end = (0.5074,0.9658);
start = (0.6091,0.0797);
};
};
closed = 1;
nodes = (
(77,700,l),
(77,377,l),
(53,377,l),
(53,700,l)
);
},
{
attr = {
gradient = {
colors = (
(
(64,255),
0
),
(
(191,255),
1
)
);
end = (0.8878,0.5878);
start = (0.0693,0.513);
};
};
closed = 1;
nodes = (
(77,676,l),
(77,700,l),
(220,700,l),
(220,699,l),
(197,676,l)
);
},
{
attr = {
gradient = {
colors = (
(
(191,255),
0
),
(
(64,255),
1
)
);
end = (0.8878,0.5878);
start = (0.0693,0.513);
};
};
closed = 1;
nodes = (
(77,353,l),
(53,376,l),
(53,377,l),
(196,377,l),
(196,353,l)
);
},
{
attr = {
gradient = {
colors = (
(
(64,255),
0
),
(
(191,255),
1
)
);
end = (0.5074,0.9658);
start = (0.6091,0.0797);
};
};
closed = 1;
nodes = (
(53,376,l),
(77,353,l),
(77,0,l),
(53,0,l)
);
}
);
width = 220;
},
{
attr = {
color = "1";
};
layerId = "E87239EE-82B8-404C-B23A-53843E270889";
shapes = (
{
attr = {
gradient = {
colors = (
(
(64,255),
0
),
(
(191,255),
1
)
);
end = (0.4877,0.9217);
start = (0.4155,-0.0037);
};
};
closed = 1;
nodes = (
(249,730,l),
(249,397,l),
(35,397,l),
(35,730,l)
);
},
{
attr = {
gradient = {
colors = (
(
(64,255),
0
),
(
(191,255),
1
)
);
end = (0.713,0.9264);
start = (0.0306,0.307);
};
};
closed = 1;
nodes = (
(249,526,l),
(249,730,l),
(792,730,l),
(792,729,l),
(590,526,l)
);
},
{
attr = {
gradient = {
colors = (
(
(64,255),
0
),
(
(191,255),
1
)
);
end = (0.2871,0.6848);
start = (0.9403,0.2295);
};
};
closed = 1;
nodes = (
(249,193,l),
(35,396,l),
(35,397,l),
(638,397,l),
(638,193,l)
);
},
{
attr = {
gradient = {
colors = (
(
(64,255),
0
),
(
(191,255),
1
)
);
end = (0.0155,0.9213);
start = (0.4102,0.0988);
};
};
closed = 1;
nodes = (
(35,396,l),
(249,193,l),
(249,0,l),
(35,0,l)
);
}
);
width = 787;
},
{
attr = {
color = "1";
};
layerId = m003;
shapes = (
{
attr = {
gradient = {
colors = (
(
(64,255),
0
),
(
(191,255),
1
)
);
end = (0.4877,0.9217);
start = (0.4155,-0.0037);
};
};
closed = 1;
nodes = (
(289,730,l),
(289,416,l),
(35,416,l),
(35,730,l)
);
},
{
attr = {
gradient = {
colors = (
(
(64,255),
0
),
(
(191,255),
1
)
);
end = (0.713,0.9264);
start = (0.0306,0.307);
};
};
closed = 1;
nodes = (
(289,486,l),
(289,730,l),
(832,730,l),
(832,729,l),
(630,486,l)
);
},
{
attr = {
gradient = {
colors = (
(
(64,255),
0
),
(
(191,255),
1
)
);
end = (0.2871,0.6848);
start = (0.9403,0.2295);
};
};
closed = 1;
nodes = (
(289,212,l),
(35,415,l),
(35,416,l),
(678,416,l),
(678,212,l)
);
},
{
attr = {
gradient = {
colors = (
(
(64,255),
0
),
(
(191,255),
1
)
);
end = (0.0155,0.9213);
start = (0.4102,0.0988);
};
};
closed = 1;
nodes = (
(35,415,l),
(289,212,l),
(289,0,l),
(35,0,l)
);
}
);
width = 827;
}
);
unicode = 70;
},
{
color = 4;
glyphname = G;
kernLeft = O;
lastChange = "2022-06-08 12:25:46 +0000";
layers = (
{
anchors = (
{
name = bottom;
pos = (146,0);
},
{
name = top;
pos = (138,700);
}
);
attr = {
color = "1";
};
layerId = "33AE93C6-B8B3-427A-A53B-F24970E840CE";
shapes = (
{
attr = {
gradient = {
colors = (
(
(64,255),
0
),
(
(191,255),
1
)
);
end = (0.4877,0.9217);
start = (0.453,0.0037);
};
};
closed = 1;
nodes = (
(76,700,l),
(77,700,l),
(77,24,l),
(53,24,l),
(53,677,l)
);
},
{
attr = {
gradient = {
colors = (
(
(64,255),
0
),
(
(191,255),
1
)
);
end = (0.8878,0.5878);
start = (0.0693,0.513);
};
};
closed = 1;
nodes = (
(220,677,l),
(220,676,l),
(77,676,l),
(77,700,l),
(197,700,l)
);
},
{
attr = {
gradient = {
colors = (
(
(191,255),
0
),
(
(64,255),
1
)
);
end = (0.8878,0.5878);
start = (0.0693,0.513);
};
};
closed = 1;
nodes = (
(53,23,l),
(53,24,l),
(196,24,l),
(196,0,l),
(76,0,l)
);
},
{
attr = {
gradient = {
colors = (
(
(191,255),
0
),
(
(64,255),
1
)
);
end = (0.8618,0.4739);
start = (0.2695,1.1005);
};
};
closed = 1;
nodes = (
(123,376,l),
(123,377,l),
(196,377,l),
(196,354,l),
(196,353,l),
(123,353,l)
);
},
{
attr = {
gradient = {
colors = (
(
(64,255),
0.01851
),
(
(191,255),
0.51668
),
(
(64,255),
1
)
);
end = (0.7698,0.0614);
start = (0.7249,1.046);
};
};
closed = 1;
nodes = (
(197,0,l),
(196,0,l),
(196,377,l),
(197,377,l),
(220,353,l),
(220,24,l)
);
}
);
width = 263;
},
{
anchors = (
{
name = bottom;
pos = (535,0);
},
{
name = top;
pos = (533,730);
}
);
attr = {
color = "1";
};
layerId = "E87239EE-82B8-404C-B23A-53843E270889";
shapes = (
{
attr = {
gradient = {
colors = (
(
(64,255),
0
),
(
(191,255),
1
)
);
end = (0.4877,0.9217);
start = (0.4155,-0.0037);
};
};
closed = 1;
nodes = (
(238,730,l),
(239,730,l),
(239,204,l),
(25,204,l),
(25,523,l)
);
},
{
attr = {
gradient = {
colors = (
(
(64,255),
0
),
(
(191,255),
1
)
);
end = (0.8878,0.5878);
start = (0.0693,0.513);
};
};
closed = 1;
nodes = (
(902,527,l),
(902,526,l),
(239,526,l),
(239,730,l),
(700,730,l)
);
},
{
attr = {
gradient = {
colors = (
(
(191,255),
0
),
(
(64,255),
1
)
);
end = (0.8878,0.5878);
start = (0.0693,0.513);
};
};
closed = 1;
nodes = (
(25,203,l),
(25,204,l),
(688,204,l),
(688,0,l),
(227,0,l)
);
},
{
attr = {
gradient = {
colors = (
(
(191,255),
0
),
(
(64,255),
1
)
);
end = (0.9081,0.4266);
start = (0.0373,0.848);
};
};
closed = 1;
nodes = (
(298,466,l),
(298,467,l),
(688,467,l),
(688,264,l),
(688,263,l),
(298,263,l)
);
},
{
attr = {
gradient = {
colors = (
(
(64,255),
0
),
(
(191,255),
1
)
);
end = (0.1941,0.5408);
start = (0.8955,0.363);
};
};
closed = 1;
nodes = (
(689,0,l),
(688,0,l),
(688,467,l),
(689,467,l),
(902,274,l),
(902,197,l)
);
}
);
width = 927;
},
{
anchors = (
{
name = bottom;
pos = (535,0);
},
{
name = top;
pos = (533,730);
}
);
attr = {
color = "1";
};
layerId = m003;
shapes = (
{
attr = {
gradient = {
colors = (
(
(64,255),
0
),
(
(191,255),
1
)
);
end = (0.4877,0.9217);
start = (0.4155,-0.0037);
};
};
closed = 1;
nodes = (
(278,730,l),
(279,730,l),
(279,244,l),
(25,244,l),
(25,523,l)
);
},
{
attr = {
gradient = {
colors = (
(
(64,255),
0
),
(
(191,255),
1
)
);
end = (0.8878,0.5878);
start = (0.0693,0.513);
};
};
closed = 1;
nodes = (
(982,487,l),
(982,486,l),
(279,486,l),
(279,730,l),
(780,730,l)
);
},
{
attr = {
gradient = {
colors = (
(
(191,255),
0
),
(
(64,255),
1
)
);
end = (0.8878,0.5878);
start = (0.0693,0.513);
};
};
closed = 1;
nodes = (
(25,243,l),
(25,244,l),
(728,244,l),
(728,0,l),
(227,0,l)
);
},
{
attr = {
gradient = {
colors = (
(
(191,255),
0
),
(
(64,255),
1
)
);
end = (0.9081,0.4266);
start = (0.0373,0.848);
};
};
closed = 1;
nodes = (
(405,465,l),
(405,466,l),
(728,466,l),
(728,263,l),
(728,262,l),
(405,262,l)
);
},
{
attr = {
gradient = {
colors = (
(
(64,255),
0
),
(
(191,255),
1
)
);
end = (0.1941,0.5408);
start = (0.8955,0.363);
};
};
closed = 1;
nodes = (
(729,0,l),
(728,0,l),
(728,466,l),
(729,466,l),
(982,254,l),
(982,197,l)
);
}
);
width = 1007;
}
);
unicode = 71;
},
{
color = 4;
glyphname = H;
lastChange = "2022-06-06 09:54:33 +0000";
layers = (
{
anchors = (
{
name = top;
pos = (146,700);
}
);
attr = {
color = "1";
};
layerId = "33AE93C6-B8B3-427A-A53B-F24970E840CE";
shapes = (
{
attr = {
gradient = {
colors = (
(
(64,255),
0
),
(
(191,255),
0.52617
),
(
(64,255),
1
)
);
end = (0.4781,1.0761);
start = (0.4866,0.1832);
};
};
closed = 1;
nodes = (
(76,700,l),
(77,700,l),
(77,0,l),
(53,0,l),
(53,700,l)
);
},
{
attr = {
gradient = {
colors = (
(
(64,255),
0
),
(
(191,255),
0.65408
),
(
(64,255),
1
)
);
end = (0.8355,0.0089);
start = (0.6619,0.9472);
};
};
closed = 1;
nodes = (
(217,0,l),
(216,0,l),
(216,700,l),
(240,700,l),
(240,0,l)
);
},
{
attr = {
gradient = {
colors = (
(
(191,255),
0
),
(
(64,255),
1
)
);
end = (0.8353,0.456);
start = (0.2623,0.6901);
};
};
closed = 1;
nodes = (
(77,376,l),
(77,377,l),
(216,377,l),
(216,353,l),
(77,353,l)
);
}
);
width = 293;
},
{
anchors = (
{
name = top;
pos = (496,730);
}
);
attr = {
color = "1";
};
layerId = "E87239EE-82B8-404C-B23A-53843E270889";
shapes = (
{
attr = {
gradient = {
colors = (
(
(64,255),
0
),
(
(191,255),
1
)
);
end = (0.4877,0.9217);
start = (0.4155,-0.0037);
};
};
closed = 1;
nodes = (
(248,730,l),
(249,730,l),
(249,0,l),
(35,0,l),
(35,730,l)
);
},
{
attr = {
gradient = {
colors = (
(
(64,255),
0
),
(
(191,255),
1
)
);
end = (0.4056,0.1204);
start = (0.4192,0.8964);
};
};
closed = 1;
nodes = (
(599,-4,l),
(598,-4,l),
(598,730,l),
(812,730,l),
(812,-4,l)
);
},
{
attr = {
gradient = {
colors = (
(
(64,255),
0
),
(
(191,255),
1
)
);
end = (0.5305,0.1139);
start = (0.0635,0.8418);
};
};
closed = 1;
nodes = (
(249,467,l),
(598,467,l),
(598,466,l),
(598,263,l),
(249,263,l)
);
}
);
width = 847;
},
{
anchors = (
{
name = top;
pos = (496,730);
}
);
attr = {
color = "1";
};
layerId = m003;
shapes = (
{
attr = {
gradient = {
colors = (
(
(64,255),
0
),
(
(191,255),
1
)
);
end = (0.4877,0.9217);
start = (0.4155,-0.0037);
};
};
closed = 1;
nodes = (
(288,730,l),
(289,730,l),
(289,0,l),
(35,0,l),
(35,730,l)
);
},
{
attr = {
gradient = {
colors = (
(
(64,255),
0
),
(
(191,255),
1
)
);
end = (0.4056,0.1204);
start = (0.4192,0.8964);
};
};
closed = 1;
nodes = (
(639,-4,l),
(638,-4,l),
(638,730,l),
(892,730,l),
(892,-4,l)
);
},
{
attr = {
gradient = {
colors = (
(
(64,255),
0
),
(
(191,255),
1
)
);
end = (0.5305,0.1139);
start = (0.0635,0.8418);
};
};
closed = 1;
nodes = (
(289,487,l),
(638,487,l),
(638,486,l),
(638,243,l),
(289,243,l)
);
}
);
width = 927;
}
);
unicode = 72;
},
{
color = 2;
glyphname = Hbar;
lastChange = "2022-06-08 16:29:15 +0000";
layers = (
{
attr = {
color = "1";
};
layerId = "33AE93C6-B8B3-427A-A53B-F24970E840CE";
shapes = (
{
attr = {
gradient = {
colors = (
(
(191,255),
0
),
(
(64,255),
1
)
);
end = (0.9313,0.7093);
start = (0.0105,0.4062);
};
identifier = ID0x60000049aa00;
};
closed = 1;
nodes = (
(10,483,l),
(10,507,l),
(283,507,l),
(283,506,l),
(283,483,l)
);
},
{
ref = H;
}
);
width = 293;
},
{
attr = {
color = "1";
};
layerId = "E87239EE-82B8-404C-B23A-53843E270889";
shapes = (
{
attr = {
gradient = {
colors = (
(
(191,255),
0
),
(
(64,255),
1
)
);
end = (0.7409,0.4211);
start = (0.0588,0.0899);
};
identifier = ID0x600000498620;
};
closed = 1;
nodes = (
(20,529,l),
(20,653,l),
(917,653,l),
(917,652,l),
(917,529,l)
);
},
{
pos = (55,0);
ref = H;
}
);
width = 937;
},
{
attr = {
color = "1";
};
layerId = m003;
shapes = (
{
attr = {
gradient = {
colors = (
(
(191,255),
0
),
(
(64,255),
1
)
);
end = (0.7409,0.4211);
start = (0.0588,0.0899);
};
identifier = ID0x600000498620;
};
closed = 1;
nodes = (
(20,519,l),
(20,693,l),
(997,693,l),
(997,692,l),
(997,519,l)
);
},
{
pos = (55,0);
ref = H;
}
);
width = 1017;
}
);
unicode = 294;
},
{
color = 4;
glyphname = I;
lastChange = "2022-06-06 09:54:59 +0000";
layers = (
{
anchors = (
{
name = bottom;
pos = (112,0);
},
{
name = top;
pos = (115,700);
}
);
attr = {
color = "1";
};
layerId = "33AE93C6-B8B3-427A-A53B-F24970E840CE";
shapes = (
{
attr = {
gradient = {
colors = (
(
(64,255),
0.01
),
(
(191,255),
1
)
);
end = (0.5457,0.9842);
start = (0.9656,0.0453);
};
};
closed = 1;
nodes = (
(124,700,l),
(125,700,l),
(125,24,l),
(102,0,l),
(101,0,l),
(101,676,l)
);
},
{
attr = {
gradient = {
colors = (
(
(64,255),
0
),
(
(191,255),
1
)
);
end = (0.7658,0.909);
start = (0.089,0.1962);
};
};
closed = 1;
nodes = (
(20,676,l),
(20,700,l),
(124,700,l),
(101,676,l)
);
},
{
attr = {
gradient = {
colors = (
(
(64,255),
0
),
(
(191,255),
1
)
);
end = (0.7658,0.909);
start = (0.21,0.0899);
};
};
closed = 1;
nodes = (
(125,676,l),
(125,700,l),
(205,700,l),
(205,676,l)
);
},
{
attr = {
gradient = {
colors = (
(
(64,255),
0
),
(
(191,255),
1
)
);
end = (0.9719,0.4393);
start = (0.1431,0.6404);
};
};
closed = 1;
nodes = (
(206,24,l),
(206,0,l),
(102,0,l),
(125,24,l)
);
},
{
attr = {
gradient = {
colors = (
(
(191,255),
0
),
(
(64,255),
1
)
);
end = (0.7658,0.909);
start = (0.21,0.0899);
};
};
closed = 1;
nodes = (
(101,24,l),
(101,0,l),
(21,0,l),
(21,24,l)
);
}
);
width = 226;
},
{
anchors = (
{
name = bottom;
pos = (370,0);
},
{
name = top;
pos = (371,730);
}
);
attr = {
color = "1";
};
layerId = "E87239EE-82B8-404C-B23A-53843E270889";
shapes = (
{
attr = {
gradient = {
colors = (
(
(191,255),
0
),
(
(64,255),
1
)
);
end = (0.6746,0.2057);
start = (-0.022,0.6501);
};
};
closed = 1;
nodes = (
(408,730,l),
(460,730,l),
(460,204,l),
(298,0,l),
(245,0,l),
(246,526,l)
);
},
{
attr = {
gradient = {
colors = (
(
(64,255),
0
),
(
(191,255),
1
)
);
end = (0.8801,0.7274);
start = (0.0295,0.395);
};
};
closed = 1;
nodes = (
(25,526,l),
(25,730,l),
(408,730,l),
(246,526,l)
);
},
{
attr = {
gradient = {
colors = (
(
(64,255),
0
),
(
(191,255),
1
)
);
end = (1.0519,0.9246);
start = (0.0112,0.2467);
};
};
closed = 1;
nodes = (
(460,526,l),
(460,730,l),
(631,730,l),
(631,526,l)
);
},
{
attr = {
gradient = {
colors = (
(
(191,255),
0
),
(
(64,255),
1
)
);
end = (0.1134,0.2082);
start = (0.9801,0.7122);
};
};
closed = 1;
nodes = (
(632,204,l),
(632,0,l),
(298,0,l),
(460,204,l)
);
},
{
attr = {
gradient = {
colors = (
(
(64,255),
0
),
(
(191,255),
1
)
);
end = (0.0138,0.304);
start = (0.9791,0.7352);
};
};
closed = 1;
nodes = (
(245,204,l),
(245,0,l),
(25,1,l),
(25,204,l)
);
}
);
width = 657;
},
{
anchors = (
{
name = bottom;
pos = (370,0);
},
{
name = top;
pos = (371,730);
}
);
attr = {
color = "1";
};
layerId = m003;
shapes = (
{
attr = {
gradient = {
colors = (
(
(191,255),
0
),
(
(64,255),
1
)
);
end = (0.6746,0.2057);
start = (-0.022,0.6501);
};
};
closed = 1;
nodes = (
(448,730,l),
(500,730,l),
(500,244,l),
(298,0,l),
(245,0,l),
(246,486,l)
);
},
{
attr = {
gradient = {
colors = (
(
(64,255),
0
),
(
(191,255),
1
)
);
end = (0.8801,0.7274);
start = (0.0295,0.395);
};
};
closed = 1;
nodes = (
(25,486,l),
(25,730,l),
(448,730,l),
(246,486,l)
);
},
{
attr = {
gradient = {
colors = (
(
(64,255),
0
),
(
(191,255),
1
)
);
end = (1.0519,0.9246);
start = (0.0112,0.2467);
};
};
closed = 1;
nodes = (
(500,486,l),
(500,730,l),
(671,730,l),
(671,486,l)
);
},
{
attr = {
gradient = {
colors = (
(
(191,255),
0
),
(
(64,255),
1
)
);
end = (0.1134,0.2082);
start = (0.9801,0.7122);
};
};
closed = 1;
nodes = (
(672,244,l),
(672,0,l),
(298,0,l),
(500,244,l)
);
},
{
attr = {
gradient = {
colors = (
(
(64,255),
0
),
(
(191,255),
1
)
);
end = (0.0138,0.304);
start = (0.9791,0.7352);
};
};
closed = 1;
nodes = (
(245,244,l),
(245,0,l),
(25,1,l),
(25,244,l)
);
}
);
width = 697;
}
);
metricRight = "=|";
unicode = 73;
},
{
color = 3;
glyphname = J;
lastChange = "2022-06-08 12:09:52 +0000";
layers = (
{
anchors = (
{
name = top;
pos = (148,700);
}
);
attr = {
color = "1";
};
layerId = "33AE93C6-B8B3-427A-A53B-F24970E840CE";
shapes = (
{
attr = {
gradient = {
colors = (
(
(64,255),
0.01
),
(
(191,255),
1
)
);
end = (0.9485,1.0116);
start = (1.1024,-0.0032);
};
};
closed = 1;
nodes = (
(140,676,l),
(163,700,l),
(164,700,l),
(164,24,l),
(140,24,l)
);
},
{
attr = {
gradient = {
colors = (
(
(64,255),
0.01332
),
(
(191,255),
1
)
);
end = (0.7939,0.0148);
start = (0.1121,1.5222);
};
};
closed = 1;
nodes = (
(39,676,l),
(39,700,l),
(163,700,l),
(140,676,l)
);
},
{
attr = {
gradient = {
colors = (
(
(64,255),
0
),
(
(191,255),
1
)
);
end = (1.0015,0.2197);
start = (0.0147,0.4684);
};
};
closed = 1;
nodes = (
(164,676,l),
(164,700,l),
(234,700,l),
(234,676,l)
);
},
{
attr = {
gradient = {
colors = (
(
(64,255),
0
),
(
(191,255),
1
)
);
end = (0.9529,0.8922);
start = (-0.0035,0.3197);
};
};
closed = 1;
nodes = (
(164,24,l),
(164,23,l),
(140,0,l),
(20,0,l),
(20,24,l)
);
}
);
width = 254;
},
{
anchors = (
{
name = top;
pos = (386,730);
}
);
attr = {
color = "1";
};
layerId = "E87239EE-82B8-404C-B23A-53843E270889";
shapes = (
{
attr = {
gradient = {
colors = (
(
(64,255),
0
),
(
(191,255),
1
)
);
end = (0.4877,0.9217);
start = (0.4155,-0.0037);
};
};
closed = 1;
nodes = (
(306,526,l),
(468,730,l),
(520,730,l),
(520,200,l),
(306,200,l)
);
},
{
attr = {
gradient = {
colors = (
(
(64,255),
0
),
(
(191,255),
1
)
);
end = (0.7658,0.909);
start = (0.089,0.1962);
};
};
closed = 1;
nodes = (
(25,526,l),
(25,730,l),
(468,730,l),
(306,526,l)
);
},
{
attr = {
gradient = {
colors = (
(
(64,255),
0
),
(
(191,255),
1
)
);
end = (0.7658,0.909);
start = (0.21,0.0899);
};
};
closed = 1;
nodes = (
(520,526,l),
(520,730,l),
(631,730,l),
(631,526,l)
);
},
{
attr = {
gradient = {
colors = (
(
(64,255),
0
),
(
(191,255),
1
)
);
end = (0.7658,0.909);
start = (0.1245,0.1818);
};
};
closed = 1;
nodes = (
(520,200,l),
(520,199,l),
(358,-4,l),
(47,-4,l),
(47,200,l)
);
}
);
width = 657;
},
{
anchors = (
{
name = top;
pos = (386,730);
}
);
attr = {
color = "1";
};
layerId = m003;
shapes = (
{
attr = {
gradient = {
colors = (
(
(64,255),
0
),
(
(191,255),
1
)
);
end = (0.4877,0.9217);
start = (0.4155,-0.0037);
};
};
closed = 1;
nodes = (
(448,730,l),
(500,730,l),
(500,240,l),
(246,240,l),
(246,486,l)
);
},
{
attr = {
gradient = {
colors = (
(
(64,255),
0
),
(
(191,255),
1
)
);
end = (0.7658,0.909);
start = (0.089,0.1962);
};
};
closed = 1;
nodes = (
(25,486,l),
(25,730,l),
(448,730,l),
(246,486,l)
);
},
{
attr = {
gradient = {
colors = (
(
(64,255),
0
),
(
(191,255),
1
)
);
end = (0.7658,0.909);
start = (0.21,0.0899);
};
};
closed = 1;
nodes = (
(500,486,l),
(500,730,l),
(671,730,l),
(671,486,l)
);
},
{
attr = {
gradient = {
colors = (
(
(64,255),
0
),
(
(191,255),
1
)
);
end = (0.7658,0.909);
start = (0.1245,0.1818);
};
};
closed = 1;
nodes = (
(500,240,l),
(500,239,l),
(298,-4,l),
(47,-4,l),
(47,240,l)
);
}
);
width = 697;
}
);
unicode = 74;
},
{
color = 4;
glyphname = K;
kernLeft = H;
lastChange = "2022-06-06 09:57:41 +0000";
layers = (
{
anchors = (
{
name = bottom;
pos = (152,0);
}
);
attr = {
color = "1";
};
layerId = "33AE93C6-B8B3-427A-A53B-F24970E840CE";
shapes = (
{
attr = {
gradient = {
colors = (
(
(64,255),
0
),
(
(191,255),
1
)
);
end = (0.4877,0.9217);
start = (0.4155,-0.0037);
};
};
closed = 1;
nodes = (
(77,700,l),
(77,0,l),
(53,0,l),
(53,700,l)
);
},
{
attr = {
gradient = {
colors = (
(
(64,255),
0
),
(
(191,255),
0.51642
),
(
(64,255),
1
)
);
end = (0.5113,0.0309);
start = (0.2454,0.9618);
};
};
closed = 1;
nodes = (
(247,0,l),
(163,353,l),
(183,373,l),
(273,0,l)
);
},
{
attr = {
gradient = {
colors = (
(
(64,255),
0
),
(
(191,255),
1
)
);
end = (0.2746,0.29);
start = (0.4852,0.9879);
};
};
closed = 1;
nodes = (
(197,353,l),
(196,353,l),
(196,700,l),
(220,700,l),
(220,376,l)
);
},
{
attr = {
gradient = {
colors = (
(
(64,255),
0
),
(
(191,255),
0.5
),
(
(64,255),
1
)
);
end = (0.0587,0.1922);
start = (0.9871,0.9521);
};
};
closed = 1;
nodes = (
(77,377,l),
(196,377,l),
(196,353,l),
(77,353,l)
);
}
);
width = 296;
},
{
anchors = (
{
name = bottom;
pos = (435,0);
}
);
attr = {
color = "1";
};
layerId = "E87239EE-82B8-404C-B23A-53843E270889";
shapes = (
{
attr = {
gradient = {
colors = (
(
(64,255),
0
),
(
(191,255),
1
)
);
end = (0.4877,0.9217);
start = (0.4155,-0.0037);
};
};
closed = 1;
nodes = (
(249,730,l),
(249,0,l),
(35,0,l),
(35,730,l)
);
},
{
attr = {
gradient = {
colors = (
(
(191,255),
0
),
(
(64,255),
1
)
);
end = (0.3248,0.6736);
start = (0.7282,-0.0074);
};
};
closed = 1;
nodes = (
(600,0,l),
(424,250,l),
(598,373,l),
(871,0,l)
);
},
{
attr = {
gradient = {
colors = (
(
(64,255),
0
),
(
(191,255),
1
)
);
end = (0.2746,0.29);
start = (0.4852,0.9879);
};
};
closed = 1;
nodes = (
(549,243,l),
(548,243,l),
(548,730,l),
(762,730,l),
(762,420,l)
);
},
{
attr = {
gradient = {
colors = (
(
(64,255),
0
),
(
(191,255),
0.5
),
(
(64,255),
1
)
);
end = (0.0587,0.1922);
start = (0.9871,0.9521);
};
};
closed = 1;
nodes = (
(249,447,l),
(548,447,l),
(548,243,l),
(249,243,l)
);
}
);
width = 871;
},
{
anchors = (
{
name = bottom;
pos = (435,0);
}
);
attr = {
color = "1";
};
layerId = m003;
shapes = (
{
attr = {
gradient = {
colors = (
(
(64,255),
0
),
(
(191,255),
1
)
);
end = (0.4877,0.9217);
start = (0.4155,-0.0037);
};
};
closed = 1;
nodes = (
(289,730,l),
(289,0,l),
(35,0,l),
(35,730,l)
);
},
{
attr = {
gradient = {
colors = (
(
(191,255),
0
),
(
(64,255),
1
)
);
end = (0.3248,0.6736);
start = (0.7282,-0.0074);
};
};
closed = 1;
nodes = (
(640,0,l),
(464,240,l),
(678,363,l),
(951,0,l)
);
},
{
attr = {
gradient = {
colors = (
(
(64,255),
0
),
(
(191,255),
1
)
);
end = (0.2746,0.29);
start = (0.4852,0.9879);
};
};
closed = 1;
nodes = (
(589,223,l),
(588,223,l),
(588,730,l),
(842,730,l),
(842,420,l)
);
},
{
attr = {
gradient = {
colors = (
(
(64,255),
0
),
(
(191,255),
0.5
),
(
(64,255),
1
)
);
end = (0.0587,0.1922);
start = (0.9871,0.9521);
};
};
closed = 1;
nodes = (
(289,467,l),
(588,467,l),
(588,223,l),
(289,223,l)
);
}
);
width = 951;
}
);
unicode = 75;
},
{
color = 4;
glyphname = L;
kernLeft = U;
lastChange = "2022-06-06 09:58:00 +0000";
layers = (
{
anchors = (
{
name = bottom;
pos = (152,0);
},
{
name = top;
pos = (73,700);
}
);
attr = {
color = "1";
};
layerId = "33AE93C6-B8B3-427A-A53B-F24970E840CE";
shapes = (
{
attr = {
gradient = {
colors = (
(
(64,255),
0
),
(
(191,255),
1
)
);
end = (0.4877,0.9217);
start = (0.453,0.0037);
};
};
closed = 1;
nodes = (
(76,700,l),
(77,700,l),
(77,24,l),
(53,24,l),
(53,700,l)
);
},
{
attr = {
gradient = {
colors = (
(
(191,255),
0
),
(
(64,255),
1
)
);
end = (0.8878,0.5878);
start = (0.0693,0.513);
};
};
closed = 1;
nodes = (
(53,23,l),
(53,24,l),
(256,24,l),
(256,0,l),
(76,0,l)
);
}
);
width = 256;
},
{
anchors = (
{
name = bottom;
pos = (445,0);
},
{
name = top;
pos = (173,730);
}
);
attr = {
color = "1";
};
layerId = "E87239EE-82B8-404C-B23A-53843E270889";
shapes = (
{
attr = {
gradient = {
colors = (
(
(64,255),
0
),
(
(191,255),
1
)
);
end = (0.4877,0.8996);
start = (0.4155,-0.0037);
};
};
closed = 1;
nodes = (
(248,730,l),
(249,730,l),
(249,200,l),
(35,200,l),
(35,730,l)
);
},
{
attr = {
gradient = {
colors = (
(
(191,255),
0
),
(
(64,255),
1
)
);
end = (0.8878,0.5878);
start = (0.0693,0.513);
};
};
closed = 1;
nodes = (
(35,199,l),
(35,200,l),
(728,200,l),
(728,-4,l),
(237,-4,l)
);
}
);
width = 753;
},
{
anchors = (
{
name = bottom;
pos = (445,0);
},
{
name = top;
pos = (173,730);
}
);
attr = {
color = "1";
};
layerId = m003;
shapes = (
{
attr = {
gradient = {
colors = (
(
(64,255),
0
),
(
(191,255),
1
)
);
end = (0.4877,0.8996);
start = (0.4155,-0.0037);
};
};
closed = 1;
nodes = (
(288,730,l),
(289,730,l),
(289,240,l),
(35,240,l),
(35,730,l)
);
},
{
attr = {
gradient = {
colors = (
(
(191,255),
0
),
(
(64,255),
1
)
);
end = (0.8878,0.5878);
start = (0.0693,0.513);
};
};
closed = 1;
nodes = (
(35,239,l),
(35,240,l),
(768,240,l),
(768,-4,l),
(237,-4,l)
);
}
);
width = 793;
}
);
unicode = 76;
},
{
color = 2;
glyphname = Lslash;
kernRight = L;
lastChange = "2022-06-06 09:42:41 +0000";
layers = (
{
attr = {
color = "1";
};
layerId = "33AE93C6-B8B3-427A-A53B-F24970E840CE";
shapes = (
{
attr = {
gradient = {
colors = (
(
(128,255),
0.03599
),
(
(64,255),
0.5044
),
(
(191,255),
1
)
);
end = (0.9313,0.7093);
start = (0.0538,0.0697);
};
identifier = ID0x60000049aa00;
};
closed = 1;
nodes = (
(59,294,l),
(43,312,l),
(150,441,l),
(150,440,l),
(166,423,l)
);
},
{
pos = (30,0);
ref = L;
}
);
width = 309;
},
{
attr = {
color = "1";
};
layerId = "E87239EE-82B8-404C-B23A-53843E270889";
shapes = (
{
attr = {
gradient = {
colors = (
(
(128,255),
0
),
(
(64,255),
0.51565
),
(
(191,255),
1
)
);
end = (0.9498,0.912);
start = (0.0904,0.1467);
};
identifier = ID0x600000498620;
};
closed = 1;
nodes = (
(96,223,l),
(0,363,l),
(446,699,l),
(447,698,l),
(542,559,l)
);
},
{
pos = (105,0);
ref = L;
}
);
width = 888;
},
{
attr = {
color = "1";
};
layerId = m003;
shapes = (
{
attr = {
gradient = {
colors = (
(
(128,255),
0
),
(
(64,255),
0.51565
),
(
(191,255),
1
)
);
end = (0.9498,0.912);
start = (0.0904,0.1467);
};
identifier = ID0x600000498620;
};
closed = 1;
nodes = (
(96,223,l),
(0,363,l),
(446,699,l),
(447,698,l),
(542,559,l)
);
},
{
pos = (105,0);
ref = L;
}
);
width = 888;
}
);
unicode = 321;
},
{
color = 4;
glyphname = M;
kernLeft = H;
kernRight = H;
lastChange = "2022-06-08 13:27:06 +0000";
layers = (
{
attr = {
color = "1";
};
layerId = "33AE93C6-B8B3-427A-A53B-F24970E840CE";
shapes = (
{
attr = {
gradient = {
colors = (
(
(64,255),
0
),
(
(191,255),
1
)
);
end = (0.2296,0.0026);
start = (0.9852,0.6189);
};
identifier = ID0x6000032b3f00;
};
closed = 1;
nodes = (
(53,679,l),
(77,655,l),
(77,0,l),
(53,0,l)
);
},
{
attr = {
gradient = {
colors = (
(
(191,255),
0
),
(
(64,255),
1
)
);
end = (0.4877,0.9217);
start = (0.4155,-0.0037);
};
identifier = ID0x6000032b3f00;
};
closed = 1;
nodes = (
(222,-3,l),
(196,-3,l),
(342,703,l),
(365,680,l)
);
},
{
attr = {
gradient = {
colors = (
(
(64,255),
0
),
(
(191,255),
1
)
);
end = (0.4877,0.9217);
start = (0.4155,-0.0037);
};
identifier = ID0x6000032b3f00;
};
closed = 1;
nodes = (
(53,679,l),
(53,680,l),
(76,703,l),
(77,703,l),
(222,-2,l),
(222,-3,l),
(196,-3,l)
);
},
{
attr = {
gradient = {
colors = (
(
(191,255),
0
),
(
(64,255),
1
)
);
end = (0.2296,0.0026);
start = (0.9852,0.6189);
};
identifier = ID0x6000032b3f00;
};
closed = 1;
nodes = (
(342,703,l),
(343,703,l),
(366,679,l),
(366,0,l),
(342,0,l)
);
}
);
width = 419;
},
{
attr = {
color = "1";
};
layerId = "E87239EE-82B8-404C-B23A-53843E270889";
shapes = (
{
attr = {
gradient = {
colors = (
(
(191,255),
0
),
(
(64,255),
1
)
);
end = (0.2887,0.9217);
start = (0.4155,-0.0037);
};
};
closed = 1;
nodes = (
(35,736,l),
(249,358,l),
(249,0,l),
(35,0,l)
);
},
{
attr = {
gradient = {
colors = (
(
(64,255),
0
),
(
(194,255),
1
)
);
end = (0.3182,0.0469);
start = (0.501,0.7225);
};
};
closed = 1;
nodes = (
(649,-6,l),
(532,160,l),
(837,736,l),
(947,465,l)
);
},
{
attr = {
gradient = {
colors = (
(
(64,255),
0
),
(
(191,255),
1
)
);
end = (0.3404,0.9774);
start = (0.4155,-0.0037);
};
};
closed = 1;
nodes = (
(35,736,l),
(36,736,l),
(248,736,l),
(249,736,l),
(649,-5,l),
(649,-6,l),
(445,-6,l)
);
},
{
attr = {
gradient = {
colors = (
(
(64,255),
0
),
(
(191,255),
1
)
);
end = (0.4877,0.9217);
start = (0.4155,-0.0037);
};
};
closed = 1;
nodes = (
(836,736,l),
(837,736,l),
(1060,736,l),
(1050,0,l),
(836,0,l)
);
}
);
width = 1095;
},
{
attr = {
color = "1";
};
layerId = m003;
shapes = (
{
attr = {
gradient = {
colors = (
(
(191,255),
0
),
(
(64,255),
1
)
);
end = (0.2887,0.9217);
start = (0.4155,-0.0037);
};
};
closed = 1;
nodes = (
(35,736,l),
(289,326,l),
(289,0,l),
(35,0,l)
);
},
{
attr = {
gradient = {
colors = (
(
(64,255),
0
),
(
(194,255),
1
)
);
end = (0.3182,0.0469);
start = (0.501,0.7225);
};
};
closed = 1;
nodes = (
(732,-6,l),
(572,160,l),
(917,736,l),
(1017,465,l)
);
},
{
attr = {
gradient = {
colors = (
(
(64,255),
0
),
(
(191,255),
1
)
);
end = (0.3404,0.9774);
start = (0.4155,-0.0037);
};
};
closed = 1;
nodes = (
(35,736,l),
(36,736,l),
(258,736,l),
(259,736,l),
(732,-5,l),
(732,-6,l),
(473,-6,l)
);
},
{
attr = {
gradient = {
colors = (
(
(64,255),
0
),
(
(191,255),
1
)
);
end = (0.4877,0.9217);
start = (0.4155,-0.0037);
};
};
closed = 1;
nodes = (
(916,736,l),
(917,736,l),
(1180,736,l),
(1170,0,l),
(916,0,l)
);
}
);
width = 1215;
}
);
unicode = 77;
},
{
color = 4;
glyphname = N;
kernLeft = A;
kernRight = U;
lastChange = "2022-06-06 10:19:18 +0000";
layers = (
{
anchors = (
{
name = bottom;
pos = (165,0);
},
{
name = top;
pos = (168,700);
}
);
attr = {
color = "1";
};
layerId = "33AE93C6-B8B3-427A-A53B-F24970E840CE";
shapes = (
{
attr = {
gradient = {
colors = (
(
(64,255),
0
),
(
(191,255),
1
)
);
end = (0.2296,0.0026);
start = (0.9852,0.6189);
};
};
closed = 1;
nodes = (
(53,679,l),
(77,655,l),
(77,0,l),
(53,0,l)
);
},
{
attr = {
gradient = {
colors = (
(
(64,255),
0
),
(
(191,255),
1
)
);
end = (0.8068,0.953);
start = (0.1553,0.418);
};
};
closed = 1;
nodes = (
(260,22,l),
(236,46,l),
(236,700,l),
(260,700,l)
);
},
{
attr = {
gradient = {
colors = (
(
(191,255),
0
),
(
(128,255),
0.50053
),
(
(191,255),
1
)
);
end = (0.4877,0.9217);
start = (0.4155,-0.0037);
};
};
closed = 1;
nodes = (
(53,680,l),
(76,703,l),
(77,703,l),
(260,22,l),
(260,21,l),
(237,-3,l),
(236,-3,l),
(53,679,l)
);
}
);
width = 313;
},
{
anchors = (
{
name = bottom;
pos = (445,0);
},
{
name = top;
pos = (456,730);
}
);
attr = {
color = "1";
};
layerId = "E87239EE-82B8-404C-B23A-53843E270889";
shapes = (
{
attr = {
gradient = {
colors = (
(
(64,255),
0
),
(
(191,255),
1
)
);
end = (0.2296,0.0026);
start = (0.9852,0.6189);
};
};
closed = 1;
nodes = (
(35,591,l),
(249,381,l),
(249,0,l),
(35,0,l)
);
},
{
attr = {
gradient = {
colors = (
(
(64,255),
0
),
(
(191,255),
1
)
);
end = (0.8068,0.953);
start = (0.1553,0.418);
};
};
closed = 1;
nodes = (
(782,152,l),
(568,362,l),
(568,730,l),
(782,730,l)
);
},
{
attr = {
gradient = {
colors = (
(
(64,255),
0
),
(
(191,255),
1
)
);
end = (0.4877,0.9217);
start = (0.4155,-0.0037);
};
};
closed = 1;
nodes = (
(35,592,l),
(187,736,l),
(188,736,l),
(782,152,l),
(782,151,l),
(643,-6,l),
(642,-6,l),
(35,591,l)
);
}
);
width = 817;
},
{
anchors = (
{
name = bottom;
pos = (445,0);
},
{
name = top;
pos = (456,730);
}
);
attr = {
color = "1";
};
layerId = m003;
shapes = (
{
attr = {
gradient = {
colors = (
(
(64,255),
0
),
(
(191,255),
1
)
);
end = (0.2296,0.0026);
start = (0.9852,0.6189);
};
};
closed = 1;
nodes = (
(35,571,l),
(289,345,l),
(289,0,l),
(35,0,l)
);
},
{
attr = {
gradient = {
colors = (
(
(64,255),
0
),
(
(191,255),
1
)
);
end = (0.8068,0.953);
start = (0.1553,0.418);
};
};
closed = 1;
nodes = (
(862,172,l),
(608,397,l),
(608,730,l),
(862,730,l)
);
},
{
attr = {
gradient = {
colors = (
(
(64,255),
0
),
(
(191,255),
1
)
);
end = (0.4877,0.9217);
start = (0.4155,-0.0037);
};
};
closed = 1;
nodes = (
(35,572,l),
(227,736,l),
(228,736,l),
(862,172,l),
(862,171,l),
(683,-6,l),
(682,-6,l),
(35,571,l)
);
}
);
width = 897;
}
);
unicode = 78;
},
{
color = 4;
glyphname = Eng;
kernLeft = A;
kernRight = j;
lastChange = "2022-06-06 09:42:41 +0000";
layers = (
{
attr = {
color = "1";
};
layerId = "33AE93C6-B8B3-427A-A53B-F24970E840CE";
shapes = (
{
attr = {
gradient = {
colors = (
(
(64,255),
0
),
(
(191,255),
1
)
);
end = (0.9529,0.8922);
start = (-0.0035,0.3197);
};
};
closed = 1;
nodes = (
(260,-176,l),
(260,-177,l),
(236,-200,l),
(196,-200,l),
(196,-176,l)
);
},
{
attr = {
gradient = {
colors = (
(
(64,255),
0
),
(
(191,255),
1
)
);
end = (0.2296,0.0026);
start = (0.9852,0.6189);
};
};
closed = 1;
nodes = (
(53,679,l),
(77,655,l),
(77,0,l),
(53,0,l)
);
},
{
attr = {
gradient = {
colors = (
(
(64,255),
0
),
(
(191,255),
1
)
);
end = (0.8068,0.953);
start = (0.1553,0.418);
};
};
closed = 1;
nodes = (
(260,-176,l),
(236,-176,l),
(236,700,l),
(260,700,l)
);
},
{
attr = {
gradient = {
colors = (
(
(191,255),
0
),
(
(64,255),
0.50053
),
(
(191,255),
1
)
);
end = (0.4877,0.9217);
start = (0.4155,-0.0037);
};
};
closed = 1;
nodes = (
(53,680,l),
(76,703,l),
(77,703,l),
(260,22,l),
(260,21,l),
(237,-3,l),
(236,-3,l),
(53,679,l)
);
}
);
width = 313;
},
{
attr = {
color = "1";
};
layerId = "E87239EE-82B8-404C-B23A-53843E270889";
shapes = (
{
attr = {
gradient = {
colors = (
(
(64,255),
0
),
(
(191,255),
1
)
);
end = (0.7658,0.909);
start = (0.1245,0.1818);
};
};
closed = 1;
nodes = (
(852,-24,l),
(852,-25,l),
(650,-268,l),
(469,-268,l),
(469,-24,l)
);
},
{
attr = {
gradient = {
colors = (
(
(64,255),
0
),
(
(191,255),
1
)
);
end = (0.2296,0.0026);
start = (0.9852,0.6189);
};
};
closed = 1;
nodes = (
(25,571,l),
(279,345,l),
(279,0,l),
(25,0,l)
);
},
{
attr = {
gradient = {
colors = (
(
(64,255),
0
),
(
(191,255),
1
)
);
end = (0.8068,0.953);
start = (0.1553,0.418);
};
};
closed = 1;
nodes = (
(852,-24,l),
(598,-24,l),
(598,730,l),
(852,730,l)
);
},
{
attr = {
gradient = {
colors = (
(
(64,255),
0
),
(
(191,255),
1
)
);
end = (0.4877,0.9217);
start = (0.4155,-0.0037);
};
};
closed = 1;
nodes = (
(25,572,l),
(217,736,l),
(218,736,l),
(852,172,l),
(852,171,l),
(673,-6,l),
(672,-6,l),
(25,571,l)
);
}
);
width = 877;
},
{
attr = {
color = "1";
};
layerId = m003;
shapes = (
{
attr = {
gradient = {
colors = (
(
(64,255),
0
),
(
(191,255),
1
)
);
end = (0.7658,0.909);
start = (0.1245,0.1818);
};
};
closed = 1;
nodes = (
(852,-24,l),
(852,-25,l),
(650,-268,l),
(469,-268,l),
(469,-24,l)
);
},
{
attr = {
gradient = {
colors = (
(
(64,255),
0
),
(
(191,255),
1
)
);
end = (0.2296,0.0026);
start = (0.9852,0.6189);
};
};
closed = 1;
nodes = (
(25,571,l),
(279,345,l),
(279,0,l),
(25,0,l)
);
},
{
attr = {
gradient = {
colors = (
(
(64,255),
0
),
(
(191,255),
1
)
);
end = (0.8068,0.953);
start = (0.1553,0.418);
};
};
closed = 1;
nodes = (
(852,-24,l),
(598,-24,l),
(598,730,l),
(852,730,l)
);
},
{
attr = {
gradient = {
colors = (
(
(64,255),
0
),
(
(191,255),
1
)
);
end = (0.4877,0.9217);
start = (0.4155,-0.0037);
};
};
closed = 1;
nodes = (
(25,572,l),
(217,736,l),
(218,736,l),
(852,172,l),
(852,171,l),
(673,-6,l),
(672,-6,l),
(25,571,l)
);
}
);
width = 877;
}
);
unicode = 330;
},
{
color = 4;
glyphname = O;
kernLeft = O;
kernRight = O;
lastChange = "2022-06-06 10:04:00 +0000";
layers = (
{
anchors = (
{
name = bottom;
pos = (142,0);
},
{
name = horn;
pos = (197,700);
},
{
name = top;
pos = (138,700);
}
);
attr = {
color = "1";
};
layerId = "33AE93C6-B8B3-427A-A53B-F24970E840CE";
shapes = (
{
attr = {
gradient = {
colors = (
(
(64,255),
0
),
(
(191,255),
1
)
);
end = (0.4877,0.9217);
start = (0.453,0.0037);
};
};
closed = 1;
nodes = (
(76,700,l),
(77,700,l),
(77,24,l),
(53,24,l),
(53,677,l)
);
},
{
attr = {
gradient = {
colors = (
(
(64,255),
0
),
(
(191,255),
1
)
);
end = (0.8878,0.5878);
start = (0.0693,0.513);
};
};
closed = 1;
nodes = (
(220,677,l),
(220,676,l),
(77,676,l),
(77,700,l),
(197,700,l)
);
},
{
attr = {
gradient = {
colors = (
(
(64,255),
0
),
(
(191,255),
1
)
);
end = (0.4056,0.1204);
start = (0.4192,0.8964);
};
};
closed = 1;
nodes = (
(197,0,l),
(196,0,l),
(196,676,l),
(220,676,l),
(220,23,l)
);
},
{
attr = {
gradient = {
colors = (
(
(191,255),
0
),
(
(64,255),
1
)
);
end = (0.8878,0.5878);
start = (0.0693,0.513);
};
};
closed = 1;
nodes = (
(53,23,l),
(53,24,l),
(196,24,l),
(196,0,l),
(76,0,l)
);
}
);
width = 273;
},
{
anchors = (
{
name = bottom;
pos = (452,0);
},
{
name = horn;
pos = (680,730);
},
{
name = top;
pos = (476,730);
}
);
attr = {
color = "1";
};
layerId = "E87239EE-82B8-404C-B23A-53843E270889";
shapes = (
{
attr = {
gradient = {
colors = (
(
(64,255),
0
),
(
(191,255),
1
)
);
end = (0.4877,0.9217);
start = (0.4155,-0.0037);
};
};
closed = 1;
nodes = (
(238,730,l),
(239,730,l),
(239,204,l),
(25,204,l),
(25,523,l)
);
},
{
attr = {
gradient = {
colors = (
(
(64,255),
0
),
(
(191,255),
1
)
);
end = (0.8878,0.5878);
start = (0.0693,0.513);
};
};
closed = 1;
nodes = (
(802,527,l),
(802,526,l),
(239,526,l),
(239,730,l),
(640,730,l)
);
},
{
attr = {
gradient = {
colors = (
(
(64,255),
0
),
(
(191,255),
1
)
);
end = (0.4056,0.1204);
start = (0.4192,0.8964);
};
};
closed = 1;
nodes = (
(589,0,l),
(588,0,l),
(588,526,l),
(802,526,l),
(802,207,l)
);
},
{
attr = {
gradient = {
colors = (
(
(191,255),
0
),
(
(64,255),
1
)
);
end = (0.8878,0.5878);
start = (0.0693,0.513);
};
};
closed = 1;
nodes = (
(25,203,l),
(25,204,l),
(588,204,l),
(588,0,l),
(227,0,l)
);
}
);
width = 827;
},
{
anchors = (
{
name = bottom;
pos = (452,0);
},
{
name = horn;
pos = (680,730);
},
{
name = top;
pos = (476,730);
}
);
attr = {
color = "1";
};
layerId = m003;
shapes = (
{
attr = {
gradient = {
colors = (
(
(64,255),
0
),
(
(191,255),
1
)
);
end = (0.4877,0.9217);
start = (0.4155,-0.0037);
};
};
closed = 1;
nodes = (
(278,730,l),
(279,730,l),
(279,244,l),
(25,244,l),
(25,523,l)
);
},
{
attr = {
gradient = {
colors = (
(
(64,255),
0
),
(
(191,255),
1
)
);
end = (0.8878,0.5878);
start = (0.0693,0.513);
};
};
closed = 1;
nodes = (
(882,487,l),
(882,486,l),
(279,486,l),
(279,730,l),
(680,730,l)
);
},
{
attr = {
gradient = {
colors = (
(
(64,255),
0
),
(
(191,255),
1
)
);
end = (0.4056,0.1204);
start = (0.4192,0.8964);
};
};
closed = 1;
nodes = (
(629,0,l),
(628,0,l),
(628,486,l),
(882,486,l),
(882,197,l)
);
},
{
attr = {
gradient = {
colors = (
(
(191,255),
0
),
(
(64,255),
1
)
);
end = (0.8878,0.5878);
start = (0.0693,0.513);
};
};
closed = 1;
nodes = (
(25,243,l),
(25,244,l),
(628,244,l),
(628,0,l),
(227,0,l)
);
}
);
width = 907;
}
);
unicode = 79;
},
{
color = 4;
glyphname = Oslash;
kernLeft = O;
kernRight = O;
lastChange = "2022-06-08 16:26:28 +0000";
layers = (
{
anchors = (
{
name = top;
pos = (138,700);
}
);
attr = {
color = "1";
};
layerId = "33AE93C6-B8B3-427A-A53B-F24970E840CE";
shapes = (
{
attr = {
gradient = {
colors = (
(
(128,255),
0
),
(
(191,255),
0.23101
),
(
(128,255),
1
)
);
end = (0.1006,0.9261);
start = (0.8563,0.0865);
};
};
closed = 1;
nodes = (
(20,0,l),
(20,1,l),
(230,700,l),
(253,700,l),
(253,699,l),
(43,0,l)
);
},
{
attr = {
gradient = {
colors = (
(
(64,255),
0
),
(
(191,255),
1
)
);
end = (0.4877,0.9217);
start = (0.453,0.0037);
};
};
closed = 1;
nodes = (
(76,700,l),
(77,700,l),
(77,24,l),
(53,24,l),
(53,677,l)
);
},
{
attr = {
gradient = {
colors = (
(
(64,255),
0
),
(
(191,255),
1
)
);
end = (0.8878,0.5878);
start = (0.0693,0.513);
};
};
closed = 1;
nodes = (
(220,677,l),
(220,676,l),
(77,676,l),
(77,700,l),
(197,700,l)
);
},
{
attr = {
gradient = {
colors = (
(
(64,255),
0
),
(
(191,255),
1
)
);
end = (0.4056,0.1204);
start = (0.4192,0.8964);
};
};
closed = 1;
nodes = (
(197,0,l),
(196,0,l),
(196,676,l),
(220,676,l),
(220,23,l)
);
},
{
attr = {
gradient = {
colors = (
(
(191,255),
0
),
(
(64,255),
1
)
);
end = (0.8878,0.5878);
start = (0.0693,0.513);
};
};
closed = 1;
nodes = (
(53,23,l),
(53,24,l),
(196,24,l),
(196,0,l),
(76,0,l)
);
}
);
width = 273;
},
{
anchors = (
{
name = top;
pos = (478,730);
}
);
attr = {
color = "1";
};
layerId = "E87239EE-82B8-404C-B23A-53843E270889";
shapes = (
{
attr = {
gradient = {
colors = (
(
(128,255),
0
),
(
(191,255),
0.3076
),
(
(128,255),
1
)
);
end = (0.7348,0.7576);
start = (0.1706,-0.0896);
};
};
closed = 1;
nodes = (
(42,0,l),
(42,2,l),
(712,730,l),
(825,730,l),
(825,729,l),
(155,0,l)
);
},
{
attr = {
gradient = {
colors = (
(
(64,255),
0
),
(
(191,255),
1
)
);
end = (0.4877,0.9217);
start = (0.4155,-0.0037);
};
};
closed = 1;
nodes = (
(238,730,l),
(239,730,l),
(239,204,l),
(25,204,l),
(25,523,l)
);
},
{
attr = {
gradient = {
colors = (
(
(64,255),
0
),
(
(191,255),
1
)
);
end = (0.7683,1.3704);
start = (0.0693,0.513);
};
};
closed = 1;
nodes = (
(802,527,l),
(802,526,l),
(239,526,l),
(239,730,l),
(640,730,l)
);
},
{
attr = {
gradient = {
colors = (
(
(64,255),
0
),
(
(191,255),
1
)
);
end = (0.4056,0.1204);
start = (0.4192,0.8964);
};
};
closed = 1;
nodes = (
(589,0,l),
(588,0,l),
(588,526,l),
(802,526,l),
(802,197,l)
);
},
{
attr = {
gradient = {
colors = (
(
(191,255),
0
),
(
(64,255),
1
)
);
end = (0.8878,0.5878);
start = (0.0693,0.513);
};
};
closed = 1;
nodes = (
(25,203,l),
(25,204,l),
(588,204,l),
(588,0,l),
(227,0,l)
);
}
);
width = 850;
},
{
anchors = (
{
name = top;
pos = (478,730);
}
);
attr = {
color = "1";
};
layerId = m003;
shapes = (
{
attr = {
gradient = {
colors = (
(
(128,255),
0
),
(
(191,255),
0.3076
),
(
(128,255),
1
)
);
end = (0.7348,0.7576);
start = (0.1706,-0.0896);
};
};
closed = 1;
nodes = (
(42,0,l),
(42,2,l),
(754,730,l),
(867,730,l),
(867,729,l),
(155,0,l)
);
},
{
attr = {
gradient = {
colors = (
(
(64,255),
0
),
(
(191,255),
1
)
);
end = (0.4877,0.9217);
start = (0.4155,-0.0037);
};
};
closed = 1;
nodes = (
(278,730,l),
(279,730,l),
(279,244,l),
(25,244,l),
(25,523,l)
);
},
{
attr = {
gradient = {
colors = (
(
(64,255),
0
),
(
(191,255),
1
)
);
end = (0.7683,1.3704);
start = (0.0693,0.513);
};
};
closed = 1;
nodes = (
(882,487,l),
(882,486,l),
(279,486,l),
(279,730,l),
(680,730,l)
);
},
{
attr = {
gradient = {
colors = (
(
(64,255),
0
),
(
(191,255),
1
)
);
end = (0.4056,0.1204);
start = (0.4192,0.8964);
};
};
closed = 1;
nodes = (
(629,0,l),
(628,0,l),
(628,486,l),
(882,486,l),
(882,197,l)
);
},
{
attr = {
gradient = {
colors = (
(
(191,255),
0
),
(
(64,255),
1
)
);
end = (0.8878,0.5878);
start = (0.0693,0.513);
};
};
closed = 1;
nodes = (
(25,243,l),
(25,244,l),
(628,244,l),
(628,0,l),
(227,0,l)
);
}
);
width = 907;
}
);
unicode = 216;
},
{
color = 4;
glyphname = Otildemacron;
kernLeft = O;
kernRight = O;
lastChange = "2022-06-06 09:42:41 +0000";
layers = (
{
attr = {
color = "1";
};
layerId = "33AE93C6-B8B3-427A-A53B-F24970E840CE";
shapes = (
{
ref = O;
},
{
attr = {
gradient = {
colors = (
(
(64,255),
0
),
(
(191,255),
1
)
);
end = (0.2296,0.0026);
start = (0.9852,0.6189);
};
identifier = ID0x600000c465a0;
};
closed = 1;
nodes = (
(70,800,l),
(94,801,l),
(94,749,l),
(70,749,l)
);
},
{
attr = {
gradient = {
colors = (
(
(64,255),
0
),
(
(191,255),
1
)
);
end = (0.8068,0.953);
start = (0.1553,0.418);
};
identifier = ID0x600000c465a0;
};
closed = 1;
nodes = (
(190,758,l),
(166,758,l),
(166,810,l),
(190,810,l)
);
},
{
attr = {
gradient = {
colors = (
(
(64,255),
0
),
(
(191,255),
1
)
);
end = (0.4877,0.9217);
start = (0.4155,-0.0037);
};
identifier = ID0x600000c465a0;
};
closed = 1;
nodes = (
(70,801,l),
(92,810,l),
(93,810,l),
(189,758,l),
(189,757,l),
(167,748,l),
(166,748,l),
(70,800,l)
);
},
{
attr = {
gradient = {
colors = (
(
(191,255),
0
),
(
(64,255),
1
)
);
end = (0.9584,-0.3023);
start = (0.0715,1.2204);
};
identifier = ID0x600000c46680;
};
closed = 1;
nodes = (
(59,848,l),
(59,872,l),
(209,872,l),
(209,848,l)
);
}
);
width = 273;
},
{
attr = {
color = "1";
};
layerId = "E87239EE-82B8-404C-B23A-53843E270889";
shapes = (
{
ref = O;
},
{
attr = {
gradient = {
colors = (
(
(64,255),
0
),
(
(191,255),
1
)
);
end = (0.2296,0.0026);
start = (0.8243,0.8062);
};
identifier = ID0x6000041910a0;
};
closed = 1;
nodes = (
(279,853,l),
(359,844,l),
(359,767,l),
(279,767,l)
);
},
{
attr = {
gradient = {
colors = (
(
(64,255),
0
),
(
(191,255),
1
)
);
end = (0.6972,1.0012);
start = (0.1318,0.5871);
};
identifier = ID0x6000041910a0;
};
closed = 1;
nodes = (
(648,795,l),
(568,796,l),
(568,879,l),
(648,879,l)
);
},
{
attr = {
gradient = {
colors = (
(
(191,255),
0
),
(
(64,255),
0.52095
),
(
(191,255),
1
)
);
end = (0.2013,0.9834);
start = (0.8337,0.0203);
};
identifier = ID0x6000041910a0;
};
closed = 1;
nodes = (
(279,854,l),
(359,883,l),
(360,883,l),
(648,816,l),
(648,795,l),
(586,770,l),
(585,770,l),
(279,843,l)
);
},
{
attr = {
gradient = {
colors = (
(
(191,255),
0
),
(
(64,255),
1
)
);
end = (0.7053,1.0789);
start = (0.3543,0.0329);
};
identifier = ID0x60000065c0e0;
};
closed = 1;
nodes = (
(281,918,l),
(281,980,l),
(647,980,l),
(647,918,l)
);
}
);
width = 907;
},
{
attr = {
color = "1";
};
layerId = m003;
shapes = (
{
ref = O;
},
{
attr = {
gradient = {
colors = (
(
(64,255),
0
),
(
(191,255),
1
)
);
end = (0.2296,0.0026);
start = (0.8243,0.8062);
};
identifier = ID0x6000041910a0;
};
closed = 1;
nodes = (
(279,853,l),
(359,844,l),
(359,767,l),
(279,767,l)
);
},
{
attr = {
gradient = {
colors = (
(
(64,255),
0
),
(
(191,255),
1
)
);
end = (0.6972,1.0012);
start = (0.1318,0.5871);
};
identifier = ID0x6000041910a0;
};
closed = 1;
nodes = (
(648,795,l),
(568,796,l),
(568,879,l),
(648,879,l)
);
},
{
attr = {
gradient = {
colors = (
(
(191,255),
0
),
(
(64,255),
0.52095
),
(
(191,255),
1
)
);
end = (0.2013,0.9834);
start = (0.8337,0.0203);
};
identifier = ID0x6000041910a0;
};
closed = 1;
nodes = (
(279,854,l),
(359,883,l),
(360,883,l),
(648,816,l),
(648,795,l),
(586,770,l),
(585,770,l),
(279,843,l)
);
},
{
attr = {
gradient = {
colors = (
(
(191,255),
0
),
(
(64,255),
1
)
);
end = (0.7053,1.0789);
start = (0.3543,0.0329);
};
identifier = ID0x60000065c0e0;
};
closed = 1;
nodes = (
(281,918,l),
(281,980,l),
(647,980,l),
(647,918,l)
);
}
);
width = 907;
}
);
unicode = 556;
},
{
color = 4;
glyphname = OE;
kernLeft = O;
kernRight = E;
lastChange = "2022-06-08 16:27:47 +0000";
layers = (
{
attr = {
color = "1";
};
layerId = "33AE93C6-B8B3-427A-A53B-F24970E840CE";
shapes = (
{
attr = {
gradient = {
colors = (
(
(191,255),
0
),
(
(64,255),
1
)
);
end = (0.8823,0.4707);
start = (0.0924,0.6684);
};
};
closed = 1;
nodes = (
(53,23,l),
(53,24,l),
(220,24,l),
(196,0,l),
(76,0,l)
);
},
{
attr = {
gradient = {
colors = (
(
(64,255),
0
),
(
(191,255),
1
)
);
end = (0.8878,0.5878);
start = (0.0534,0.8177);
};
};
closed = 1;
nodes = (
(220,676,l),
(197,700,l),
(363,700,l),
(363,699,l),
(340,676,l)
);
},
{
attr = {
gradient = {
colors = (
(
(64,255),
0
),
(
(191,255),
1
)
);
end = (0.8878,0.5878);
start = (0.0693,0.513);
};
};
closed = 1;
nodes = (
(220,353,l),
(220,377,l),
(339,377,l),
(339,353,l)
);
},
{
attr = {
gradient = {
colors = (
(
(191,255),
0
),
(
(64,255),
1
)
);
end = (0.8878,0.5878);
start = (0.1166,0.494);
};
};
closed = 1;
nodes = (
(220,0,l),
(196,23,l),
(196,24,l),
(363,24,l),
(363,0,l)
);
},
{
attr = {
gradient = {
colors = (
(
(64,255),
0
),
(
(191,255),
1
)
);
end = (0.4877,0.9217);
start = (0.4738,0.0091);
};
};
closed = 1;
nodes = (
(76,700,l),
(77,700,l),
(77,24,l),
(53,24,l),
(53,677,l)
);
},
{
attr = {
gradient = {
colors = (
(
(64,255),
0
),
(
(191,255),
1
)
);
end = (0.8878,0.5878);
start = (0.0693,0.513);
};
};
closed = 1;
nodes = (
(220,677,l),
(220,676,l),
(77,676,l),
(77,700,l),
(197,700,l)
);
},
{
attr = {
gradient = {
colors = (
(
(64,255),
0
),
(
(191,255),
0.52974
),
(
(64,255),
1
)
);
end = (0.676,0.0071);
start = (0.4192,0.8964);
};
};
closed = 1;
nodes = (
(196,24,l),
(196,676,l),
(220,676,l),
(220,24,l)
);
}
);
width = 423;
},
{
attr = {
color = "1";
};
layerId = "E87239EE-82B8-404C-B23A-53843E270889";
shapes = (
{
attr = {
gradient = {
colors = (
(
(191,255),
0
),
(
(64,255),
1
)
);
end = (0.7926,0.448);
start = (0.1079,0.811);
};
};
closed = 1;
nodes = (
(25,203,l),
(25,204,l),
(802,204,l),
(588,0,l),
(227,0,l)
);
},
{
attr = {
gradient = {
colors = (
(
(64,255),
0
),
(
(191,255),
1
)
);
end = (0.7292,0.9344);
start = (0.1565,0.1737);
};
};
closed = 1;
nodes = (
(802,526,l),
(640,730,l),
(1326,730,l),
(1326,729,l),
(1124,526,l)
);
},
{
attr = {
gradient = {
colors = (
(
(64,255),
0
),
(
(191,255),
1
)
);
end = (0.8437,0.8454);
start = (0.1413,0.085);
};
};
closed = 1;
nodes = (
(802,263,l),
(802,467,l),
(1172,467,l),
(1172,263,l)
);
},
{
attr = {
gradient = {
colors = (
(
(64,255),
0
),
(
(191,255),
1
)
);
end = (0.2048,0.4113);
start = (0.9731,0.0568);
};
};
closed = 1;
nodes = (
(790,0,l),
(588,203,l),
(588,204,l),
(1275,204,l),
(1275,0,l)
);
},
{
attr = {
gradient = {
colors = (
(
(64,255),
0
),
(
(191,255),
1
)
);
end = (0.9057,0.8851);
start = (0.6114,0.0459);
};
};
closed = 1;
nodes = (
(238,730,l),
(239,730,l),
(239,204,l),
(25,204,l),
(25,523,l)
);
},
{
attr = {
gradient = {
colors = (
(
(64,255),
0
),
(
(191,255),
1
)
);
end = (0.8331,0.6636);
start = (0.0693,0.513);
};
};
closed = 1;
nodes = (
(802,527,l),
(802,526,l),
(239,526,l),
(239,730,l),
(640,730,l)
);
},
{
attr = {
gradient = {
colors = (
(
(64,255),
0
),
(
(191,255),
1
)
);
end = (0.8963,0.1031);
start = (0.0882,0.8605);
};
};
closed = 1;
nodes = (
(588,204,l),
(588,526,l),
(802,526,l),
(802,204,l)
);
}
);
width = 1351;
},
{
attr = {
color = "1";
};
layerId = m003;
shapes = (
{
attr = {
gradient = {
colors = (
(
(191,255),
0
),
(
(64,255),
1
)
);
end = (0.7926,0.448);
start = (0.1079,0.811);
};
};
closed = 1;
nodes = (
(25,243,l),
(25,244,l),
(882,244,l),
(628,0,l),
(227,0,l)
);
},
{
attr = {
gradient = {
colors = (
(
(64,255),
0
),
(
(191,255),
1
)
);
end = (0.7292,0.9344);
start = (0.1565,0.1737);
};
};
closed = 1;
nodes = (
(882,486,l),
(680,730,l),
(1406,730,l),
(1406,729,l),
(1204,486,l)
);
},
{
attr = {
gradient = {
colors = (
(
(64,255),
0
),
(
(191,255),
1
)
);
end = (0.8437,0.8454);
start = (0.1413,0.085);
};
};
closed = 1;
nodes = (
(882,263,l),
(882,467,l),
(1252,467,l),
(1252,263,l)
);
},
{
attr = {
gradient = {
colors = (
(
(64,255),
0
),
(
(191,255),
1
)
);
end = (0.2048,0.4113);
start = (0.9731,0.0568);
};
};
closed = 1;
nodes = (
(830,0,l),
(628,243,l),
(628,244,l),
(1355,244,l),
(1355,0,l)
);
},
{
attr = {
gradient = {
colors = (
(
(64,255),
0
),
(
(191,255),
1
)
);
end = (0.9057,0.8851);
start = (0.6114,0.0459);
};
};
closed = 1;
nodes = (
(278,730,l),
(279,730,l),
(279,244,l),
(25,244,l),
(25,523,l)
);
},
{
attr = {
gradient = {
colors = (
(
(64,255),
0
),
(
(191,255),
1
)
);
end = (0.8331,0.6636);
start = (0.0693,0.513);
};
};
closed = 1;
nodes = (
(882,487,l),
(882,486,l),
(279,486,l),
(279,730,l),
(680,730,l)
);
},
{
attr = {
gradient = {
colors = (
(
(64,255),
0
),
(
(191,255),
1
)
);
end = (0.8963,0.1031);
start = (0.0882,0.8605);
};
};
closed = 1;
nodes = (
(628,244,l),
(628,486,l),
(882,486,l),
(882,244,l)
);
}
);
width = 1431;
}
);
unicode = 338;
},
{
color = 4;
glyphname = P;
kernLeft = H;
lastChange = "2022-06-06 10:04:33 +0000";
layers = (
{
attr = {
color = "1";
};
layerId = "33AE93C6-B8B3-427A-A53B-F24970E840CE";
shapes = (
{
attr = {
gradient = {
colors = (
(
(64,255),
0
),
(
(191,255),
1
)
);
end = (0.257,0.9316);
start = (1.4423,0.1012);
};
};
closed = 1;
nodes = (
(76,700,l),
(77,700,l),
(77,0,l),
(53,0,l),
(53,677,l)
);
},
{
attr = {
gradient = {
colors = (
(
(64,255),
0
),
(
(191,255),
1
)
);
end = (0.8878,0.5878);
start = (0.0693,0.513);
};
};
closed = 1;
nodes = (
(221,677,l),
(221,676,l),
(77,676,l),
(77,700,l),
(198,700,l)
);
},
{
attr = {
gradient = {
colors = (
(
(64,255),
0
),
(
(191,255),
1
)
);
end = (0.4056,0.1204);
start = (0.4192,0.8964);
};
};
closed = 1;
nodes = (
(198,353,l),
(197,353,l),
(197,676,l),
(221,676,l),
(221,376,l)
);
},
{
attr = {
gradient = {
colors = (
(
(191,255),
0
),
(
(64,255),
1
)
);
end = (0.8878,0.5878);
start = (0.0693,0.513);
};
};
closed = 1;
nodes = (
(77,376,l),
(77,377,l),
(197,377,l),
(197,353,l),
(77,353,l)
);
}
);
width = 244;
},
{
attr = {
color = "1";
};
layerId = "E87239EE-82B8-404C-B23A-53843E270889";
shapes = (
{
attr = {
gradient = {
colors = (
(
(64,255),
0
),
(
(191,255),
1
)
);
end = (0.4877,0.9217);
start = (0.4155,-0.0037);
};
};
closed = 1;
nodes = (
(248,730,l),
(249,730,l),
(249,0,l),
(35,0,l),
(35,730,l)
);
},
{
attr = {
gradient = {
colors = (
(
(64,255),
0
),
(
(191,255),
1
)
);
end = (0.8878,0.5878);
start = (0.0693,0.513);
};
};
closed = 1;
nodes = (
(812,527,l),
(812,526,l),
(249,526,l),
(249,730,l),
(610,730,l)
);
},
{
attr = {
gradient = {
colors = (
(
(64,255),
0
),
(
(191,255),
1
)
);
end = (0.2746,0.29);
start = (0.4192,0.8964);
};
};
closed = 1;
nodes = (
(599,173,l),
(598,173,l),
(598,526,l),
(812,526,l),
(812,370,l)
);
},
{
attr = {
gradient = {
colors = (
(
(64,255),
0
),
(
(191,255),
1
)
);
end = (0.1888,-0.0559);
start = (0.7654,0.8483);
};
};
closed = 1;
nodes = (
(249,377,l),
(598,377,l),
(598,376,l),
(598,173,l),
(249,173,l)
);
}
);
width = 822;
},
{
attr = {
color = "1";
};
layerId = m003;
shapes = (
{
attr = {
gradient = {
colors = (
(
(64,255),
0
),
(
(191,255),
1
)
);
end = (0.4877,0.9217);
start = (0.4155,-0.0037);
};
};
closed = 1;
nodes = (
(288,730,l),
(289,730,l),
(289,0,l),
(35,0,l),
(35,730,l)
);
},
{
attr = {
gradient = {
colors = (
(
(64,255),
0
),
(
(191,255),
1
)
);
end = (0.8878,0.5878);
start = (0.0693,0.513);
};
};
closed = 1;
nodes = (
(892,487,l),
(892,486,l),
(289,486,l),
(289,730,l),
(690,730,l)
);
},
{
attr = {
gradient = {
colors = (
(
(64,255),
0
),
(
(191,255),
1
)
);
end = (0.2746,0.29);
start = (0.4192,0.8964);
};
};
closed = 1;
nodes = (
(639,173,l),
(638,173,l),
(638,486,l),
(892,486,l),
(892,370,l)
);
},
{
attr = {
gradient = {
colors = (
(
(64,255),
0
),
(
(191,255),
1
)
);
end = (0.1888,-0.0559);
start = (0.7654,0.8483);
};
};
closed = 1;
nodes = (
(289,417,l),
(638,417,l),
(638,416,l),
(638,173,l),
(289,173,l)
);
}
);
width = 902;
}
);
unicode = 80;
},
{
color = 4;
glyphname = Thorn;
kernLeft = H;
lastChange = "2022-06-08 16:28:38 +0000";
layers = (
{
attr = {
color = "1";
};
layerId = "33AE93C6-B8B3-427A-A53B-F24970E840CE";
shapes = (
{
attr = {
gradient = {
colors = (
(
(64,255),
0
),
(
(191,255),
1
)
);
end = (0.257,0.9316);
start = (1.4423,0.1012);
};
};
closed = 1;
nodes = (
(77,700,l),
(77,0,l),
(53,0,l),
(53,700,l)
);
},
{
attr = {
gradient = {
colors = (
(
(64,255),
0
),
(
(191,255),
1
)
);
end = (0.8878,0.5878);
start = (0.0693,0.513);
};
};
closed = 1;
nodes = (
(221,517,l),
(221,516,l),
(77,516,l),
(77,540,l),
(198,540,l)
);
},
{
attr = {
gradient = {
colors = (
(
(64,255),
0
),
(
(191,255),
1
)
);
end = (0.4056,0.1204);
start = (0.4192,0.8964);
};
};
closed = 1;
nodes = (
(198,193,l),
(197,193,l),
(197,516,l),
(221,516,l),
(221,216,l)
);
},
{
attr = {
gradient = {
colors = (
(
(191,255),
0
),
(
(64,255),
1
)
);
end = (0.8878,0.5878);
start = (0.0693,0.513);
};
};
closed = 1;
nodes = (
(77,216,l),
(77,217,l),
(197,217,l),
(197,193,l),
(77,193,l)
);
}
);
width = 244;
},
{
attr = {
color = "1";
};
layerId = "E87239EE-82B8-404C-B23A-53843E270889";
shapes = (
{
attr = {
gradient = {
colors = (
(
(64,255),
0
),
(
(191,255),
1
)
);
end = (0.4877,0.9217);
start = (0.4155,-0.0037);
};
};
closed = 1;
nodes = (
(239,730,l),
(239,0,l),
(25,0,l),
(25,730,l)
);
},
{
attr = {
gradient = {
colors = (
(
(64,255),
0
),
(
(191,255),
1
)
);
end = (0.8878,0.5878);
start = (0.0693,0.513);
};
};
closed = 1;
nodes = (
(802,447,l),
(802,446,l),
(239,446,l),
(239,650,l),
(640,650,l)
);
},
{
attr = {
gradient = {
colors = (
(
(64,255),
0
),
(
(191,255),
1
)
);
end = (0.2746,0.29);
start = (0.4192,0.8964);
};
};
closed = 1;
nodes = (
(589,93,l),
(588,93,l),
(588,446,l),
(802,446,l),
(802,290,l)
);
},
{
attr = {
gradient = {
colors = (
(
(64,255),
0
),
(
(191,255),
1
)
);
end = (0.5991,0.0096);
start = (0.0791,0.6527);
};
};
closed = 1;
nodes = (
(239,297,l),
(588,297,l),
(588,296,l),
(588,93,l),
(239,93,l)
);
}
);
width = 817;
},
{
attr = {
color = "1";
};
layerId = m003;
shapes = (
{
attr = {
gradient = {
colors = (
(
(64,255),
0
),
(
(191,255),
1
)
);
end = (0.4877,0.9217);
start = (0.4155,-0.0037);
};
};
closed = 1;
nodes = (
(279,730,l),
(279,0,l),
(25,0,l),
(25,730,l)
);
},
{
attr = {
gradient = {
colors = (
(
(64,255),
0
),
(
(191,255),
1
)
);
end = (0.8878,0.5878);
start = (0.0693,0.513);
};
};
closed = 1;
nodes = (
(882,407,l),
(882,406,l),
(279,406,l),
(279,650,l),
(680,650,l)
);
},
{
attr = {
gradient = {
colors = (
(
(64,255),
0
),
(
(191,255),
1
)
);
end = (0.2746,0.29);
start = (0.4192,0.8964);
};
};
closed = 1;
nodes = (
(629,93,l),
(628,93,l),
(628,406,l),
(882,406,l),
(882,290,l)
);
},
{
attr = {
gradient = {
colors = (
(
(64,255),
0
),
(
(191,255),
1
)
);
end = (0.5991,0.0096);
start = (0.0791,0.6527);
};
};
closed = 1;
nodes = (
(279,337,l),
(628,337,l),
(628,336,l),
(628,93,l),
(279,93,l)
);
}
);
width = 897;
}
);
unicode = 222;
},
{
color = 4;
glyphname = Q;
kernLeft = O;
kernRight = A;
lastChange = "2022-06-06 10:05:59 +0000";
layers = (
{
attr = {
color = "1";
};
layerId = "33AE93C6-B8B3-427A-A53B-F24970E840CE";
shapes = (
{
attr = {
gradient = {
colors = (
(
(64,255),
0
),
(
(191,255),
1
)
);
end = (0.4877,0.9217);
start = (0.453,0.0037);
};
};
closed = 1;
nodes = (
(76,700,l),
(77,700,l),
(77,24,l),
(53,24,l),
(53,677,l)
);
},
{
attr = {
gradient = {
colors = (
(
(64,255),
0
),
(
(191,255),
1
)
);
end = (0.8878,0.5878);
start = (0.0693,0.513);
};
};
closed = 1;
nodes = (
(220,677,l),
(220,676,l),
(77,676,l),
(77,700,l),
(197,700,l)
);
},
{
attr = {
gradient = {
colors = (
(
(64,255),
0
),
(
(191,255),
1
)
);
end = (0.4056,0.1204);
start = (0.4192,0.8964);
};
};
closed = 1;
nodes = (
(218,22,l),
(216,24,l),
(196,24,l),
(196,676,l),
(220,676,l),
(220,24,l)
);
},
{
attr = {
gradient = {
colors = (
(
(191,255),
0
),
(
(64,255),
1
)
);
end = (0.8878,0.5878);
start = (0.0693,0.513);
};
};
closed = 1;
nodes = (
(53,23,l),
(53,24,l),
(286,24,l),
(309,1,l),
(309,0,l),
(76,0,l)
);
}
);
width = 294;
},
{
attr = {
color = "1";
};
layerId = "E87239EE-82B8-404C-B23A-53843E270889";
shapes = (
{
attr = {
gradient = {
colors = (
(
(64,255),
0
),
(
(191,255),
1
)
);
end = (0.4877,0.9217);
start = (0.4155,-0.0037);
};
};
closed = 1;
nodes = (
(238,730,l),
(239,730,l),
(239,204,l),
(25,204,l),
(25,523,l)
);
},
{
attr = {
gradient = {
colors = (
(
(64,255),
0
),
(
(191,255),
1
)
);
end = (0.8878,0.5878);
start = (0.0693,0.513);
};
};
closed = 1;
nodes = (
(802,527,l),
(802,526,l),
(239,526,l),
(239,730,l),
(600,730,l)
);
},
{
attr = {
gradient = {
colors = (
(
(64,255),
0
),
(
(191,255),
1
)
);
end = (0.4056,0.1204);
start = (0.4192,0.8964);
};
};
closed = 1;
nodes = (
(740,103,l),
(659,204,l),
(588,204,l),
(588,526,l),
(802,526,l),
(802,193,l)
);
},
{
attr = {
gradient = {
colors = (
(
(191,255),
0
),
(
(64,255),
1
)
);
end = (0.8878,0.5878);
start = (0.0693,0.513);
};
};
closed = 1;
nodes = (
(25,203,l),
(25,204,l),
(659,204,l),
(861,1,l),
(861,0,l),
(227,0,l)
);
}
);
width = 861;
},
{
attr = {
color = "1";
};
layerId = m003;
shapes = (
{
attr = {
gradient = {
colors = (
(
(64,255),
0
),
(
(191,255),
1
)
);
end = (0.4877,0.9217);
start = (0.4155,-0.0037);
};
};
closed = 1;
nodes = (
(278,730,l),
(279,730,l),
(279,240,l),
(25,240,l),
(25,523,l)
);
},
{
attr = {
gradient = {
colors = (
(
(64,255),
0
),
(
(191,255),
1
)
);
end = (0.8878,0.5878);
start = (0.0693,0.513);
};
};
closed = 1;
nodes = (
(882,487,l),
(882,486,l),
(279,486,l),
(279,730,l),
(680,730,l)
);
},
{
attr = {
gradient = {
colors = (
(
(64,255),
0
),
(
(191,255),
1
)
);
end = (0.4056,0.1204);
start = (0.4192,0.8964);
};
};
closed = 1;
nodes = (
(820,144,l),
(739,240,l),
(628,240,l),
(628,486,l),
(882,486,l),
(882,193,l)
);
},
{
attr = {
gradient = {
colors = (
(
(191,255),
0
),
(
(64,255),
1
)
);
end = (0.8878,0.5878);
start = (0.0693,0.513);
};
};
closed = 1;
nodes = (
(25,239,l),
(25,240,l),
(739,240,l),
(941,1,l),
(941,0,l),
(227,0,l)
);
}
);
width = 941;
}
);
unicode = 81;
},
{
color = 4;
glyphname = R;
kernLeft = H;
lastChange = "2022-06-06 10:06:43 +0000";
layers = (
{
anchors = (
{
name = bottom;
pos = (142,0);
},
{
name = top;
pos = (138,700);
}
);
attr = {
color = "1";
};
layerId = "33AE93C6-B8B3-427A-A53B-F24970E840CE";
shapes = (
{
attr = {
gradient = {
colors = (
(
(64,255),
0
),
(
(191,255),
0.51642
),
(
(64,255),
1
)
);
end = (0.5113,0.0309);
start = (0.2454,0.9618);
};
};
closed = 1;
nodes = (
(227,0,l),
(143,353,l),
(163,373,l),
(253,0,l)
);
},
{
attr = {
gradient = {
colors = (
(
(64,255),
0
),
(
(191,255),
1
)
);
end = (0.257,0.9801);
start = (1.4423,0.1012);
};
};
closed = 1;
nodes = (
(76,700,l),
(77,700,l),
(77,0,l),
(53,0,l),
(53,700,l)
);
},
{
attr = {
gradient = {
colors = (
(
(64,255),
0
),
(
(191,255),
1
)
);
end = (0.8878,0.5878);
start = (0.0693,0.513);
};
};
closed = 1;
nodes = (
(220,677,l),
(220,676,l),
(77,676,l),
(77,700,l),
(197,700,l)
);
},
{
attr = {
gradient = {
colors = (
(
(64,255),
0
),
(
(191,255),
1
)
);
end = (0.4056,0.1204);
start = (0.4192,0.8964);
};
};
closed = 1;
nodes = (
(197,353,l),
(196,353,l),
(196,676,l),
(220,676,l),
(220,376,l)
);
},
{
attr = {
gradient = {
colors = (
(
(191,255),
0
),
(
(64,255),
1
)
);
end = (0.8878,0.5878);
start = (0.0693,0.513);
};
};
closed = 1;
nodes = (
(77,376,l),
(77,377,l),
(196,377,l),
(196,353,l),
(77,353,l)
);
}
);
width = 286;
},
{
anchors = (
{
name = bottom;
pos = (424,0);
},
{
name = top;
pos = (416,730);
}
);
attr = {
color = "1";
};
layerId = "E87239EE-82B8-404C-B23A-53843E270889";
shapes = (
{
attr = {
gradient = {
colors = (
(
(191,255),
0
),
(
(64,255),
1
)
);
end = (0.4959,0.5358);
start = (0.7282,-0.0074);
};
};
closed = 1;
nodes = (
(550,0,l),
(439,211,l),
(619,329,l),
(821,0,l)
);
},
{
attr = {
gradient = {
colors = (
(
(64,255),
0
),
(
(191,255),
1
)
);
end = (0.4877,0.9217);
start = (0.4155,-0.0037);
};
};
closed = 1;
nodes = (
(248,730,l),
(249,730,l),
(249,0,l),
(35,0,l),
(35,730,l)
);
},
{
attr = {
gradient = {
colors = (
(
(64,255),
0
),
(
(191,255),
1
)
);
end = (0.8878,0.5878);
start = (0.0693,0.513);
};
};
closed = 1;
nodes = (
(802,527,l),
(802,526,l),
(249,526,l),
(249,730,l),
(600,730,l)
);
},
{
attr = {
gradient = {
colors = (
(
(64,255),
0
),
(
(191,255),
1
)
);
end = (0.0807,0.0819);
start = (0.4192,0.8964);
};
};
closed = 1;
nodes = (
(589,193,l),
(588,193,l),
(588,526,l),
(802,526,l),
(802,370,l)
);
},
{
attr = {
gradient = {
colors = (
(
(64,255),
0
),
(
(191,255),
1
)
);
end = (0.0248,0.0503);
start = (0.9621,0.8892);
};
};
closed = 1;
nodes = (
(249,397,l),
(588,397,l),
(588,396,l),
(588,193,l),
(249,193,l)
);
}
);
width = 846;
},
{
anchors = (
{
name = bottom;
pos = (424,0);
},
{
name = top;
pos = (416,730);
}
);
attr = {
color = "1";
};
layerId = m003;
shapes = (
{
attr = {
gradient = {
colors = (
(
(191,255),
0
),
(
(64,255),
1
)
);
end = (0.4959,0.5358);
start = (0.7282,-0.0074);
};
};
closed = 1;
nodes = (
(590,0,l),
(499,173,l),
(699,329,l),
(901,0,l)
);
},
{
attr = {
gradient = {
colors = (
(
(64,255),
0
),
(
(191,255),
1
)
);
end = (0.4877,0.9217);
start = (0.4155,-0.0037);
};
};
closed = 1;
nodes = (
(288,730,l),
(289,730,l),
(289,0,l),
(35,0,l),
(35,730,l)
);
},
{
attr = {
gradient = {
colors = (
(
(64,255),
0
),
(
(191,255),
1
)
);
end = (0.8878,0.5878);
start = (0.0693,0.513);
};
};
closed = 1;
nodes = (
(882,487,l),
(882,486,l),
(289,486,l),
(289,730,l),
(680,730,l)
);
},
{
attr = {
gradient = {
colors = (
(
(64,255),
0
),
(
(191,255),
1
)
);
end = (0.0807,0.0819);
start = (0.4192,0.8964);
};
};
closed = 1;
nodes = (
(629,173,l),
(628,173,l),
(628,486,l),
(882,486,l),
(882,370,l)
);
},
{
attr = {
gradient = {
colors = (
(
(64,255),
0
),
(
(191,255),
1
)
);
end = (0.0248,0.0503);
start = (0.9621,0.8892);
};
};
closed = 1;
nodes = (
(289,417,l),
(628,417,l),
(628,416,l),
(628,173,l),
(289,173,l)
);
}
);
width = 926;
}
);
unicode = 82;
},
{
color = 4;
glyphname = S;
lastChange = "2022-06-06 10:08:09 +0000";
layers = (
{
anchors = (
{
name = bottom;
pos = (122,0);
},
{
name = top;
pos = (128,700);
}
);
attr = {
color = "1";
};
layerId = "33AE93C6-B8B3-427A-A53B-F24970E840CE";
shapes = (
{
attr = {
gradient = {
colors = (
(
(64,255),
0
),
(
(191,255),
1
)
);
end = (0.5946,0.9299);
start = (0.5615,0.0647);
};
};
closed = 1;
nodes = (
(66,700,l),
(67,700,l),
(67,377,l),
(66,377,l),
(43,377,l),
(43,677,l)
);
},
{
attr = {
gradient = {
colors = (
(
(64,255),
0
),
(
(191,255),
1
)
);
end = (0.8789,0.4466);
start = (0.1059,0.2968);
};
};
closed = 1;
nodes = (
(190,677,l),
(190,676,l),
(67,676,l),
(67,700,l),
(167,700,l)
);
},
{
attr = {
gradient = {
colors = (
(
(64,255),
0.01851
),
(
(191,255),
0.51668
),
(
(64,255),
1
)
);
end = (0.7698,0.0614);
start = (0.6215,0.9519);
};
};
closed = 1;
nodes = (
(167,0,l),
(166,0,l),
(166,377,l),
(167,377,l),
(190,353,l),
(190,24,l)
);
},
{
attr = {
gradient = {
colors = (
(
(191,255),
0
),
(
(64,255),
1
)
);
end = (0.8618,0.4739);
start = (0.2695,1.1005);
};
};
closed = 1;
nodes = (
(43,376,l),
(43,377,l),
(166,377,l),
(166,354,l),
(166,353,l),
(66,353,l)
);
},
{
attr = {
gradient = {
colors = (
(
(191,255),
0
),
(
(64,255),
1
)
);
end = (0.8946,0.2729);
start = (0.3294,0.7263);
};
};
closed = 1;
nodes = (
(43,23,l),
(43,24,l),
(166,24,l),
(166,23,l),
(166,0,l),
(66,0,l)
);
}
);
userData = {
com.GeorgSeifert.ImageExportSettings = {
path = "..";
presets = (
{
filename = "{{{glyph.name}}}";
format = PDF;
name = default;
size = 1000;
}
);
};
};
width = 233;
},
{
anchors = (
{
name = bottom;
pos = (452,0);
},
{
name = top;
pos = (476,730);
}
);
attr = {
color = "1";
};
layerId = "E87239EE-82B8-404C-B23A-53843E270889";
shapes = (
{
attr = {
gradient = {
colors = (
(
(191,255),
0
),
(
(64,255),
1
)
);
end = (0.5451,0.0452);
start = (0.9242,0.8564);
};
};
closed = 1;
nodes = (
(238,730,l),
(239,730,l),
(239,466,l),
(238,466,l),
(25,466,l),
(25,523,l)
);
},
{
attr = {
gradient = {
colors = (
(
(191,255),
0
),
(
(64,255),
1
)
);
end = (0.0222,0.5286);
start = (0.887,0.1135);
};
};
closed = 1;
nodes = (
(792,527,l),
(792,526,l),
(239,526,l),
(239,730,l),
(590,730,l)
);
},
{
attr = {
gradient = {
colors = (
(
(191,255),
0
),
(
(128,255),
0.39558
),
(
(64,255),
1
)
);
end = (0.8793,0.4143);
start = (0.1098,0.8513);
};
};
closed = 1;
nodes = (
(579,0,l),
(578,0,l),
(578,466,l),
(579,466,l),
(792,269,l),
(792,193,l)
);
},
{
attr = {
gradient = {
colors = (
(
(191,255),
0
),
(
(64,255),
1
)
);
end = (0.8878,0.5878);
start = (0.0885,0.8531);
};
};
closed = 1;
nodes = (
(25,465,l),
(25,466,l),
(578,466,l),
(578,263,l),
(578,262,l),
(227,262,l)
);
},
{
attr = {
gradient = {
colors = (
(
(191,255),
0
),
(
(64,255),
1
)
);
end = (0.8878,0.5878);
start = (0.0799,0.8126);
};
};
closed = 1;
nodes = (
(25,203,l),
(25,204,l),
(578,204,l),
(578,203,l),
(578,0,l),
(227,0,l)
);
}
);
width = 817;
},
{
anchors = (
{
name = bottom;
pos = (452,0);
},
{
name = top;
pos = (476,730);
}
);
attr = {
color = "1";
};
layerId = m003;
shapes = (
{
attr = {
gradient = {
colors = (
(
(191,255),
0
),
(
(64,255),
1
)
);
end = (0.5451,0.0452);
start = (0.9242,0.8564);
};
};
closed = 1;
nodes = (
(278,730,l),
(279,730,l),
(279,466,l),
(278,466,l),
(25,466,l),
(25,523,l)
);
},
{
attr = {
gradient = {
colors = (
(
(191,255),
0
),
(
(64,255),
1
)
);
end = (0.0222,0.5286);
start = (0.887,0.1135);
};
};
closed = 1;
nodes = (
(872,487,l),
(872,486,l),
(279,486,l),
(279,730,l),
(670,730,l)
);
},
{
attr = {
gradient = {
colors = (
(
(191,255),
0
),
(
(128,255),
0.39558
),
(
(64,255),
1
)
);
end = (0.9989,0.5204);
start = (0.0441,0.5442);
};
};
closed = 1;
nodes = (
(619,0,l),
(618,0,l),
(618,466,l),
(619,466,l),
(872,269,l),
(872,193,l)
);
},
{
attr = {
gradient = {
colors = (
(
(191,255),
0
),
(
(64,255),
1
)
);
end = (0.8878,0.5878);
start = (0.0885,0.8531);
};
};
closed = 1;
nodes = (
(25,465,l),
(25,466,l),
(618,466,l),
(618,263,l),
(618,262,l),
(227,262,l)
);
},
{
attr = {
gradient = {
colors = (
(
(191,255),
0
),
(
(64,255),
1
)
);
end = (0.8878,0.5878);
start = (0.0799,0.8126);
};
};
closed = 1;
nodes = (
(25,243,l),
(25,244,l),
(618,244,l),
(618,243,l),
(618,0,l),
(227,0,l)
);
}
);
width = 897;
}
);
unicode = 83;
},
{
color = 4;
glyphname = Germandbls;
kernLeft = H;
kernRight = B;
lastChange = "2022-06-08 16:33:00 +0000";
layers = (
{
attr = {
color = "1";
};
layerId = "33AE93C6-B8B3-427A-A53B-F24970E840CE";
shapes = (
{
attr = {
gradient = {
colors = (
(
(64,255),
0
),
(
(128,255),
1
)
);
end = (0.522,0.9968);
start = (0.4393,0.0388);
};
};
closed = 1;
nodes = (
(182,676,l),
(77,676,l),
(77,700,l),
(182,700,l)
);
},
{
attr = {
gradient = {
colors = (
(
(191,255),
0
),
(
(64,255),
1
)
);
end = (0.3759,0.0091);
start = (0.4447,0.6672);
};
};
closed = 1;
nodes = (
(132,387,l),
(182,700,l),
(182,700,l),
(206,678,l),
(206,677,l),
(156,387,l)
);
},
{
attr = {
gradient = {
colors = (
(
(64,255),
0
),
(
(191,255),
1
)
);
end = (0.2671,0.5486);
start = (0.937,0.3463);
};
};
closed = 1;
nodes = (
(155,363,l),
(132,386,l),
(132,387,l),
(226,387,l),
(226,363,l)
);
},
{
attr = {
gradient = {
colors = (
(
(64,255),
0
),
(
(191,255),
1
)
);
end = (0.4877,0.9217);
start = (0.4155,-0.0037);
};
};
closed = 1;
nodes = (
(77,700,l),
(77,700,l),
(77,0,l),
(53,0,l),
(53,700,l)
);
},
{
attr = {
gradient = {
colors = (
(
(64,255),
0
),
(
(191,255),
1
)
);
end = (0.1636,0.9918);
start = (0.9225,0.2287);
};
};
closed = 1;
nodes = (
(154,0,l),
(154,1,l),
(178,24,l),
(226,24,l),
(226,0,l)
);
},
{
attr = {
gradient = {
colors = (
(
(191,255),
0
),
(
(64,255),
1
)
);
end = (0.5245,0.827);
start = (0.8235,0.1183);
};
};
closed = 1;
nodes = (
(227,0,l),
(226,0,l),
(226,387,l),
(226,387,l),
(250,364,l),
(250,23,l)
);
}
);
width = 303;
},
{
attr = {
color = "1";
};
layerId = "E87239EE-82B8-404C-B23A-53843E270889";
shapes = (
{
attr = {
gradient = {
colors = (
(
(64,255),
0
),
(
(128,255),
1
)
);
end = (0.522,0.9968);
start = (0.4393,0.0388);
};
};
closed = 1;
nodes = (
(584,526,l),
(239,526,l),
(239,730,l),
(584,730,l)
);
},
{
attr = {
gradient = {
colors = (
(
(191,255),
0
),
(
(64,255),
1
)
);
end = (0.3759,0.0091);
start = (0.4447,0.6672);
};
};
closed = 1;
nodes = (
(354,457,l),
(584,730,l),
(585,730,l),
(746,571,l),
(746,570,l),
(558,366,l)
);
},
{
attr = {
gradient = {
colors = (
(
(64,255),
0
),
(
(191,255),
1
)
);
end = (0.3103,0.7788);
start = (0.9832,0.4844);
};
};
closed = 1;
nodes = (
(407,253,l),
(354,456,l),
(354,457,l),
(688,457,l),
(688,253,l)
);
},
{
attr = {
gradient = {
colors = (
(
(64,255),
0
),
(
(191,255),
1
)
);
end = (0.4877,0.9217);
start = (0.4155,-0.0037);
};
};
closed = 1;
nodes = (
(238,730,l),
(239,730,l),
(239,0,l),
(25,0,l),
(25,730,l)
);
},
{
attr = {
gradient = {
colors = (
(
(64,255),
0
),
(
(191,255),
1
)
);
end = (0.1636,0.9918);
start = (0.6848,0.1052);
};
};
closed = 1;
nodes = (
(405,0,l),
(405,1,l),
(545,204,l),
(688,204,l),
(688,0,l)
);
},
{
attr = {
gradient = {
colors = (
(
(191,255),
0
),
(
(64,255),
1
)
);
end = (0.8878,0.5878);
start = (0.0693,0.513);
};
};
closed = 1;
nodes = (
(689,0,l),
(688,0,l),
(688,457,l),
(689,457,l),
(902,274,l),
(902,193,l)
);
}
);
width = 902;
},
{
attr = {
color = "1";
};
layerId = m003;
shapes = (
{
attr = {
gradient = {
colors = (
(
(64,255),
0
),
(
(128,255),
1
)
);
end = (0.522,0.9968);
start = (0.4393,0.0388);
};
};
closed = 1;
nodes = (
(584,486,l),
(279,486,l),
(279,730,l),
(584,730,l)
);
},
{
attr = {
gradient = {
colors = (
(
(191,255),
0
),
(
(64,255),
1
)
);
end = (0.3759,0.0091);
start = (0.4447,0.6672);
};
};
closed = 1;
nodes = (
(384,467,l),
(584,730,l),
(585,730,l),
(816,531,l),
(816,530,l),
(698,376,l)
);
},
{
attr = {
gradient = {
colors = (
(
(64,255),
0
),
(
(191,255),
1
)
);
end = (0.3103,0.7788);
start = (0.9832,0.4844);
};
};
closed = 1;
nodes = (
(437,263,l),
(384,466,l),
(384,467,l),
(728,467,l),
(728,263,l)
);
},
{
attr = {
gradient = {
colors = (
(
(64,255),
0
),
(
(191,255),
1
)
);
end = (0.4877,0.9217);
start = (0.4155,-0.0037);
};
};
closed = 1;
nodes = (
(278,730,l),
(279,730,l),
(279,0,l),
(25,0,l),
(25,730,l)
);
},
{
attr = {
gradient = {
colors = (
(
(64,255),
0
),
(
(191,255),
1
)
);
end = (0.1636,0.9918);
start = (0.6848,0.1052);
};
};
closed = 1;
nodes = (
(495,0,l),
(495,1,l),
(635,244,l),
(728,244,l),
(728,0,l)
);
},
{
attr = {
gradient = {
colors = (
(
(191,255),
0
),
(
(64,255),
1
)
);
end = (0.8878,0.5878);
start = (0.0693,0.513);
};
};
closed = 1;
nodes = (
(729,0,l),
(728,0,l),
(728,467,l),
(729,467,l),
(982,274,l),
(982,193,l)
);
}
);
width = 1007;
}
);
unicode = 7838;
},
{
color = 3;
glyphname = T;
kernLeft = T;
kernRight = T;
lastChange = "2022-06-06 10:08:31 +0000";
layers = (
{
anchors = (
{
name = bottom;
pos = (157,0);
},
{
name = stroke;
pos = (156,365);
},
{
name = top;
pos = (158,700);
}
);
attr = {
color = "1";
};
layerId = "33AE93C6-B8B3-427A-A53B-F24970E840CE";
shapes = (
{
attr = {
gradient = {
colors = (
(
(64,255),
0.01
),
(
(191,255),
1
)
);
end = (0.4781,1.0761);
start = (0.4866,0.1832);
};
};
closed = 1;
nodes = (
(167,700,l),
(168,700,l),
(168,0,l),
(145,0,l),
(144,0,l),
(144,676,l)
);
},
{
attr = {
gradient = {
colors = (
(
(64,255),
0
),
(
(191,255),
1
)
);
end = (0.7658,0.909);
start = (0.089,0.1962);
};
};
closed = 1;
nodes = (
(23,676,l),
(23,700,l),
(167,700,l),
(144,676,l)
);
},
{
attr = {
gradient = {
colors = (
(
(64,255),
0
),
(
(191,255),
1
)
);
end = (0.7658,0.909);
start = (0.21,0.0899);
};
};
closed = 1;
nodes = (
(168,676,l),
(168,700,l),
(288,700,l),
(288,676,l)
);
}
);
width = 311;
},
{
anchors = (
{
name = bottom;
pos = (433,0);
},
{
name = stroke;
pos = (433,365);
},
{
name = top;
pos = (436,730);
}
);
attr = {
color = "1";
};
layerId = "E87239EE-82B8-404C-B23A-53843E270889";
shapes = (
{
attr = {
gradient = {
colors = (
(
(191,255),
0
),
(
(64,255),
1
)
);
end = (0.2453,-0.0434);
start = (0.7174,0.9508);
};
};
closed = 1;
nodes = (
(468,730,l),
(520,730,l),
(520,0,l),
(358,0,l),
(305,0,l),
(306,526,l)
);
},
{
attr = {
gradient = {
colors = (
(
(64,255),
0
),
(
(191,255),
1
)
);
end = (0.8663,0.7092);
start = (0.0295,0.395);
};
};
closed = 1;
nodes = (
(25,526,l),
(25,730,l),
(468,730,l),
(306,526,l)
);
},
{
attr = {
gradient = {
colors = (
(
(64,255),
0
),
(
(191,255),
1
)
);
end = (1.1153,0.3256);
start = (-0.0331,0.4436);
};
};
closed = 1;
nodes = (
(520,526,l),
(520,730,l),
(821,730,l),
(821,526,l)
);
}
);
width = 846;
},
{
anchors = (
{
name = bottom;
pos = (433,0);
},
{
name = stroke;
pos = (433,365);
},
{
name = top;
pos = (436,730);
}
);
attr = {
color = "1";
};
layerId = m003;
shapes = (
{
attr = {
gradient = {
colors = (
(
(191,255),
0
),
(
(64,255),
1
)
);
end = (0.2453,-0.0434);
start = (0.7174,0.9508);
};
};
closed = 1;
nodes = (
(508,730,l),
(560,730,l),
(560,0,l),
(358,0,l),
(305,0,l),
(306,486,l)
);
},
{
attr = {
gradient = {
colors = (
(
(64,255),
0
),
(
(191,255),
1
)
);
end = (0.8663,0.7092);
start = (0.0295,0.395);
};
};
closed = 1;
nodes = (
(25,486,l),
(25,730,l),
(508,730,l),
(306,486,l)
);
},
{
attr = {
gradient = {
colors = (
(
(64,255),
0
),
(
(191,255),
1
)
);
end = (1.1153,0.3256);
start = (-0.0331,0.4436);
};
};
closed = 1;
nodes = (
(560,486,l),
(560,730,l),
(861,730,l),
(861,486,l)
);
}
);
width = 886;
}
);
metricRight = "=|";
unicode = 84;
},
{
color = 4;
glyphname = U;
kernRight = U;
lastChange = "2022-06-06 10:08:51 +0000";
layers = (
{
anchors = (
{
name = bottom;
pos = (132,0);
},
{
name = horn;
pos = (196,700);
},
{
name = top;
pos = (143,701);
}
);
attr = {
color = "1";
};
layerId = "33AE93C6-B8B3-427A-A53B-F24970E840CE";
shapes = (
{
attr = {
gradient = {
colors = (
(
(191,255),
0
),
(
(64,255),
1
)
);
end = (0.5074,0.9658);
start = (0.6091,0.0797);
};
};
closed = 1;
nodes = (
(197,0,l),
(196,0,l),
(196,700,l),
(220,700,l),
(220,23,l)
);
},
{
attr = {
gradient = {
colors = (
(
(191,255),
0
),
(
(64,255),
1
)
);
end = (0.8878,0.5878);
start = (0.0693,0.513);
};
};
closed = 1;
nodes = (
(53,23,l),
(53,24,l),
(196,24,l),
(196,0,l),
(76,0,l)
);
},
{
attr = {
gradient = {
colors = (
(
(64,255),
0
),
(
(191,255),
0.50056
),
(
(64,255),
1
)
);
end = (1.2582,0.0143);
start = (-0.3003,0.8873);
};
};
closed = 1;
nodes = (
(76,700,l),
(77,700,l),
(77,24,l),
(53,24,l),
(53,700,l)
);
}
);
width = 273;
},
{
anchors = (
{
name = bottom;
pos = (442,0);
},
{
name = horn;
pos = (811,730);
},
{
name = top;
pos = (476,730);
}
);
attr = {
color = "1";
};
layerId = "E87239EE-82B8-404C-B23A-53843E270889";
shapes = (
{
attr = {
gradient = {
colors = (
(
(191,255),
0
),
(
(64,255),
1
)
);
end = (0.4877,0.9217);
start = (0.4155,-0.0037);
};
};
closed = 1;
nodes = (
(589,0,l),
(588,0,l),
(588,730,l),
(802,730,l),
(802,207,l)
);
},
{
attr = {
gradient = {
colors = (
(
(191,255),
0
),
(
(64,255),
1
)
);
end = (0.8878,0.5878);
start = (0.0693,0.513);
};
};
closed = 1;
nodes = (
(35,203,l),
(35,204,l),
(588,204,l),
(588,0,l),
(237,0,l)
);
},
{
attr = {
gradient = {
colors = (
(
(191,255),
0
),
(
(64,255),
1
)
);
end = (0.3691,0.1797);
start = (0.4192,0.8964);
};
};
closed = 1;
nodes = (
(249,730,l),
(249,204,l),
(248,204,l),
(35,204,l),
(35,730,l)
);
}
);
width = 837;
},
{
anchors = (
{
name = bottom;
pos = (442,0);
},
{
name = horn;
pos = (811,730);
},
{
name = top;
pos = (476,730);
}
);
attr = {
color = "1";
};
layerId = m003;
shapes = (
{
attr = {
gradient = {
colors = (
(
(191,255),
0
),
(
(64,255),
1
)
);
end = (0.4877,0.9217);
start = (0.4155,-0.0037);
};
};
closed = 1;
nodes = (
(629,0,l),
(628,0,l),
(628,730,l),
(882,730,l),
(882,207,l)
);
},
{
attr = {
gradient = {
colors = (
(
(191,255),
0
),
(
(64,255),
1
)
);
end = (0.8878,0.5878);
start = (0.0693,0.513);
};
};
closed = 1;
nodes = (
(35,243,l),
(35,244,l),
(628,244,l),
(628,0,l),
(237,0,l)
);
},
{
attr = {
gradient = {
colors = (
(
(191,255),
0
),
(
(64,255),
1
)
);
end = (0.3691,0.1797);
start = (0.4192,0.8964);
};
};
closed = 1;
nodes = (
(289,730,l),
(289,244,l),
(288,244,l),
(35,244,l),
(35,730,l)
);
}
);
width = 907;
}
);
unicode = 85;
},
{
color = 3;
glyphname = V;
kernLeft = V;
kernRight = V;
lastChange = "2022-06-08 12:23:57 +0000";
layers = (
{
attr = {
color = "1";
};
layerId = "33AE93C6-B8B3-427A-A53B-F24970E840CE";
shapes = (
{
attr = {
gradient = {
colors = (
(
(64,255),
0
),
(
(194,255),
1
)
);
end = (0.077,1.0037);
start = (0.8521,0.1516);
};
};
closed = 1;
nodes = (
(47,700,l),
(130,12,l),
(108,0,l),
(107,0,l),
(23,700,l)
);
},
{
attr = {
gradient = {
colors = (
(
(191,255),
0
),
(
(64,255),
1
)
);
end = (0.9007,0.953);
start = (-0.0063,0.0106);
};
};
closed = 1;
nodes = (
(131,0,l),
(108,0,l),
(183,700,l),
(207,700,l)
);
}
);
width = 230;
},
{
attr = {
color = "1";
};
layerId = "E87239EE-82B8-404C-B23A-53843E270889";
shapes = (
{
attr = {
gradient = {
colors = (
(
(64,255),
0
),
(
(194,255),
1
)
);
end = (0.1166,0.52);
start = (0.8241,0.2591);
};
};
closed = 1;
nodes = (
(244,730,l),
(457,192,l),
(319,0,l),
(318,0,l),
(0,730,l)
);
},
{
attr = {
gradient = {
colors = (
(
(191,255),
0
),
(
(64,255),
1
)
);
end = (0.8623,0.9513);
start = (0.1029,0.1158);
};
};
closed = 1;
nodes = (
(523,0,l),
(319,0,l),
(627,730,l),
(871,730,l)
);
}
);
width = 871;
},
{
attr = {
color = "1";
};
layerId = m003;
shapes = (
{
attr = {
gradient = {
colors = (
(
(64,255),
0
),
(
(194,255),
1
)
);
end = (0.1166,0.52);
start = (0.8241,0.2591);
};
};
closed = 1;
nodes = (
(284,730,l),
(527,192,l),
(329,0,l),
(328,0,l),
(0,730,l)
);
},
{
attr = {
gradient = {
colors = (
(
(191,255),
0
),
(
(64,255),
1
)
);
end = (0.8623,0.9513);
start = (0.1029,0.1158);
};
};
closed = 1;
nodes = (
(613,0,l),
(329,0,l),
(687,730,l),
(971,730,l)
);
}
);
width = 971;
}
);
metricRight = "=|";
unicode = 86;
},
{
color = 4;
glyphname = W;
kernLeft = V;
kernRight = V;
lastChange = "2022-06-08 12:23:43 +0000";
layers = (
{
anchors = (
{
name = top;
pos = (251,700);
}
);
attr = {
color = "1";
};
layerId = "33AE93C6-B8B3-427A-A53B-F24970E840CE";
shapes = (
{
attr = {
gradient = {
colors = (
(
(64,255),
0
),
(
(194,255),
1
)
);
end = (0.077,1.0037);
start = (0.8521,0.1516);
};
};
closed = 1;
nodes = (
(42,700,l),
(145,12,l),
(123,0,l),
(122,0,l),
(18,700,l)
);
},
{
attr = {
gradient = {
colors = (
(
(191,255),
0
),
(
(64,255),
1
)
);
end = (0.9007,0.953);
start = (-0.0063,0.0106);
};
};
closed = 1;
nodes = (
(146,0,l),
(123,0,l),
(238,700,l),
(262,699,l)
);
},
{
attr = {
gradient = {
colors = (
(
(64,255),
0
),
(
(194,255),
1
)
);
end = (0.077,1.0037);
start = (0.8521,0.1516);
};
};
closed = 1;
nodes = (
(262,700,l),
(385,12,l),
(363,0,l),
(362,0,l),
(238,700,l)
);
},
{
attr = {
gradient = {
colors = (
(
(191,255),
0
),
(
(64,255),
1
)
);
end = (0.9007,0.953);
start = (-0.0063,0.0106);
};
};
closed = 1;
nodes = (
(386,0,l),
(363,0,l),
(458,700,l),
(482,700,l)
);
}
);
width = 500;
},
{
anchors = (
{
name = top;
pos = (673,730);
}
);
attr = {
color = "1";
};
layerId = "E87239EE-82B8-404C-B23A-53843E270889";
shapes = (
{
attr = {
gradient = {
colors = (
(
(64,255),
0
),
(
(194,255),
1
)
);
end = (0.0816,1.0122);
start = (0.7099,0.2874);
};
};
closed = 1;
nodes = (
(244,730,l),
(367,192,l),
(234,0,l),
(223,0,l),
(0,730,l)
);
},
{
attr = {
gradient = {
colors = (
(
(191,255),
0
),
(
(64,255),
1
)
);
end = (0.6039,0.6203);
start = (0.205,-0.0209);
};
};
closed = 1;
nodes = (
(417,0,l),
(234,0,l),
(482,730,l),
(686,729,l)
);
},
{
attr = {
gradient = {
colors = (
(
(64,255),
0
),
(
(194,255),
1
)
);
end = (0.0901,1.0073);
start = (0.7692,0.3835);
};
};
closed = 1;
nodes = (
(686,730,l),
(864,192,l),
(737,0,l),
(736,0,l),
(482,730,l)
);
},
{
attr = {
gradient = {
colors = (
(
(191,255),
0
),
(
(64,255),
1
)
);
end = (0.9035,0.89);
start = (0.2635,-0.0272);
};
};
closed = 1;
nodes = (
(915,0,l),
(737,0,l),
(924,730,l),
(1168,730,l)
);
}
);
width = 1168;
},
{
anchors = (
{
name = top;
pos = (673,730);
}
);
attr = {
color = "1";
};
layerId = m003;
shapes = (
{
attr = {
gradient = {
colors = (
(
(64,255),
0
),
(
(194,255),
1
)
);
end = (0.0816,1.0122);
start = (0.7099,0.2874);
};
};
closed = 1;
nodes = (
(284,730,l),
(447,192,l),
(249,0,l),
(238,0,l),
(0,730,l)
);
},
{
attr = {
gradient = {
colors = (
(
(191,255),
0
),
(
(64,255),
1
)
);
end = (0.6039,0.6203);
start = (0.205,-0.0209);
};
};
closed = 1;
nodes = (
(523,0,l),
(249,0,l),
(527,730,l),
(801,729,l)
);
},
{
attr = {
gradient = {
colors = (
(
(64,255),
0
),
(
(194,255),
1
)
);
end = (0.0901,1.0073);
start = (0.7692,0.3835);
};
};
closed = 1;
nodes = (
(801,730,l),
(974,192,l),
(776,0,l),
(775,0,l),
(527,730,l)
);
},
{
attr = {
gradient = {
colors = (
(
(191,255),
0
),
(
(64,255),
1
)
);
end = (0.9035,0.89);
start = (0.2635,-0.0272);
};
};
closed = 1;
nodes = (
(1060,0,l),
(776,0,l),
(1044,730,l),
(1328,730,l)
);
}
);
width = 1328;
}
);
metricRight = "=|";
unicode = 87;
},
{
color = 3;
glyphname = X;
lastChange = "2022-06-06 10:33:43 +0000";
layers = (
{
attr = {
color = "1";
};
layerId = "33AE93C6-B8B3-427A-A53B-F24970E840CE";
shapes = (
{
attr = {
gradient = {
colors = (
(
(64,255),
0
),
(
(194,255),
1
)
);
end = (0.077,1.0037);
start = (0.8521,0.1516);
};
};
closed = 1;
nodes = (
(52,700,l),
(135,356,l),
(113,350,l),
(112,350,l),
(28,700,l)
);
},
{
attr = {
gradient = {
colors = (
(
(191,255),
0
),
(
(64,255),
1
)
);
end = (0.9007,0.953);
start = (-0.0063,0.0106);
};
};
closed = 1;
nodes = (
(136,350,l),
(113,350,l),
(188,700,l),
(212,700,l)
);
},
{
attr = {
gradient = {
colors = (
(
(191,255),
0
),
(
(64,255),
1
)
);
end = (0.1475,0.8504);
start = (0.8714,-0.0036);
};
};
closed = 1;
nodes = (
(195,0,l),
(113,344,l),
(135,350,l),
(136,350,l),
(219,0,l)
);
},
{
attr = {
gradient = {
colors = (
(
(64,255),
0
),
(
(191,255),
1
)
);
end = (1.0293,0.9995);
start = (0.1591,0.0173);
};
};
closed = 1;
nodes = (
(112,350,l),
(135,350,l),
(59,0,l),
(35,0,l)
);
}
);
width = 247;
},
{
attr = {
color = "1";
};
layerId = "E87239EE-82B8-404C-B23A-53843E270889";
shapes = (
{
attr = {
gradient = {
colors = (
(
(64,255),
0
),
(
(194,255),
1
)
);
end = (0.1166,0.52);
start = (0.8241,0.2591);
};
};
closed = 1;
nodes = (
(264,730,l),
(405,545,l),
(279,365,l),
(278,365,l),
(20,730,l)
);
},
{
attr = {
gradient = {
colors = (
(
(191,255),
0
),
(
(64,255),
1
)
);
end = (0.8623,0.9513);
start = (0.1029,0.1158);
};
};
closed = 1;
nodes = (
(511,365,l),
(279,365,l),
(537,730,l),
(789,730,l)
);
},
{
attr = {
gradient = {
colors = (
(
(191,255),
0
),
(
(64,255),
1
)
);
end = (0.1166,0.52);
start = (0.8241,0.2591);
};
};
closed = 1;
nodes = (
(525,0,l),
(382,187,l),
(510,365,l),
(511,365,l),
(769,0,l)
);
},
{
attr = {
gradient = {
colors = (
(
(64,255),
0
),
(
(191,255),
1
)
);
end = (0.8623,0.9513);
start = (0.1029,0.1158);
};
};
closed = 1;
nodes = (
(278,365,l),
(510,365,l),
(252,0,l),
(0,0,l)
);
}
);
width = 789;
},
{
attr = {
color = "1";
};
layerId = m003;
shapes = (
{
attr = {
gradient = {
colors = (
(
(64,255),
0
),
(
(194,255),
1
)
);
end = (0.1166,0.52);
start = (0.8241,0.2591);
};
};
closed = 1;
nodes = (
(334,730,l),
(457,557,l),
(279,365,l),
(278,365,l),
(30,730,l)
);
},
{
attr = {
gradient = {
colors = (
(
(191,255),
0
),
(
(64,255),
1
)
);
end = (0.8623,0.9513);
start = (0.1029,0.1158);
};
};
closed = 1;
nodes = (
(611,365,l),
(279,365,l),
(577,730,l),
(889,730,l)
);
},
{
attr = {
gradient = {
colors = (
(
(191,255),
0
),
(
(64,255),
1
)
);
end = (0.1166,0.52);
start = (0.8241,0.2591);
};
};
closed = 1;
nodes = (
(555,0,l),
(432,173,l),
(610,365,l),
(611,365,l),
(859,0,l)
);
},
{
attr = {
gradient = {
colors = (
(
(64,255),
0
),
(
(191,255),
1
)
);
end = (0.8623,0.9513);
start = (0.1029,0.1158);
};
};
closed = 1;
nodes = (
(278,365,l),
(610,365,l),
(312,0,l),
(0,0,l)
);
}
);
width = 889;
}
);
metricRight = "=|";
unicode = 88;
},
{
color = 3;
glyphname = Y;
kernLeft = Y;
kernRight = Y;
lastChange = "2022-06-06 10:34:57 +0000";
layers = (
{
anchors = (
{
name = bottom;
pos = (129,0);
},
{
name = top;
pos = (127,700);
}
);
attr = {
color = "1";
};
layerId = "33AE93C6-B8B3-427A-A53B-F24970E840CE";
shapes = (
{
attr = {
gradient = {
colors = (
(
(64,255),
0
),
(
(194,255),
1
)
);
end = (0.077,1.0037);
start = (0.8521,0.1516);
};
};
closed = 1;
nodes = (
(47,700,l),
(140,356,l),
(118,350,l),
(117,350,l),
(23,700,l)
);
},
{
attr = {
gradient = {
colors = (
(
(191,255),
0
),
(
(64,255),
1
)
);
end = (0.9007,0.953);
start = (-0.0063,0.0106);
};
};
closed = 1;
nodes = (
(141,350,l),
(118,350,l),
(203,700,l),
(227,700,l)
);
},
{
attr = {
gradient = {
colors = (
(
(64,255),
0
),
(
(191,255),
1
)
);
end = (0.4056,0.1204);
start = (0.4192,0.8964);
};
};
closed = 1;
nodes = (
(117,0,l),
(117,350,l),
(141,350,l),
(141,0,l)
);
}
);
width = 250;
},
{
anchors = (
{
name = bottom;
pos = (417,0);
},
{
name = top;
pos = (443,730);
}
);
attr = {
color = "1";
};
layerId = "E87239EE-82B8-404C-B23A-53843E270889";
shapes = (
{
attr = {
gradient = {
colors = (
(
(64,255),
0
),
(
(194,255),
1
)
);
end = (0.0249,0.9726);
start = (0.8241,0.2591);
};
};
closed = 1;
nodes = (
(234,730,l),
(396,467,l),
(294,285,l),
(293,285,l),
(0,730,l)
);
},
{
attr = {
gradient = {
colors = (
(
(191,255),
0
),
(
(64,255),
1
)
);
end = (0.8623,0.9513);
start = (0.1029,0.1158);
};
};
closed = 1;
nodes = (
(507,285,l),
(294,285,l),
(546,730,l),
(780,730,l)
);
},
{
attr = {
gradient = {
colors = (
(
(64,255),
0
),
(
(191,255),
1
)
);
end = (0.2184,0.0387);
start = (0.8367,0.8863);
};
};
closed = 1;
nodes = (
(293,0,l),
(293,285,l),
(507,285,l),
(507,0,l)
);
}
);
width = 780;
},
{
anchors = (
{
name = bottom;
pos = (417,0);
},
{
name = top;
pos = (443,730);
}
);
attr = {
color = "1";
};
layerId = m003;
shapes = (
{
attr = {
gradient = {
colors = (
(
(64,255),
0
),
(
(194,255),
1
)
);
end = (0.0249,0.9726);
start = (0.8241,0.2591);
};
};
closed = 1;
nodes = (
(273,730,l),
(436,467,l),
(289,285,l),
(288,285,l),
(0,730,l)
);
},
{
attr = {
gradient = {
colors = (
(
(191,255),
0
),
(
(64,255),
1
)
);
end = (0.8623,0.9513);
start = (0.1029,0.1158);
};
};
closed = 1;
nodes = (
(552,285,l),
(289,285,l),
(566,730,l),
(840,730,l)
);
},
{
attr = {
gradient = {
colors = (
(
(64,255),
0
),
(
(191,255),
1
)
);
end = (0.0671,0.0253);
start = (1.0226,1.1528);
};
};
closed = 1;
nodes = (
(288,0,l),
(288,285,l),
(552,285,l),
(552,0,l)
);
}
);
width = 840;
}
);
metricRight = "=|";
unicode = 89;
},
{
color = 3;
glyphname = Z;
lastChange = "2022-06-08 12:24:22 +0000";
layers = (
{
anchors = (
{
name = top;
pos = (118,700);
}
);
attr = {
color = "1";
};
layerId = "33AE93C6-B8B3-427A-A53B-F24970E840CE";
shapes = (
{
attr = {
gradient = {
colors = (
(
(191,255),
0
),
(
(64,255),
1
)
);
end = (0.8878,0.5878);
start = (0.0693,0.513);
};
};
closed = 1;
nodes = (
(166,700,l),
(163,676,l),
(33,676,l),
(33,677,l),
(33,700,l)
);
},
{
attr = {
gradient = {
colors = (
(
(64,255),
0
),
(
(191,255),
1
)
);
end = (0.1006,0.9261);
start = (0.8563,0.0865);
};
};
closed = 1;
nodes = (
(33,24,l),
(33,25,l),
(166,700,l),
(189,667,l),
(56,24,l)
);
},
{
attr = {
gradient = {
colors = (
(
(191,255),
0
),
(
(64,255),
1
)
);
end = (0.9403,0.817);
start = (0.0693,0.513);
};
};
closed = 1;
nodes = (
(56,0,l),
(33,24,l),
(189,24,l),
(189,23,l),
(189,0,l)
);
}
);
width = 222;
},
{
anchors = (
{
name = top;
pos = (386,730);
}
);
attr = {
color = "1";
};
layerId = "E87239EE-82B8-404C-B23A-53843E270889";
shapes = (
{
attr = {
gradient = {
colors = (
(
(191,255),
0
),
(
(64,255),
1
)
);
end = (0.5665,-0.135);
start = (0.1353,1.0072);
};
};
closed = 1;
nodes = (
(604,730,l),
(578,526,l),
(35,526,l),
(35,527,l),
(35,730,l)
);
},
{
attr = {
gradient = {
colors = (
(
(64,255),
0
),
(
(191,255),
1
)
);
end = (0.8927,1.0894);
start = (0.4509,0.1311);
};
};
closed = 1;
nodes = (
(41,204,l),
(41,205,l),
(604,730,l),
(744,565,l),
(244,109,l)
);
},
{
attr = {
gradient = {
colors = (
(
(191,255),
0
),
(
(64,255),
1
)
);
end = (0.9726,0.891);
start = (-0.0344,0.0083);
};
};
closed = 1;
nodes = (
(41,0,l),
(41,204,l),
(750,204,l),
(750,203,l),
(750,0,l)
);
}
);
width = 785;
},
{
anchors = (
{
name = top;
pos = (386,730);
}
);
attr = {
color = "1";
};
layerId = m003;
shapes = (
{
attr = {
gradient = {
colors = (
(
(191,255),
0
),
(
(64,255),
1
)
);
end = (0.5665,-0.135);
start = (0.1353,1.0072);
};
};
closed = 1;
nodes = (
(644,730,l),
(618,486,l),
(35,486,l),
(35,487,l),
(35,730,l)
);
},
{
attr = {
gradient = {
colors = (
(
(64,255),
0
),
(
(191,255),
1
)
);
end = (0.8927,1.0894);
start = (0.4509,0.1311);
};
};
closed = 1;
nodes = (
(41,244,l),
(41,245,l),
(644,730,l),
(784,535,l),
(244,119,l)
);
},
{
attr = {
gradient = {
colors = (
(
(191,255),
0
),
(
(64,255),
1
)
);
end = (0.9726,0.891);
start = (-0.0344,0.0083);
};
};
closed = 1;
nodes = (
(41,0,l),
(41,244,l),
(790,244,l),
(790,243,l),
(790,0,l)
);
}
);
width = 825;
}
);
metricRight = "=|";
unicode = 90;
},
{
color = 4;
glyphname = a;
kernLeft = o;
kernRight = a;
lastChange = "2022-06-06 09:42:41 +0000";
layers = (
{
anchors = (
{
name = bottom;
pos = (102,0);
},
{
name = top;
pos = (102,500);
}
);
attr = {
color = "1";
};
layerId = "33AE93C6-B8B3-427A-A53B-F24970E840CE";
shapes = (
{
attr = {
gradient = {
colors = (
(
(64,255),
0
),
(
(191,255),
1
)
);
end = (0.4877,0.9217);
start = (0.4155,-0.0037);
};
};
closed = 1;
nodes = (
(73,500,l),
(74,500,l),
(74,24,l),
(50,24,l),
(50,477,l)
);
},
{
attr = {
gradient = {
colors = (
(
(64,255),
0
),
(
(191,255),
1
)
);
end = (0.8878,0.5878);
start = (0.0693,0.513);
};
};
closed = 1;
nodes = (
(147,477,l),
(147,476,l),
(74,476,l),
(74,500,l),
(124,500,l)
);
},
{
attr = {
gradient = {
colors = (
(
(64,255),
0
),
(
(191,255),
1
)
);
end = (0.4056,0.1204);
start = (0.4192,0.8964);
};
};
closed = 1;
nodes = (
(124,0,l),
(123,0,l),
(123,476,l),
(147,476,l),
(147,0,l)
);
},
{
attr = {
gradient = {
colors = (
(
(191,255),
0
),
(
(64,255),
1
)
);
end = (0.8878,0.5878);
start = (0.0693,0.513);
};
};
closed = 1;
nodes = (
(50,23,l),
(50,24,l),
(123,24,l),
(123,0,l),
(73,0,l)
);
}
);
width = 197;
},
{
anchors = (
{
name = bottom;
pos = (441,0);
},
{
name = top;
pos = (452,530);
}
);
attr = {
color = "1";
};
layerId = "E87239EE-82B8-404C-B23A-53843E270889";
shapes = (
{
attr = {
gradient = {
colors = (
(
(64,255),
0
),
(
(191,255),
1
)
);
end = (0.4877,0.9217);
start = (0.4155,-0.0037);
};
};
closed = 1;
nodes = (
(248,530,l),
(249,530,l),
(249,204,l),
(35,204,l),
(35,423,l)
);
},
{
attr = {
gradient = {
colors = (
(
(64,255),
0
),
(
(191,255),
1
)
);
end = (0.8878,0.5878);
start = (0.0693,0.513);
};
};
closed = 1;
nodes = (
(792,327,l),
(792,326,l),
(249,326,l),
(249,530,l),
(685,530,l)
);
},
{
attr = {
gradient = {
colors = (
(
(64,255),
0
),
(
(191,255),
1
)
);
end = (0.4056,0.1204);
start = (0.4192,0.8964);
};
};
closed = 1;
nodes = (
(579,0,l),
(578,0,l),
(578,326,l),
(792,326,l),
(792,0,l)
);
},
{
attr = {
gradient = {
colors = (
(
(191,255),
0
),
(
(64,255),
1
)
);
end = (0.8878,0.5878);
start = (0.0693,0.513);
};
};
closed = 1;
nodes = (
(35,203,l),
(35,204,l),
(578,204,l),
(578,0,l),
(142,0,l)
);
}
);
width = 827;
},
{
anchors = (
{
name = bottom;
pos = (441,0);
},
{
name = top;
pos = (452,530);
}
);
attr = {
color = "1";
};
layerId = m003;
shapes = (
{
attr = {
gradient = {
colors = (
(
(64,255),
0
),
(
(191,255),
1
)
);
end = (0.4877,0.9217);
start = (0.4155,-0.0037);
};
};
closed = 1;
nodes = (
(248,530,l),
(249,530,l),
(249,204,l),
(35,204,l),
(35,423,l)
);
},
{
attr = {
gradient = {
colors = (
(
(64,255),
0
),
(
(191,255),
1
)
);
end = (0.8878,0.5878);
start = (0.0693,0.513);
};
};
closed = 1;
nodes = (
(792,327,l),
(792,326,l),
(249,326,l),
(249,530,l),
(685,530,l)
);
},
{
attr = {
gradient = {
colors = (
(
(64,255),
0
),
(
(191,255),
1
)
);
end = (0.4056,0.1204);
start = (0.4192,0.8964);
};
};
closed = 1;
nodes = (
(579,0,l),
(578,0,l),
(578,326,l),
(792,326,l),
(792,0,l)
);
},
{
attr = {
gradient = {
colors = (
(
(191,255),
0
),
(
(64,255),
1
)
);
end = (0.8878,0.5878);
start = (0.0693,0.513);
};
};
closed = 1;
nodes = (
(35,203,l),
(35,204,l),
(578,204,l),
(578,0,l),
(142,0,l)
);
}
);
width = 827;
}
);
unicode = 97;
},
{
color = 4;
glyphname = aringacute;
kernLeft = o;
kernRight = n;
lastChange = "2022-06-06 09:42:41 +0000";
layers = (
{
attr = {
color = "1";
};
layerId = "33AE93C6-B8B3-427A-A53B-F24970E840CE";
shapes = (
{
ref = a;
},
{
attr = {
gradient = {
colors = (
(
(64,255),
0
),
(
(191,255),
1
)
);
end = (0.4877,0.9217);
start = (0.453,0.0037);
};
identifier = ID0x600000627720;
};
closed = 1;
nodes = (
(84,641,l),
(85,641,l),
(85,556,l),
(66,556,l),
(66,623,l)
);
},
{
attr = {
gradient = {
colors = (
(
(64,255),
0
),
(
(191,255),
1
)
);
end = (0.8878,0.5878);
start = (0.0693,0.513);
};
identifier = ID0x600000627720;
};
closed = 1;
nodes = (
(143,623,l),
(143,622,l),
(85,622,l),
(85,641,l),
(125,641,l)
);
},
{
attr = {
gradient = {
colors = (
(
(64,255),
0
),
(
(191,255),
1
)
);
end = (0.4056,0.1204);
start = (0.4192,0.8964);
};
identifier = ID0x600000627720;
};
closed = 1;
nodes = (
(125,537,l),
(124,537,l),
(124,622,l),
(143,622,l),
(143,555,l)
);
},
{
attr = {
gradient = {
colors = (
(
(191,255),
0
),
(
(64,255),
1
)
);
end = (0.8878,0.5878);
start = (0.0693,0.513);
};
identifier = ID0x600000627720;
};
closed = 1;
nodes = (
(66,555,l),
(66,556,l),
(124,556,l),
(124,537,l),
(84,537,l)
);
},
{
attr = {
gradient = {
colors = (
(
(191,255),
0
),
(
(64,255),
1
)
);
end = (0.7053,1.0789);
start = (0.3543,0.0329);
};
identifier = ID0x600000627800;
};
closed = 1;
nodes = (
(118,772,l),
(149,772,l),
(149,771,l),
(111,670,l),
(92,670,l)
);
}
);
width = 203;
},
{
attr = {
color = "1";
};
layerId = "E87239EE-82B8-404C-B23A-53843E270889";
shapes = (
{
ref = a;
},
{
attr = {
gradient = {
colors = (
(
(64,255),
0
),
(
(191,255),
1
)
);
end = (0.4877,0.9217);
start = (0.4155,-0.0037);
};
identifier = ID0x6000006279c0;
};
closed = 1;
nodes = (
(379,760,l),
(380,760,l),
(380,654,l),
(284,654,l),
(284,698,l)
);
},
{
attr = {
gradient = {
colors = (
(
(64,255),
0
),
(
(191,255),
1
)
);
end = (0.8878,0.5878);
start = (0.0693,0.513);
};
identifier = ID0x6000006279c0;
};
closed = 1;
nodes = (
(610,677,l),
(610,676,l),
(380,676,l),
(380,760,l),
(550,760,l)
);
},
{
attr = {
gradient = {
colors = (
(
(64,255),
0
),
(
(191,255),
1
)
);
end = (0.4056,0.1204);
start = (0.4192,0.8964);
};
identifier = ID0x6000006279c0;
};
closed = 1;
nodes = (
(515,572,l),
(514,572,l),
(514,676,l),
(610,676,l),
(610,628,l)
);
},
{
attr = {
gradient = {
colors = (
(
(191,255),
0
),
(
(64,255),
1
)
);
end = (0.8878,0.5878);
start = (0.0693,0.513);
};
identifier = ID0x6000006279c0;
};
closed = 1;
nodes = (
(284,653,l),
(284,654,l),
(514,654,l),
(514,572,l),
(344,572,l)
);
},
{
attr = {
gradient = {
colors = (
(
(191,255),
0
),
(
(64,255),
1
)
);
end = (0.7053,1.0789);
start = (0.3543,0.0329);
};
identifier = ID0x600000627aa0;
};
closed = 1;
nodes = (
(428,900,l),
(584,900,l),
(584,899,l),
(499,790,l),
(413,790,l)
);
}
);
width = 827;
},
{
attr = {
color = "1";
};
layerId = m003;
shapes = (
{
ref = a;
},
{
attr = {
gradient = {
colors = (
(
(64,255),
0
),
(
(191,255),
1
)
);
end = (0.4877,0.9217);
start = (0.4155,-0.0037);
};
identifier = ID0x6000006279c0;
};
closed = 1;
nodes = (
(379,760,l),
(380,760,l),
(380,654,l),
(284,654,l),
(284,698,l)
);
},
{
attr = {
gradient = {
colors = (
(
(64,255),
0
),
(
(191,255),
1
)
);
end = (0.8878,0.5878);
start = (0.0693,0.513);
};
identifier = ID0x6000006279c0;
};
closed = 1;
nodes = (
(610,677,l),
(610,676,l),
(380,676,l),
(380,760,l),
(550,760,l)
);
},
{
attr = {
gradient = {
colors = (
(
(64,255),
0
),
(
(191,255),
1
)
);
end = (0.4056,0.1204);
start = (0.4192,0.8964);
};
identifier = ID0x6000006279c0;
};
closed = 1;
nodes = (
(515,572,l),
(514,572,l),
(514,676,l),
(610,676,l),
(610,628,l)
);
},
{
attr = {
gradient = {
colors = (
(
(191,255),
0
),
(
(64,255),
1
)
);
end = (0.8878,0.5878);
start = (0.0693,0.513);
};
identifier = ID0x6000006279c0;
};
closed = 1;
nodes = (
(284,653,l),
(284,654,l),
(514,654,l),
(514,572,l),
(344,572,l)
);
},
{
attr = {
gradient = {
colors = (
(
(191,255),
0
),
(
(64,255),
1
)
);
end = (0.7053,1.0789);
start = (0.3543,0.0329);
};
identifier = ID0x600000627aa0;
};
closed = 1;
nodes = (
(428,900,l),
(584,900,l),
(584,899,l),
(499,790,l),
(413,790,l)
);
}
);
width = 827;
}
);
unicode = 507;
},
{
color = 4;
glyphname = ae;
kernLeft = o;
kernRight = e;
lastChange = "2022-06-06 09:42:41 +0000";
layers = (
{
anchors = (
{
name = top;
pos = (130,500);
}
);
attr = {
color = "1";
};
layerId = "33AE93C6-B8B3-427A-A53B-F24970E840CE";
shapes = (
{
attr = {
gradient = {
colors = (
(
(191,255),
0
),
(
(64,255),
1
)
);
end = (0.8878,0.5878);
start = (0.0693,0.513);
};
};
closed = 1;
nodes = (
(50,23,l),
(50,24,l),
(123,24,l),
(147,0,l),
(73,0,l)
);
},
{
attr = {
gradient = {
colors = (
(
(64,255),
0
),
(
(191,255),
1
)
);
end = (0.8878,0.5878);
start = (0.0693,0.513);
};
};
closed = 1;
nodes = (
(221,477,l),
(221,476,l),
(148,476,l),
(148,500,l),
(198,500,l)
);
},
{
attr = {
gradient = {
colors = (
(
(64,255),
0
),
(
(191,255),
1
)
);
end = (0.4056,0.1204);
start = (0.4192,0.8964);
};
};
closed = 1;
nodes = (
(123,24,l),
(123,476,l),
(147,476,l),
(147,0,l)
);
},
{
attr = {
gradient = {
colors = (
(
(64,255),
0
),
(
(191,255),
1
)
);
end = (0.8878,0.5878);
start = (0.0693,0.513);
};
};
closed = 1;
nodes = (
(197,202,l),
(148,202,l),
(148,226,l),
(197,226,l)
);
},
{
attr = {
gradient = {
colors = (
(
(64,255),
0
),
(
(191,255),
1
)
);
end = (0.4056,0.1204);
start = (0.4192,0.8964);
};
};
closed = 1;
nodes = (
(198,202,l),
(197,202,l),
(197,476,l),
(221,476,l),
(221,225,l)
);
},
{
attr = {
gradient = {
colors = (
(
(64,255),
0
),
(
(191,255),
1
)
);
end = (0.4877,0.9217);
start = (0.4155,-0.0037);
};
};
closed = 1;
nodes = (
(73,500,l),
(74,500,l),
(74,24,l),
(50,24,l),
(50,477,l)
);
},
{
attr = {
gradient = {
colors = (
(
(191,255),
0
),
(
(64,255),
1
)
);
end = (0.8878,0.5878);
start = (0.0693,0.513);
};
};
closed = 1;
nodes = (
(147,23,l),
(147,24,l),
(221,24,l),
(221,23,l),
(198,0,l),
(147,0,l)
);
},
{
attr = {
gradient = {
colors = (
(
(64,255),
0
),
(
(191,255),
1
)
);
end = (0.8878,0.5878);
start = (0.0693,0.513);
};
};
closed = 1;
nodes = (
(147,477,l),
(147,476,l),
(74,476,l),
(74,500,l),
(124,500,l)
);
}
);
width = 271;
},
{
anchors = (
{
name = top;
pos = (452,530);
}
);
attr = {
color = "1";
};
layerId = "E87239EE-82B8-404C-B23A-53843E270889";
shapes = (
{
attr = {
gradient = {
colors = (
(
(191,255),
0
),
(
(64,255),
1
)
);
end = (0.8878,0.5878);
start = (0.0693,0.513);
};
};
closed = 1;
nodes = (
(25,203,l),
(25,204,l),
(578,204,l),
(792,0,l),
(132,0,l)
);
},
{
attr = {
gradient = {
colors = (
(
(64,255),
0
),
(
(191,255),
1
)
);
end = (0.8878,0.5878);
start = (0.0196,0.4891);
};
};
closed = 1;
nodes = (
(1345,352,l),
(1345,351,l),
(578,351,l),
(792,530,l),
(1238,530,l)
);
},
{
attr = {
gradient = {
colors = (
(
(64,255),
0
),
(
(191,255),
1
)
);
end = (0.919,0.0061);
start = (0.066,0.9748);
};
};
closed = 1;
nodes = (
(578,199,l),
(578,326,l),
(792,326,l),
(792,0,l)
);
},
{
attr = {
gradient = {
colors = (
(
(64,255),
0
),
(
(191,255),
1
)
);
end = (0.1222,0.0774);
start = (0.9519,0.8584);
};
};
closed = 1;
nodes = (
(1131,221,l),
(792,220,l),
(792,331,l),
(1131,331,l)
);
},
{
attr = {
gradient = {
colors = (
(
(64,255),
0
),
(
(191,255),
1
)
);
end = (0.4664,0.1377);
start = (0.4202,0.9309);
};
};
closed = 1;
nodes = (
(1132,221,l),
(1131,221,l),
(1131,351,l),
(1345,351,l),
(1345,328,l)
);
},
{
attr = {
gradient = {
colors = (
(
(64,255),
0
),
(
(191,255),
1
)
);
end = (0.4877,0.9217);
start = (0.4155,-0.0037);
};
};
closed = 1;
nodes = (
(248,530,l),
(249,530,l),
(249,204,l),
(35,204,l),
(35,423,l)
);
},
{
attr = {
gradient = {
colors = (
(
(191,255),
0
),
(
(64,255),
1
)
);
end = (0.014,0.9151);
start = (0.7914,0.1042);
};
};
closed = 1;
nodes = (
(792,199,l),
(792,200,l),
(1345,200,l),
(1345,199,l),
(1238,0,l),
(792,0,l)
);
},
{
attr = {
gradient = {
colors = (
(
(64,255),
0
),
(
(191,255),
1
)
);
end = (0.8878,0.5878);
start = (0.0693,0.513);
};
};
closed = 1;
nodes = (
(792,327,l),
(792,326,l),
(249,326,l),
(249,530,l),
(685,530,l)
);
}
);
width = 1370;
},
{
anchors = (
{
name = top;
pos = (452,530);
}
);
attr = {
color = "1";
};
layerId = m003;
shapes = (
{
attr = {
gradient = {
colors = (
(
(191,255),
0
),
(
(64,255),
1
)
);
end = (0.8878,0.5878);
start = (0.0693,0.513);
};
};
closed = 1;
nodes = (
(25,203,l),
(25,204,l),
(578,204,l),
(792,0,l),
(132,0,l)
);
},
{
attr = {
gradient = {
colors = (
(
(64,255),
0
),
(
(191,255),
1
)
);
end = (0.8878,0.5878);
start = (0.0196,0.4891);
};
};
closed = 1;
nodes = (
(1345,352,l),
(1345,351,l),
(578,351,l),
(792,530,l),
(1238,530,l)
);
},
{
attr = {
gradient = {
colors = (
(
(64,255),
0
),
(
(191,255),
1
)
);
end = (0.919,0.0061);
start = (0.066,0.9748);
};
};
closed = 1;
nodes = (
(578,199,l),
(578,326,l),
(792,326,l),
(792,0,l)
);
},
{
attr = {
gradient = {
colors = (
(
(64,255),
0
),
(
(191,255),
1
)
);
end = (0.1222,0.0774);
start = (0.9519,0.8584);
};
};
closed = 1;
nodes = (
(1131,221,l),
(792,220,l),
(792,331,l),
(1131,331,l)
);
},
{
attr = {
gradient = {
colors = (
(
(64,255),
0
),
(
(191,255),
1
)
);
end = (0.4664,0.1377);
start = (0.4202,0.9309);
};
};
closed = 1;
nodes = (
(1132,221,l),
(1131,221,l),
(1131,351,l),
(1345,351,l),
(1345,328,l)
);
},
{
attr = {
gradient = {
colors = (
(
(64,255),
0
),
(
(191,255),
1
)
);
end = (0.4877,0.9217);
start = (0.4155,-0.0037);
};
};
closed = 1;
nodes = (
(248,530,l),
(249,530,l),
(249,204,l),
(35,204,l),
(35,423,l)
);
},
{
attr = {
gradient = {
colors = (
(
(191,255),
0
),
(
(64,255),
1
)
);
end = (0.014,0.9151);
start = (0.7914,0.1042);
};
};
closed = 1;
nodes = (
(792,199,l),
(792,200,l),
(1345,200,l),
(1345,199,l),
(1238,0,l),
(792,0,l)
);
},
{
attr = {
gradient = {
colors = (
(
(64,255),
0
),
(
(191,255),
1
)
);
end = (0.8878,0.5878);
start = (0.0693,0.513);
};
};
closed = 1;
nodes = (
(792,327,l),
(792,326,l),
(249,326,l),
(249,530,l),
(685,530,l)
);
}
);
width = 1370;
}
);
metricLeft = a;
metricRight = e;
unicode = 230;
},
{
color = 4;
glyphname = b;
kernLeft = l;
kernRight = o;
lastChange = "2022-06-06 09:42:41 +0000";
layers = (
{
attr = {
color = "1";
};
layerId = "33AE93C6-B8B3-427A-A53B-F24970E840CE";
shapes = (
{
attr = {
gradient = {
colors = (
(
(64,255),
0
),
(
(191,255),
0.52889
),
(
(64,255),
1
)
);
end = (0.652,0.0627);
start = (0.4192,0.8964);
};
};
closed = 1;
nodes = (
(75,730,l),
(75,25,l),
(75,24,l),
(51,24,l),
(51,730,l)
);
},
{
attr = {
gradient = {
colors = (
(
(64,255),
0
),
(
(191,255),
1
)
);
end = (0.8878,0.5878);
start = (0.0693,0.513);
};
};
closed = 1;
nodes = (
(148,477,l),
(148,476,l),
(75,476,l),
(75,500,l),
(125,500,l)
);
},
{
attr = {
gradient = {
colors = (
(
(64,255),
0
),
(
(191,255),
1
)
);
end = (0.4056,0.1204);
start = (0.4192,0.8964);
};
};
closed = 1;
nodes = (
(125,0,l),
(124,0,l),
(124,476,l),
(148,476,l),
(148,23,l)
);
},
{
attr = {
gradient = {
colors = (
(
(191,255),
0
),
(
(64,255),
1
)
);
end = (0.8878,0.5878);
start = (0.0693,0.513);
};
};
closed = 1;
nodes = (
(51,23,l),
(50,24,l),
(124,24,l),
(124,0,l),
(74,0,l)
);
}
);
width = 198;
},
{
attr = {
color = "1";
};
layerId = "E87239EE-82B8-404C-B23A-53843E270889";
shapes = (
{
attr = {
gradient = {
colors = (
(
(64,255),
0
),
(
(191,255),
0.55524
),
(
(64,255),
1
)
);
end = (-0.0215,0.951);
start = (0.8544,-0.1436);
};
};
closed = 1;
nodes = (
(248,794,l),
(249,530,l),
(249,204,l),
(35,204,l),
(35,794,l)
);
},
{
attr = {
gradient = {
colors = (
(
(64,255),
0
),
(
(191,255),
1
)
);
end = (0.8878,0.5878);
start = (0.0693,0.513);
};
};
closed = 1;
nodes = (
(773,327,l),
(773,326,l),
(249,326,l),
(249,530,l),
(671,530,l)
);
},
{
attr = {
gradient = {
colors = (
(
(64,255),
0
),
(
(191,255),
1
)
);
end = (0.4056,0.1204);
start = (0.4192,0.8964);
};
};
closed = 1;
nodes = (
(560,0,l),
(559,0,l),
(559,326,l),
(773,326,l),
(773,107,l)
);
},
{
attr = {
gradient = {
colors = (
(
(191,255),
0
),
(
(64,255),
1
)
);
end = (0.8878,0.5878);
start = (0.0693,0.513);
};
};
closed = 1;
nodes = (
(35,203,l),
(35,204,l),
(559,204,l),
(559,0,l),
(137,0,l)
);
}
);
width = 808;
},
{
attr = {
color = "1";
};
layerId = m003;
shapes = (
{
attr = {
gradient = {
colors = (
(
(64,255),
0
),
(
(191,255),
0.55524
),
(
(64,255),
1
)
);
end = (-0.0215,0.951);
start = (0.8544,-0.1436);
};
};
closed = 1;
nodes = (
(248,794,l),
(249,530,l),
(249,204,l),
(35,204,l),
(35,794,l)
);
},
{
attr = {
gradient = {
colors = (
(
(64,255),
0
),
(
(191,255),
1
)
);
end = (0.8878,0.5878);
start = (0.0693,0.513);
};
};
closed = 1;
nodes = (
(773,327,l),
(773,326,l),
(249,326,l),
(249,530,l),
(671,530,l)
);
},
{
attr = {
gradient = {
colors = (
(
(64,255),
0
),
(
(191,255),
1
)
);
end = (0.4056,0.1204);
start = (0.4192,0.8964);
};
};
closed = 1;
nodes = (
(560,0,l),
(559,0,l),
(559,326,l),
(773,326,l),
(773,107,l)
);
},
{
attr = {
gradient = {
colors = (
(
(191,255),
0
),
(
(64,255),
1
)
);
end = (0.8878,0.5878);
start = (0.0693,0.513);
};
};
closed = 1;
nodes = (
(35,203,l),
(35,204,l),
(559,204,l),
(559,0,l),
(137,0,l)
);
}
);
width = 808;
}
);
unicode = 98;
},
{
color = 4;
glyphname = c;
kernLeft = o;
lastChange = "2022-06-06 09:42:41 +0000";
layers = (
{
anchors = (
{
name = bottom;
pos = (102,0);
},
{
name = top;
pos = (100,500);
}
);
attr = {
color = "1";
};
layerId = "33AE93C6-B8B3-427A-A53B-F24970E840CE";
shapes = (
{
attr = {
gradient = {
colors = (
(
(64,255),
0
),
(
(191,255),
1
)
);
end = (0.4877,0.9217);
start = (0.4155,-0.0037);
};
};
closed = 1;
nodes = (
(73,500,l),
(74,500,l),
(74,24,l),
(50,24,l),
(50,477,l)
);
},
{
attr = {
gradient = {
colors = (
(
(64,255),
0
),
(
(191,255),
1
)
);
end = (0.8878,0.5878);
start = (0.0693,0.513);
};
};
closed = 1;
nodes = (
(147,477,l),
(147,476,l),
(74,476,l),
(74,500,l),
(124,500,l)
);
},
{
attr = {
gradient = {
colors = (
(
(191,255),
0
),
(
(64,255),
1
)
);
end = (0.8878,0.5878);
start = (0.0693,0.513);
};
};
closed = 1;
nodes = (
(50,23,l),
(50,24,l),
(136,24,l),
(136,23,l),
(113,0,l),
(73,0,l)
);
}
);
width = 167;
},
{
anchors = (
{
name = bottom;
pos = (410,0);
},
{
name = top;
pos = (427,530);
}
);
attr = {
color = "1";
};
layerId = "E87239EE-82B8-404C-B23A-53843E270889";
shapes = (
{
attr = {
gradient = {
colors = (
(
(64,255),
0
),
(
(191,255),
1
)
);
end = (0.4877,0.9217);
start = (0.4155,-0.0037);
};
};
closed = 1;
nodes = (
(253,530,l),
(254,530,l),
(254,200,l),
(40,200,l),
(40,423,l)
);
},
{
attr = {
gradient = {
colors = (
(
(64,255),
0
),
(
(191,255),
1
)
);
end = (0.8878,0.5878);
start = (0.0693,0.513);
};
};
closed = 1;
nodes = (
(747,352,l),
(747,351,l),
(254,351,l),
(254,530,l),
(640,530,l)
);
},
{
attr = {
gradient = {
colors = (
(
(191,255),
0
),
(
(64,255),
1
)
);
end = (0.8878,0.5878);
start = (0.0693,0.513);
};
};
closed = 1;
nodes = (
(40,199,l),
(40,200,l),
(747,200,l),
(747,199,l),
(640,0,l),
(147,0,l)
);
}
);
width = 757;
},
{
anchors = (
{
name = bottom;
pos = (410,0);
},
{
name = top;
pos = (427,530);
}
);
attr = {
color = "1";
};
layerId = m003;
shapes = (
{
attr = {
gradient = {
colors = (
(
(64,255),
0
),
(
(191,255),
1
)
);
end = (0.4877,0.9217);
start = (0.4155,-0.0037);
};
};
closed = 1;
nodes = (
(253,530,l),
(254,530,l),
(254,200,l),
(40,200,l),
(40,423,l)
);
},
{
attr = {
gradient = {
colors = (
(
(64,255),
0
),
(
(191,255),
1
)
);
end = (0.8878,0.5878);
start = (0.0693,0.513);
};
};
closed = 1;
nodes = (
(747,352,l),
(747,351,l),
(254,351,l),
(254,530,l),
(640,530,l)
);
},
{
attr = {
gradient = {
colors = (
(
(191,255),
0
),
(
(64,255),
1
)
);
end = (0.8878,0.5878);
start = (0.0693,0.513);
};
};
closed = 1;
nodes = (
(40,199,l),
(40,200,l),
(747,200,l),
(747,199,l),
(640,0,l),
(147,0,l)
);
}
);
width = 757;
}
);
unicode = 99;
},
{
color = 4;
glyphname = d;
kernLeft = o;
kernRight = d;
lastChange = "2022-06-06 09:42:41 +0000";
layers = (
{
anchors = (
{
name = stroke;
pos = (103,578);
},
{
name = top;
pos = (147,730);
}
);
attr = {
color = "1";
};
layerId = "33AE93C6-B8B3-427A-A53B-F24970E840CE";
shapes = (
{
attr = {
gradient = {
colors = (
(
(64,255),
0
),
(
(191,255),
1
)
);
end = (0.4877,0.9217);
start = (0.4155,-0.0037);
};
};
closed = 1;
nodes = (
(73,500,l),
(74,500,l),
(74,24,l),
(50,24,l),
(50,477,l)
);
},
{
attr = {
gradient = {
colors = (
(
(64,255),
0
),
(
(191,255),
1
)
);
end = (0.8878,0.5878);
start = (0.0693,0.513);
};
};
closed = 1;
nodes = (
(147,477,l),
(147,476,l),
(74,476,l),
(74,500,l),
(124,500,l)
);
},
{
attr = {
gradient = {
colors = (
(
(64,255),
0
),
(
(191,255),
1
)
);
end = (0.4056,0.1204);
start = (0.4192,0.8964);
};
};
closed = 1;
nodes = (
(124,0,l),
(123,0,l),
(123,476,l),
(147,476,l),
(147,23,l)
);
},
{
attr = {
gradient = {
colors = (
(
(191,255),
0
),
(
(64,255),
1
)
);
end = (0.8878,0.5878);
start = (0.0693,0.513);
};
};
closed = 1;
nodes = (
(50,23,l),
(50,24,l),
(123,24,l),
(123,0,l),
(73,0,l)
);
},
{
attr = {
gradient = {
colors = (
(
(64,255),
0
),
(
(191,255),
1
)
);
end = (0.4056,0.1204);
start = (0.4192,0.8964);
};
};
closed = 1;
nodes = (
(123,730,l),
(147,730,l),
(147,477,l),
(146,477,l),
(123,500,l)
);
}
);
width = 197;
},
{
anchors = (
{
name = stroke;
pos = (534,656);
},
{
name = top;
pos = (683,794);
}
);
attr = {
color = "1";
};
layerId = "E87239EE-82B8-404C-B23A-53843E270889";
shapes = (
{
attr = {
gradient = {
colors = (
(
(64,255),
0
),
(
(191,255),
1
)
);
end = (0.4877,0.9217);
start = (0.4155,-0.0037);
};
};
closed = 1;
nodes = (
(258,530,l),
(259,530,l),
(259,204,l),
(45,204,l),
(45,423,l)
);
},
{
attr = {
gradient = {
colors = (
(
(64,255),
0
),
(
(191,255),
1
)
);
end = (0.4963,0.709);
start = (-0.0147,0.445);
};
};
closed = 1;
nodes = (
(783,327,l),
(783,326,l),
(259,326,l),
(259,530,l),
(621,530,l)
);
},
{
attr = {
gradient = {
colors = (
(
(64,255),
0
),
(
(191,255),
1
)
);
end = (0.4056,0.1204);
start = (0.4192,0.8964);
};
};
closed = 1;
nodes = (
(570,0,l),
(569,0,l),
(569,326,l),
(783,326,l),
(783,107,l)
);
},
{
attr = {
gradient = {
colors = (
(
(191,255),
0
),
(
(64,255),
1
)
);
end = (0.8878,0.5878);
start = (0.0693,0.513);
};
};
closed = 1;
nodes = (
(45,203,l),
(45,204,l),
(569,204,l),
(569,0,l),
(147,0,l)
);
},
{
attr = {
gradient = {
colors = (
(
(64,255),
0
),
(
(191,255),
1
)
);
end = (0.2691,0.1936);
start = (0.4192,0.8964);
};
};
closed = 1;
nodes = (
(569,794,l),
(783,794,l),
(783,329,l),
(782,329,l),
(569,530,l)
);
}
);
width = 818;
},
{
anchors = (
{
name = stroke;
pos = (534,656);
},
{
name = top;
pos = (683,794);
}
);
attr = {
color = "1";
};
layerId = m003;
shapes = (
{
attr = {
gradient = {
colors = (
(
(64,255),
0
),
(
(191,255),
1
)
);
end = (0.4877,0.9217);
start = (0.4155,-0.0037);
};
};
closed = 1;
nodes = (
(258,530,l),
(259,530,l),
(259,204,l),
(45,204,l),
(45,423,l)
);
},
{
attr = {
gradient = {
colors = (
(
(64,255),
0
),
(
(191,255),
1
)
);
end = (0.4963,0.709);
start = (-0.0147,0.445);
};
};
closed = 1;
nodes = (
(783,327,l),
(783,326,l),
(259,326,l),
(259,530,l),
(621,530,l)
);
},
{
attr = {
gradient = {
colors = (
(
(64,255),
0
),
(
(191,255),
1
)
);
end = (0.4056,0.1204);
start = (0.4192,0.8964);
};
};
closed = 1;
nodes = (
(570,0,l),
(569,0,l),
(569,326,l),
(783,326,l),
(783,107,l)
);
},
{
attr = {
gradient = {
colors = (
(
(191,255),
0
),
(
(64,255),
1
)
);
end = (0.8878,0.5878);
start = (0.0693,0.513);
};
};
closed = 1;
nodes = (
(45,203,l),
(45,204,l),
(569,204,l),
(569,0,l),
(147,0,l)
);
},
{
attr = {
gradient = {
colors = (
(
(64,255),
0
),
(
(191,255),
1
)
);
end = (0.2691,0.1936);
start = (0.4192,0.8964);
};
};
closed = 1;
nodes = (
(569,794,l),
(783,794,l),
(783,329,l),
(782,329,l),
(569,530,l)
);
}
);
width = 818;
}
);
unicode = 100;
},
{
color = 4;
glyphname = eth;
kernLeft = o;
lastChange = "2022-06-08 16:37:31 +0000";
layers = (
{
anchors = (
{
name = top;
pos = (103,500);
}
);
attr = {
color = "1";
};
layerId = "33AE93C6-B8B3-427A-A53B-F24970E840CE";
shapes = (
{
attr = {
gradient = {
colors = (
(
(191,255),
0
),
(
(64,255),
0.28154
),
(
(64,255),
0.63607
),
(
(191,255),
1
)
);
end = (0.9313,0.7093);
start = (0.0105,0.4062);
};
identifier = ID0x60000049aa00;
};
closed = 1;
nodes = (
(65,594,l),
(59,617,l),
(166,646,l),
(166,645,l),
(172,623,l)
);
},
{
attr = {
gradient = {
colors = (
(
(64,255),
0
),
(
(191,255),
1
)
);
end = (0.4877,0.9217);
start = (0.4155,-0.0037);
};
identifier = ID0x60000049aa00;
};
closed = 1;
nodes = (
(76,500,l),
(77,500,l),
(77,24,l),
(53,24,l),
(53,477,l)
);
},
{
attr = {
gradient = {
colors = (
(
(64,255),
0
),
(
(191,255),
1
)
);
end = (0.0891,0.9826);
start = (0.8367,0.0994);
};
identifier = ID0x60000049aa00;
};
closed = 1;
nodes = (
(76,730,l),
(100,730,l),
(150,477,l),
(149,477,l),
(126,500,l)
);
},
{
attr = {
gradient = {
colors = (
(
(64,255),
0
),
(
(191,255),
1
)
);
end = (0.7309,0.4062);
start = (0.0693,0.513);
};
identifier = ID0x60000049aa00;
};
closed = 1;
nodes = (
(150,477,l),
(150,476,l),
(77,476,l),
(77,500,l),
(127,500,l)
);
},
{
attr = {
gradient = {
colors = (
(
(64,255),
0
),
(
(191,255),
1
)
);
end = (0.4056,0.1204);
start = (0.4192,0.8964);
};
identifier = ID0x60000049aa00;
};
closed = 1;
nodes = (
(127,0,l),
(126,0,l),
(126,476,l),
(150,476,l),
(150,23,l)
);
},
{
attr = {
gradient = {
colors = (
(
(191,255),
0
),
(
(64,255),
1
)
);
end = (0.8878,0.5878);
start = (0.0693,0.513);
};
identifier = ID0x60000049aa00;
};
closed = 1;
nodes = (
(53,23,l),
(53,24,l),
(126,24,l),
(126,0,l),
(76,0,l)
);
}
);
width = 203;
},
{
anchors = (
{
name = top;
pos = (462,530);
}
);
attr = {
color = "1";
};
layerId = "E87239EE-82B8-404C-B23A-53843E270889";
shapes = (
{
attr = {
gradient = {
colors = (
(
(191,255),
0
),
(
(64,255),
0.21195
),
(
(64,255),
0.69947
),
(
(191,255),
1
)
);
end = (0.9498,0.912);
start = (0.0588,0.0899);
};
identifier = ID0x600000498620;
};
closed = 1;
nodes = (
(194,553,l),
(168,643,l),
(734,779,l),
(735,778,l),
(760,689,l)
);
},
{
attr = {
gradient = {
colors = (
(
(64,255),
0
),
(
(191,255),
1
)
);
end = (0.7214,0.8475);
start = (0.4155,-0.0037);
};
identifier = ID0x600000498620;
};
closed = 1;
nodes = (
(258,530,l),
(259,530,l),
(259,204,l),
(45,204,l),
(45,423,l)
);
},
{
attr = {
gradient = {
colors = (
(
(64,255),
0
),
(
(191,255),
1
)
);
end = (0.0445,0.9815);
start = (0.5608,0.4554);
};
identifier = ID0x600000498620;
};
closed = 1;
nodes = (
(299,794,l),
(533,794,l),
(783,329,l),
(782,329,l),
(439,530,l)
);
},
{
attr = {
gradient = {
colors = (
(
(64,255),
0
),
(
(191,255),
1
)
);
end = (0.7349,0.3413);
start = (0.0057,0.4476);
};
identifier = ID0x600000498620;
};
closed = 1;
nodes = (
(783,327,l),
(783,326,l),
(259,326,l),
(259,530,l),
(621,530,l)
);
},
{
attr = {
gradient = {
colors = (
(
(64,255),
0
),
(
(191,255),
1
)
);
end = (0.4056,0.1204);
start = (0.4192,0.8964);
};
identifier = ID0x600000498620;
};
closed = 1;
nodes = (
(570,0,l),
(569,0,l),
(569,326,l),
(783,326,l),
(783,107,l)
);
},
{
attr = {
gradient = {
colors = (
(
(191,255),
0
),
(
(64,255),
1
)
);
end = (0.8878,0.5878);
start = (0.0693,0.513);
};
identifier = ID0x600000498620;
};
closed = 1;
nodes = (
(45,203,l),
(45,204,l),
(569,204,l),
(569,0,l),
(147,0,l)
);
}
);
width = 818;
},
{
anchors = (
{
name = top;
pos = (462,530);
}
);
attr = {
color = "1";
};
layerId = m003;
shapes = (
{
attr = {
gradient = {
colors = (
(
(191,255),
0
),
(
(64,255),
0.21195
),
(
(64,255),
0.69947
),
(
(191,255),
1
)
);
end = (0.9498,0.912);
start = (0.0588,0.0899);
};
identifier = ID0x600000498620;
};
closed = 1;
nodes = (
(254,523,l),
(218,663,l),
(724,799,l),
(725,798,l),
(760,659,l)
);
},
{
attr = {
gradient = {
colors = (
(
(64,255),
0
),
(
(191,255),
1
)
);
end = (0.7214,0.8475);
start = (0.4155,-0.0037);
};
identifier = ID0x600000498620;
};
closed = 1;
nodes = (
(258,530,l),
(259,530,l),
(259,204,l),
(45,204,l),
(45,423,l)
);
},
{
attr = {
gradient = {
colors = (
(
(64,255),
0
),
(
(191,255),
1
)
);
end = (0.0445,0.9815);
start = (0.5608,0.4554);
};
identifier = ID0x600000498620;
};
closed = 1;
nodes = (
(299,794,l),
(533,794,l),
(783,329,l),
(782,329,l),
(439,530,l)
);
},
{
attr = {
gradient = {
colors = (
(
(64,255),
0
),
(
(191,255),
1
)
);
end = (0.7349,0.3413);
start = (0.0057,0.4476);
};
identifier = ID0x600000498620;
};
closed = 1;
nodes = (
(783,327,l),
(783,326,l),
(259,326,l),
(259,530,l),
(621,530,l)
);
},
{
attr = {
gradient = {
colors = (
(
(64,255),
0
),
(
(191,255),
1
)
);
end = (0.4056,0.1204);
start = (0.4192,0.8964);
};
identifier = ID0x600000498620;
};
closed = 1;
nodes = (
(570,0,l),
(569,0,l),
(569,326,l),
(783,326,l),
(783,107,l)
);
},
{
attr = {
gradient = {
colors = (
(
(191,255),
0
),
(
(64,255),
1
)
);
end = (0.8878,0.5878);
start = (0.0693,0.513);
};
identifier = ID0x600000498620;
};
closed = 1;
nodes = (
(45,203,l),
(45,204,l),
(569,204,l),
(569,0,l),
(147,0,l)
);
}
);
width = 818;
}
);
unicode = 240;
},
{
color = 4;
glyphname = dcroat;
kernLeft = o;
lastChange = "2022-06-06 09:42:41 +0000";
layers = (
{
attr = {
color = "1";
};
layerId = "33AE93C6-B8B3-427A-A53B-F24970E840CE";
shapes = (
{
attr = {
gradient = {
colors = (
(
(191,255),
0
),
(
(64,255),
0.5246
),
(
(64,255),
0.78843
),
(
(191,255),
1
)
);
end = (0.9558,0.4999);
start = (0.0105,0.4062);
};
identifier = ID0x600005479180;
};
closed = 1;
nodes = (
(23,576,l),
(23,600,l),
(184,600,l),
(184,599,l),
(184,576,l)
);
},
{
ref = d;
}
);
width = 197;
},
{
attr = {
color = "1";
};
layerId = "E87239EE-82B8-404C-B23A-53843E270889";
shapes = (
{
attr = {
gradient = {
colors = (
(
(191,255),
0
),
(
(64,255),
0.55503
),
(
(64,255),
0.84608
),
(
(191,255),
1
)
);
end = (0.9558,0.4999);
start = (0.0105,0.4062);
};
identifier = ID0x60000049aa00;
};
closed = 1;
nodes = (
(142,562,l),
(142,700,l),
(841,700,l),
(841,656,l),
(841,562,l)
);
},
{
ref = d;
}
);
width = 818;
},
{
attr = {
color = "1";
};
layerId = m003;
shapes = (
{
attr = {
gradient = {
colors = (
(
(191,255),
0
),
(
(64,255),
0.55503
),
(
(64,255),
0.84608
),
(
(191,255),
1
)
);
end = (0.9558,0.4999);
start = (0.0105,0.4062);
};
identifier = ID0x60000049aa00;
};
closed = 1;
nodes = (
(142,562,l),
(142,700,l),
(841,700,l),
(841,656,l),
(841,562,l)
);
},
{
ref = d;
}
);
width = 818;
}
);
unicode = 273;
},
{
color = 4;
glyphname = e;
kernLeft = o;
lastChange = "2022-06-06 09:42:41 +0000";
layers = (
{
anchors = (
{
name = bottom;
pos = (101,0);
},
{
name = top;
pos = (100,500);
}
);
attr = {
color = "1";
};
layerId = "33AE93C6-B8B3-427A-A53B-F24970E840CE";
shapes = (
{
attr = {
gradient = {
colors = (
(
(64,255),
0
),
(
(191,255),
1
)
);
end = (0.4877,0.9217);
start = (0.4757,0.0116);
};
};
closed = 1;
nodes = (
(73,500,l),
(74,500,l),
(74,24,l),
(50,24,l),
(50,477,l)
);
},
{
attr = {
gradient = {
colors = (
(
(64,255),
0
),
(
(191,255),
1
)
);
end = (0.823,0.2226);
start = (0.0693,0.513);
};
};
closed = 1;
nodes = (
(147,477,l),
(147,476,l),
(74,476,l),
(74,500,l),
(124,500,l)
);
},
{
attr = {
gradient = {
colors = (
(
(191,255),
0
),
(
(64,255),
1
)
);
end = (0.8107,0.54);
start = (0.1711,0.5271);
};
};
closed = 1;
nodes = (
(50,23,l),
(50,24,l),
(147,24,l),
(147,23,l),
(124,0,l),
(73,0,l)
);
},
{
attr = {
gradient = {
colors = (
(
(191,255),
0
),
(
(64,255),
1
)
);
end = (0.8878,0.5878);
start = (0.0693,0.513);
};
};
closed = 1;
nodes = (
(123,202,l),
(74,202,l),
(74,226,l),
(123,226,l)
);
},
{
attr = {
gradient = {
colors = (
(
(64,255),
0
),
(
(191,255),
1
)
);
end = (0.4056,0.1204);
start = (0.4192,0.8964);
};
};
closed = 1;
nodes = (
(124,202,l),
(123,202,l),
(123,476,l),
(147,476,l),
(147,225,l)
);
}
);
width = 197;
},
{
anchors = (
{
name = bottom;
pos = (431,0);
},
{
name = top;
pos = (442,530);
}
);
attr = {
color = "1";
};
layerId = "E87239EE-82B8-404C-B23A-53843E270889";
shapes = (
{
attr = {
gradient = {
colors = (
(
(64,255),
0
),
(
(191,255),
1
)
);
end = (0.6492,0.8137);
start = (0.4624,0.0944);
};
};
closed = 1;
nodes = (
(258,530,l),
(259,530,l),
(259,200,l),
(45,200,l),
(45,423,l)
);
},
{
attr = {
gradient = {
colors = (
(
(64,255),
0
),
(
(191,255),
1
)
);
end = (0.8662,0.506);
start = (0.0693,0.513);
};
};
closed = 1;
nodes = (
(812,352,l),
(812,351,l),
(259,351,l),
(259,530,l),
(705,530,l)
);
},
{
attr = {
gradient = {
colors = (
(
(191,255),
0
),
(
(64,255),
1
)
);
end = (0.8878,0.5878);
start = (0.0918,0.6131);
};
};
closed = 1;
nodes = (
(45,199,l),
(45,200,l),
(812,200,l),
(812,199,l),
(705,0,l),
(152,0,l)
);
},
{
attr = {
gradient = {
colors = (
(
(64,255),
0
),
(
(191,255),
1
)
);
end = (0.0787,0.2398);
start = (0.9373,0.6017);
};
};
closed = 1;
nodes = (
(598,221,l),
(259,220,l),
(259,331,l),
(598,331,l)
);
},
{
attr = {
gradient = {
colors = (
(
(64,255),
0
),
(
(191,255),
1
)
);
end = (0.0532,0.0946);
start = (0.1536,0.9185);
};
};
closed = 1;
nodes = (
(599,221,l),
(598,221,l),
(598,351,l),
(812,351,l),
(812,328,l)
);
}
);
width = 837;
},
{
anchors = (
{
name = bottom;
pos = (431,0);
},
{
name = top;
pos = (442,530);
}
);
attr = {
color = "1";
};
layerId = m003;
shapes = (
{
attr = {
gradient = {
colors = (
(
(64,255),
0
),
(
(191,255),
1
)
);
end = (0.6492,0.8137);
start = (0.4624,0.0944);
};
};
closed = 1;
nodes = (
(258,530,l),
(259,530,l),
(259,200,l),
(45,200,l),
(45,423,l)
);
},
{
attr = {
gradient = {
colors = (
(
(64,255),
0
),
(
(191,255),
1
)
);
end = (0.8662,0.506);
start = (0.0693,0.513);
};
};
closed = 1;
nodes = (
(812,352,l),
(812,351,l),
(259,351,l),
(259,530,l),
(705,530,l)
);
},
{
attr = {
gradient = {
colors = (
(
(191,255),
0
),
(
(64,255),
1
)
);
end = (0.8878,0.5878);
start = (0.0918,0.6131);
};
};
closed = 1;
nodes = (
(45,199,l),
(45,200,l),
(812,200,l),
(812,199,l),
(705,0,l),
(152,0,l)
);
},
{
attr = {
gradient = {
colors = (
(
(64,255),
0
),
(
(191,255),
1
)
);
end = (0.0787,0.2398);
start = (0.9373,0.6017);
};
};
closed = 1;
nodes = (
(598,221,l),
(259,220,l),
(259,331,l),
(598,331,l)
);
},
{
attr = {
gradient = {
colors = (
(
(64,255),
0
),
(
(191,255),
1
)
);
end = (0.0532,0.0946);
start = (0.1536,0.9185);
};
};
closed = 1;
nodes = (
(599,221,l),
(598,221,l),
(598,351,l),
(812,351,l),
(812,328,l)
);
}
);
width = 837;
}
);
unicode = 101;
},
{
color = 4;
glyphname = schwa;
kernLeft = z;
kernRight = o;
lastChange = "2022-06-06 09:42:41 +0000";
layers = (
{
attr = {
color = "1";
};
layerId = "33AE93C6-B8B3-427A-A53B-F24970E840CE";
shapes = (
{
attr = {
gradient = {
colors = (
(
(191,255),
0
),
(
(64,255),
1
)
);
end = (0.4877,0.9217);
start = (0.255,0.0271);
};
};
closed = 1;
nodes = (
(127,0,l),
(126,0,l),
(126,476,l),
(150,476,l),
(150,23,l)
);
},
{
attr = {
gradient = {
colors = (
(
(191,255),
0
),
(
(64,255),
1
)
);
end = (0.8878,0.5878);
start = (0.1743,0.6758);
};
};
closed = 1;
nodes = (
(53,23,l),
(53,24,l),
(126,24,l),
(126,0,l),
(76,0,l)
);
},
{
attr = {
gradient = {
colors = (
(
(64,255),
0
),
(
(191,255),
1
)
);
end = (0.8099,0.5313);
start = (0.0693,0.513);
};
};
closed = 1;
nodes = (
(150,477,l),
(150,476,l),
(53,476,l),
(53,477,l),
(53,500,l),
(127,500,l)
);
},
{
attr = {
gradient = {
colors = (
(
(64,255),
0
),
(
(191,255),
1
)
);
end = (0.8878,0.5878);
start = (0.0693,0.513);
};
};
closed = 1;
nodes = (
(77,298,l),
(126,298,l),
(126,274,l),
(77,274,l)
);
},
{
attr = {
gradient = {
colors = (
(
(191,255),
0
),
(
(64,255),
1
)
);
end = (0.4056,0.1204);
start = (0.4192,0.8964);
};
};
closed = 1;
nodes = (
(76,298,l),
(77,298,l),
(77,24,l),
(53,24,l),
(53,275,l)
);
}
);
width = 203;
},
{
attr = {
color = "1";
};
layerId = "E87239EE-82B8-404C-B23A-53843E270889";
shapes = (
{
attr = {
gradient = {
colors = (
(
(191,255),
0
),
(
(64,255),
1
)
);
end = (0.4877,0.9217);
start = (0.4155,-0.0037);
};
};
closed = 1;
nodes = (
(589,0,l),
(588,0,l),
(588,330,l),
(802,330,l),
(802,107,l)
);
},
{
attr = {
gradient = {
colors = (
(
(191,255),
0
),
(
(64,255),
1
)
);
end = (0.8878,0.5878);
start = (0.1009,0.6923);
};
};
closed = 1;
nodes = (
(35,178,l),
(35,179,l),
(588,179,l),
(588,0,l),
(142,0,l)
);
},
{
attr = {
gradient = {
colors = (
(
(64,255),
0
),
(
(191,255),
1
)
);
end = (0.8878,0.5878);
start = (0.0883,0.5001);
};
};
closed = 1;
nodes = (
(802,331,l),
(802,330,l),
(35,330,l),
(35,331,l),
(142,530,l),
(695,530,l)
);
},
{
attr = {
gradient = {
colors = (
(
(64,255),
0
),
(
(191,255),
1
)
);
end = (0.029,0.1239);
start = (0.9373,0.6017);
};
};
closed = 1;
nodes = (
(249,309,l),
(588,310,l),
(588,199,l),
(249,199,l)
);
},
{
attr = {
gradient = {
colors = (
(
(191,255),
0
),
(
(64,255),
1
)
);
end = (0.9008,0.0765);
start = (0.8382,0.7976);
};
};
closed = 1;
nodes = (
(248,309,l),
(249,309,l),
(249,179,l),
(35,179,l),
(35,202,l)
);
}
);
width = 837;
},
{
attr = {
color = "1";
};
layerId = m003;
shapes = (
{
attr = {
gradient = {
colors = (
(
(191,255),
0
),
(
(64,255),
1
)
);
end = (0.4877,0.9217);
start = (0.4155,-0.0037);
};
};
closed = 1;
nodes = (
(589,0,l),
(588,0,l),
(588,330,l),
(802,330,l),
(802,107,l)
);
},
{
attr = {
gradient = {
colors = (
(
(191,255),
0
),
(
(64,255),
1
)
);
end = (0.8878,0.5878);
start = (0.1009,0.6923);
};
};
closed = 1;
nodes = (
(35,178,l),
(35,179,l),
(588,179,l),
(588,0,l),
(142,0,l)
);
},
{
attr = {
gradient = {
colors = (
(
(64,255),
0
),
(
(191,255),
1
)
);
end = (0.8878,0.5878);
start = (0.0883,0.5001);
};
};
closed = 1;
nodes = (
(802,331,l),
(802,330,l),
(35,330,l),
(35,331,l),
(142,530,l),
(695,530,l)
);
},
{
attr = {
gradient = {
colors = (
(
(64,255),
0
),
(
(191,255),
1
)
);
end = (0.029,0.1239);
start = (0.9373,0.6017);
};
};
closed = 1;
nodes = (
(249,309,l),
(588,310,l),
(588,199,l),
(249,199,l)
);
},
{
attr = {
gradient = {
colors = (
(
(191,255),
0
),
(
(64,255),
1
)
);
end = (0.9008,0.0765);
start = (0.8382,0.7976);
};
};
closed = 1;
nodes = (
(248,309,l),
(249,309,l),
(249,179,l),
(35,179,l),
(35,202,l)
);
}
);
width = 837;
}
);
unicode = 601;
},
{
color = 6;
glyphname = f;
kernLeft = A;
lastChange = "2022-06-06 09:42:41 +0000";
layers = (
{
attr = {
color = "1";
};
layerId = "33AE93C6-B8B3-427A-A53B-F24970E840CE";
shapes = (
{
attr = {
gradient = {
colors = (
(
(64,255),
0
),
(
(191,255),
1
)
);
end = (0.2987,0.5719);
start = (0.9984,0.812);
};
};
closed = 1;
nodes = (
(51,377,l),
(128,377,l),
(128,353,l),
(74,353,l)
);
},
{
attr = {
gradient = {
colors = (
(
(64,255),
0
),
(
(191,255),
1
)
);
end = (0.7047,0.9664);
start = (0.4975,0.0797);
};
};
closed = 1;
nodes = (
(73,700,l),
(74,700,l),
(74,377,l),
(50,377,l),
(50,677,l)
);
},
{
attr = {
gradient = {
colors = (
(
(191,255),
0
),
(
(64,255),
1
)
);
end = (0.086,0.0815);
start = (0.863,0.8719);
};
};
closed = 1;
nodes = (
(157,677,l),
(157,676,l),
(74,676,l),
(74,700,l),
(134,700,l)
);
},
{
attr = {
gradient = {
colors = (
(
(64,255),
0
),
(
(191,255),
1
)
);
end = (0.4773,0.3265);
start = (0.3882,0.9444);
};
};
closed = 1;
nodes = (
(74,0,l),
(50,0,l),
(50,377,l),
(51,377,l),
(74,353,l)
);
}
);
width = 157;
},
{
attr = {
color = "1";
};
layerId = "E87239EE-82B8-404C-B23A-53843E270889";
shapes = (
{
attr = {
gradient = {
colors = (
(
(64,255),
0
),
(
(191,255),
1
)
);
end = (0.1375,0.9202);
start = (0.9984,0.812);
};
};
closed = 1;
nodes = (
(36,377,l),
(583,377,l),
(583,173,l),
(249,173,l)
);
},
{
attr = {
gradient = {
colors = (
(
(64,255),
0
),
(
(191,255),
1
)
);
end = (0.7047,0.9664);
start = (0.4975,0.0797);
};
};
closed = 1;
nodes = (
(248,703,l),
(249,703,l),
(249,377,l),
(35,377,l),
(35,596,l)
);
},
{
attr = {
gradient = {
colors = (
(
(191,255),
0
),
(
(64,255),
1
)
);
end = (0.086,0.0815);
start = (0.863,0.8719);
};
};
closed = 1;
nodes = (
(576,500,l),
(576,499,l),
(249,499,l),
(249,703,l),
(553,703,l)
);
},
{
attr = {
gradient = {
colors = (
(
(64,255),
0
),
(
(191,255),
1
)
);
end = (0.0672,0.9641);
start = (0.4641,0.0518);
};
};
closed = 1;
nodes = (
(249,0,l),
(35,0,l),
(35,377,l),
(36,377,l),
(249,173,l)
);
}
);
width = 618;
},
{
attr = {
color = "1";
};
layerId = m003;
shapes = (
{
attr = {
gradient = {
colors = (
(
(64,255),
0
),
(
(191,255),
1
)
);
end = (0.1375,0.9202);
start = (0.9984,0.812);
};
};
closed = 1;
nodes = (
(36,377,l),
(583,377,l),
(583,173,l),
(249,173,l)
);
},
{
attr = {
gradient = {
colors = (
(
(64,255),
0
),
(
(191,255),
1
)
);
end = (0.7047,0.9664);
start = (0.4975,0.0797);
};
};
closed = 1;
nodes = (
(248,703,l),
(249,703,l),
(249,377,l),
(35,377,l),
(35,596,l)
);
},
{
attr = {
gradient = {
colors = (
(
(191,255),
0
),
(
(64,255),
1
)
);
end = (0.086,0.0815);
start = (0.863,0.8719);
};
};
closed = 1;
nodes = (
(576,500,l),
(576,499,l),
(249,499,l),
(249,703,l),
(553,703,l)
);
},
{
attr = {
gradient = {
colors = (
(
(64,255),
0
),
(
(191,255),
1
)
);
end = (0.0672,0.9641);
start = (0.4641,0.0518);
};
};
closed = 1;
nodes = (
(249,0,l),
(35,0,l),
(35,377,l),
(36,377,l),
(249,173,l)
);
}
);
width = 618;
}
);
unicode = 102;
},
{
color = 1;
glyphname = g;
kernLeft = g;
kernRight = g;
lastChange = "2022-06-06 09:42:41 +0000";
layers = (
{
anchors = (
{
name = top;
pos = (110,500);
}
);
attr = {
color = "1";
};
layerId = "33AE93C6-B8B3-427A-A53B-F24970E840CE";
shapes = (
{
attr = {
gradient = {
colors = (
(
(64,255),
0
),
(
(191,255),
1
)
);
end = (0.4056,0.1204);
start = (0.4192,0.8964);
};
};
closed = 1;
nodes = (
(124,-200,l),
(123,-200,l),
(123,476,l),
(147,476,l),
(146,-177,l)
);
},
{
attr = {
gradient = {
colors = (
(
(191,255),
0
),
(
(64,255),
1
)
);
end = (0.8878,0.5878);
start = (0.0693,0.513);
};
};
closed = 1;
nodes = (
(50,23,l),
(50,24,l),
(123,24,l),
(123,0,l),
(73,0,l)
);
},
{
attr = {
gradient = {
colors = (
(
(64,255),
0
),
(
(191,255),
1
)
);
end = (0.4877,0.9217);
start = (0.4155,-0.0037);
};
};
closed = 1;
nodes = (
(73,500,l),
(74,500,l),
(74,24,l),
(50,24,l),
(50,477,l)
);
},
{
attr = {
gradient = {
colors = (
(
(64,255),
0
),
(
(191,255),
1
)
);
end = (0.8878,0.5878);
start = (0.0693,0.513);
};
};
closed = 1;
nodes = (
(74,476,l),
(74,500,l),
(187,500,l),
(187,499,l),
(164,476,l)
);
},
{
attr = {
gradient = {
colors = (
(
(191,255),
0
),
(
(64,255),
1
)
);
end = (0.7799,0.5059);
start = (-0.193,1.5214);
};
};
closed = 1;
nodes = (
(50,-177,l),
(50,-176,l),
(123,-176,l),
(123,-200,l),
(50,-200,l)
);
}
);
width = 197;
},
{
anchors = (
{
name = top;
pos = (452,530);
}
);
attr = {
color = "1";
};
layerId = "E87239EE-82B8-404C-B23A-53843E270889";
shapes = (
{
attr = {
gradient = {
colors = (
(
(191,255),
0
),
(
(64,255),
1
)
);
end = (0.1611,1.0201);
start = (0.8544,-0.1436);
};
};
closed = 1;
nodes = (
(531,-206,l),
(530,-206,l),
(530,326,l),
(744,326,l),
(744,-104,l)
);
},
{
attr = {
gradient = {
colors = (
(
(191,255),
0
),
(
(64,255),
1
)
);
end = (0.8878,0.5878);
start = (0.0693,0.513);
};
};
closed = 1;
nodes = (
(35,203,l),
(35,204,l),
(530,204,l),
(530,0,l),
(137,0,l)
);
},
{
attr = {
gradient = {
colors = (
(
(191,255),
0
),
(
(64,255),
1
)
);
end = (0.4056,0.1204);
start = (0.4192,0.8964);
};
};
closed = 1;
nodes = (
(248,530,l),
(249,530,l),
(249,204,l),
(35,204,l),
(35,423,l)
);
},
{
attr = {
gradient = {
colors = (
(
(64,255),
0
),
(
(191,255),
1
)
);
end = (0.8878,0.5878);
start = (0.0693,0.513);
};
};
closed = 1;
nodes = (
(249,326,l),
(249,530,l),
(830,530,l),
(830,529,l),
(744,326,l)
);
},
{
attr = {
gradient = {
colors = (
(
(191,255),
0
),
(
(64,255),
1
)
);
end = (0.8878,0.5878);
start = (0.0693,0.513);
};
};
closed = 1;
nodes = (
(35,-27,l),
(35,-26,l),
(530,-26,l),
(530,-206,l),
(137,-206,l)
);
}
);
width = 830;
},
{
anchors = (
{
name = top;
pos = (452,530);
}
);
attr = {
color = "1";
};
layerId = m003;
shapes = (
{
attr = {
gradient = {
colors = (
(
(191,255),
0
),
(
(64,255),
1
)
);
end = (0.1611,1.0201);
start = (0.8544,-0.1436);
};
};
closed = 1;
nodes = (
(531,-206,l),
(530,-206,l),
(530,326,l),
(744,326,l),
(744,-104,l)
);
},
{
attr = {
gradient = {
colors = (
(
(191,255),
0
),
(
(64,255),
1
)
);
end = (0.8878,0.5878);
start = (0.0693,0.513);
};
};
closed = 1;
nodes = (
(35,203,l),
(35,204,l),
(530,204,l),
(530,0,l),
(137,0,l)
);
},
{
attr = {
gradient = {
colors = (
(
(191,255),
0
),
(
(64,255),
1
)
);
end = (0.4056,0.1204);
start = (0.4192,0.8964);
};
};
closed = 1;
nodes = (
(248,530,l),
(249,530,l),
(249,204,l),
(35,204,l),
(35,423,l)
);
},
{
attr = {
gradient = {
colors = (
(
(64,255),
0
),
(
(191,255),
1
)
);
end = (0.8878,0.5878);
start = (0.0693,0.513);
};
};
closed = 1;
nodes = (
(249,326,l),
(249,530,l),
(830,530,l),
(830,529,l),
(744,326,l)
);
},
{
attr = {
gradient = {
colors = (
(
(191,255),
0
),
(
(64,255),
1
)
);
end = (0.8878,0.5878);
start = (0.0693,0.513);
};
};
closed = 1;
nodes = (
(35,-27,l),
(35,-26,l),
(530,-26,l),
(530,-206,l),
(137,-206,l)
);
}
);
width = 830;
}
);
unicode = 103;
},
{
color = 4;
glyphname = h;
kernRight = n;
lastChange = "2022-06-06 09:42:41 +0000";
layers = (
{
anchors = (
{
name = stroke;
pos = (88,573);
},
{
name = top;
pos = (140,500);
}
);
attr = {
color = "1";
};
layerId = "33AE93C6-B8B3-427A-A53B-F24970E840CE";
shapes = (
{
attr = {
gradient = {
colors = (
(
(64,255),
0
),
(
(191,255),
0.52889
),
(
(64,255),
1
)
);
end = (0.652,0.0627);
start = (0.4192,0.8964);
};
};
closed = 1;
nodes = (
(74,730,l),
(74,1,l),
(74,0,l),
(50,0,l),
(50,730,l)
);
},
{
attr = {
gradient = {
colors = (
(
(64,255),
0
),
(
(191,255),
1
)
);
end = (0.8878,0.5878);
start = (0.0693,0.513);
};
};
closed = 1;
nodes = (
(147,477,l),
(147,476,l),
(74,476,l),
(74,500,l),
(124,500,l)
);
},
{
attr = {
gradient = {
colors = (
(
(64,255),
0
),
(
(191,255),
1
)
);
end = (0.4056,0.1204);
start = (0.4192,0.8964);
};
};
closed = 1;
nodes = (
(124,-3,l),
(123,-3,l),
(123,476,l),
(147,476,l),
(147,20,l)
);
}
);
width = 197;
},
{
anchors = (
{
name = stroke;
pos = (291,653);
},
{
name = top;
pos = (508,530);
}
);
attr = {
color = "1";
};
layerId = "E87239EE-82B8-404C-B23A-53843E270889";
shapes = (
{
attr = {
gradient = {
colors = (
(
(64,255),
0
),
(
(191,255),
0.55524
),
(
(64,255),
1
)
);
end = (-0.0215,0.951);
start = (0.8544,-0.1436);
};
};
closed = 1;
nodes = (
(249,794,l),
(249,533,l),
(249,0,l),
(35,0,l),
(35,794,l)
);
},
{
attr = {
gradient = {
colors = (
(
(64,255),
0
),
(
(191,255),
1
)
);
end = (0.8878,0.5878);
start = (0.0693,0.513);
};
};
closed = 1;
nodes = (
(772,327,l),
(772,326,l),
(249,326,l),
(249,530,l),
(665,530,l)
);
},
{
attr = {
gradient = {
colors = (
(
(64,255),
0
),
(
(191,255),
1
)
);
end = (0.4056,0.1204);
start = (0.4192,0.8964);
};
};
closed = 1;
nodes = (
(559,-6,l),
(558,-6,l),
(558,326,l),
(772,326,l),
(772,41,l)
);
}
);
width = 807;
},
{
anchors = (
{
name = stroke;
pos = (291,653);
},
{
name = top;
pos = (508,530);
}
);
attr = {
color = "1";
};
layerId = m003;
shapes = (
{
attr = {
gradient = {
colors = (
(
(64,255),
0
),
(
(191,255),
0.55524
),
(
(64,255),
1
)
);
end = (-0.0215,0.951);
start = (0.8544,-0.1436);
};
};
closed = 1;
nodes = (
(249,794,l),
(249,533,l),
(249,0,l),
(35,0,l),
(35,794,l)
);
},
{
attr = {
gradient = {
colors = (
(
(64,255),
0
),
(
(191,255),
1
)
);
end = (0.8878,0.5878);
start = (0.0693,0.513);
};
};
closed = 1;
nodes = (
(772,327,l),
(772,326,l),
(249,326,l),
(249,530,l),
(665,530,l)
);
},
{
attr = {
gradient = {
colors = (
(
(64,255),
0
),
(
(191,255),
1
)
);
end = (0.4056,0.1204);
start = (0.4192,0.8964);
};
};
closed = 1;
nodes = (
(559,-6,l),
(558,-6,l),
(558,326,l),
(772,326,l),
(772,41,l)
);
}
);
width = 807;
}
);
unicode = 104;
},
{
color = 2;
glyphname = hbar;
kernRight = n;
lastChange = "2022-06-08 16:36:53 +0000";
layers = (
{
anchors = (
{
name = _stroke;
pos = (91,573);
}
);
attr = {
color = "1";
};
layerId = "33AE93C6-B8B3-427A-A53B-F24970E840CE";
shapes = (
{
attr = {
gradient = {
colors = (
(
(191,255),
0
),
(
(64,255),
0.3071
),
(
(64,255),
0.66009
),
(
(191,255),
1
)
);
end = (0.9558,0.4999);
start = (0.0105,0.4062);
};
identifier = ID0x600006069c00;
};
closed = 1;
nodes = (
(11,561,l),
(11,585,l),
(172,585,l),
(172,584,l),
(172,561,l)
);
},
{
ref = h;
}
);
width = 200;
},
{
anchors = (
{
name = _stroke;
pos = (291,653);
}
);
attr = {
color = "1";
};
layerId = "E87239EE-82B8-404C-B23A-53843E270889";
shapes = (
{
attr = {
gradient = {
colors = (
(
(191,255),
0
),
(
(64,255),
0.40456
),
(
(64,255),
0.5102
),
(
(128,255),
1
)
);
end = (0.9593,0.4883);
start = (0.0469,0.1884);
};
identifier = ID0x600006069dc0;
};
closed = 1;
nodes = (
(-6,561,l),
(-6,699,l),
(588,699,l),
(588,698,l),
(588,561,l)
);
},
{
ref = h;
}
);
width = 807;
},
{
anchors = (
{
name = _stroke;
pos = (291,653);
}
);
attr = {
color = "1";
};
layerId = m003;
shapes = (
{
attr = {
gradient = {
colors = (
(
(191,255),
0
),
(
(64,255),
0.40456
),
(
(64,255),
0.5102
),
(
(128,255),
1
)
);
end = (0.9593,0.4883);
start = (0.0469,0.1884);
};
identifier = ID0x6000060997a0;
};
closed = 1;
nodes = (
(-6,561,l),
(-6,745,l),
(588,745,l),
(588,744,l),
(588,561,l)
);
},
{
ref = h;
}
);
width = 807;
}
);
unicode = 295;
},
{
color = 4;
glyphname = i;
kernLeft = i;
kernRight = i;
lastChange = "2022-06-06 09:42:41 +0000";
layers = (
{
anchors = (
{
name = bottom;
pos = (62,0);
}
);
attr = {
color = "1";
};
layerId = "33AE93C6-B8B3-427A-A53B-F24970E840CE";
shapes = (
{
attr = {
gradient = {
colors = (
(
(64,255),
0
),
(
(191,255),
1
)
);
end = (0.4877,0.9217);
start = (0.4155,-0.0037);
};
};
closed = 1;
nodes = (
(73,503,l),
(74,503,l),
(74,0,l),
(50,0,l),
(50,480,l)
);
},
{
attr = {
gradient = {
colors = (
(
(64,255),
0
),
(
(191,255),
1
)
);
end = (0.5297,0.2101);
start = (0.7085,0.9567);
};
};
closed = 1;
nodes = (
(51,542,l),
(50,542,l),
(50,615,l),
(74,615,l),
(74,565,l)
);
}
);
width = 124;
},
{
anchors = (
{
name = bottom;
pos = (141,0);
}
);
attr = {
color = "1";
};
layerId = "E87239EE-82B8-404C-B23A-53843E270889";
shapes = (
{
attr = {
gradient = {
colors = (
(
(64,255),
0
),
(
(191,255),
1
)
);
end = (0.7154,0.8978);
start = (0.4155,-0.0037);
};
};
closed = 1;
nodes = (
(238,500,l),
(239,503,l),
(239,0,l),
(45,0,l),
(45,393,l)
);
},
{
attr = {
gradient = {
colors = (
(
(191,255),
0
),
(
(64,255),
1
)
);
end = (0.6058,0.9102);
start = (0.264,0.171);
};
};
closed = 1;
nodes = (
(46,469,l),
(45,469,l),
(45,682,l),
(239,682,l),
(239,576,l)
);
}
);
width = 284;
},
{
anchors = (
{
name = bottom;
pos = (141,0);
}
);
attr = {
color = "1";
};
layerId = m003;
shapes = (
{
attr = {
gradient = {
colors = (
(
(64,255),
0
),
(
(191,255),
1
)
);
end = (0.7154,0.8978);
start = (0.4155,-0.0037);
};
};
closed = 1;
nodes = (
(238,500,l),
(239,503,l),
(239,0,l),
(45,0,l),
(45,393,l)
);
},
{
attr = {
gradient = {
colors = (
(
(191,255),
0
),
(
(64,255),
1
)
);
end = (0.6058,0.9102);
start = (0.264,0.171);
};
};
closed = 1;
nodes = (
(46,469,l),
(45,469,l),
(45,682,l),
(239,682,l),
(239,576,l)
);
}
);
width = 284;
}
);
metricRight = "=|";
unicode = 105;
},
{
color = 4;
glyphname = idotless;
kernLeft = i;
kernRight = i;
lastChange = "2022-06-06 09:42:41 +0000";
layers = (
{
anchors = (
{
name = bottom;
pos = (65,0);
},
{
name = top;
pos = (63,500);
}
);
attr = {
color = "1";
};
layerId = "33AE93C6-B8B3-427A-A53B-F24970E840CE";
shapes = (
{
attr = {
gradient = {
colors = (
(
(64,255),
0
),
(
(191,255),
1
)
);
end = (0.4877,0.9217);
start = (0.4155,-0.0037);
};
};
closed = 1;
nodes = (
(76,503,l),
(77,503,l),
(77,0,l),
(53,0,l),
(53,480,l)
);
}
);
width = 130;
},
{
anchors = (
{
name = bottom;
pos = (141,0);
},
{
name = top;
pos = (149,530);
}
);
attr = {
color = "1";
};
layerId = "E87239EE-82B8-404C-B23A-53843E270889";
shapes = (
{
attr = {
gradient = {
colors = (
(
(64,255),
0
),
(
(191,255),
1
)
);
end = (0.7154,0.8978);
start = (0.4155,-0.0037);
};
};
closed = 1;
nodes = (
(238,530,l),
(239,503,l),
(239,0,l),
(45,0,l),
(45,530,l)
);
}
);
width = 284;
},
{
anchors = (
{
name = bottom;
pos = (141,0);
},
{
name = top;
pos = (149,530);
}
);
attr = {
color = "1";
};
layerId = m003;
shapes = (
{
attr = {
gradient = {
colors = (
(
(64,255),
0
),
(
(191,255),
1
)
);
end = (0.7154,0.8978);
start = (0.4155,-0.0037);
};
};
closed = 1;
nodes = (
(238,530,l),
(239,503,l),
(239,0,l),
(45,0,l),
(45,530,l)
);
}
);
width = 284;
}
);
unicode = 305;
},
{
color = 4;
glyphname = ibreve;
lastChange = "2022-06-06 09:42:41 +0000";
layers = (
{
attr = {
color = "1";
};
layerId = "33AE93C6-B8B3-427A-A53B-F24970E840CE";
shapes = (
{
pos = (6,0);
ref = idotless;
},
{
attr = {
gradient = {
colors = (
(
(64,255),
0
),
(
(191,255),
1
)
);
end = (0.1193,1.0055);
start = (0.8636,0.0217);
};
identifier = ID0x600000c5e220;
};
closed = 1;
nodes = (
(32,612,l),
(10,661,l),
(10,662,l),
(36,662,l),
(55,612,l)
);
},
{
attr = {
gradient = {
colors = (
(
(64,255),
0
),
(
(191,255),
1
)
);
end = (0.499,0.9432);
start = (0.493,0.009);
};
identifier = ID0x600000c5e220;
};
closed = 1;
nodes = (
(100,662,l),
(126,662,l),
(126,661,l),
(104,612,l),
(81,612,l)
);
},
{
attr = {
gradient = {
colors = (
(
(191,255),
0
),
(
(64,255),
1
)
);
end = (0.9148,0.7304);
start = (0.127,0.5525);
};
identifier = ID0x600000c5e220;
};
closed = 1;
nodes = (
(42,590,l),
(32,612,l),
(104,612,l),
(94,590,l)
);
}
);
width = 136;
},
{
attr = {
color = "1";
};
layerId = "E87239EE-82B8-404C-B23A-53843E270889";
shapes = (
{
pos = (41,0);
ref = idotless;
},
{
attr = {
gradient = {
colors = (
(
(191,255),
0
),
(
(64,255),
1
)
);
end = (0.6431,0.013);
start = (0.411,0.9896);
};
identifier = ID0x600000c5e3e0;
};
closed = 1;
nodes = (
(25,700,l),
(-22,778,l),
(-22,780,l),
(114,780,l),
(161,700,l)
);
},
{
attr = {
gradient = {
colors = (
(
(191,255),
0
),
(
(64,255),
1
)
);
end = (0.5849,0.0544);
start = (0.2871,0.9626);
};
identifier = ID0x600000c5e3e0;
};
closed = 1;
nodes = (
(263,780,l),
(389,780,l),
(389,779,l),
(342,700,l),
(216,700,l)
);
},
{
attr = {
gradient = {
colors = (
(
(64,255),
0
),
(
(191,255),
1
)
);
end = (0.1437,0.437);
start = (0.8289,0.0435);
};
identifier = ID0x600000c5e3e0;
};
closed = 1;
nodes = (
(86,598,l),
(25,700,l),
(342,700,l),
(281,598,l)
);
}
);
width = 367;
},
{
attr = {
color = "1";
};
layerId = m003;
shapes = (
{
pos = (41,0);
ref = idotless;
},
{
attr = {
gradient = {
colors = (
(
(191,255),
0
),
(
(64,255),
1
)
);
end = (0.6431,0.013);
start = (0.411,0.9896);
};
identifier = ID0x600000c5e3e0;
};
closed = 1;
nodes = (
(25,700,l),
(-22,778,l),
(-22,780,l),
(114,780,l),
(161,700,l)
);
},
{
attr = {
gradient = {
colors = (
(
(191,255),
0
),
(
(64,255),
1
)
);
end = (0.5849,0.0544);
start = (0.2871,0.9626);
};
identifier = ID0x600000c5e3e0;
};
closed = 1;
nodes = (
(263,780,l),
(389,780,l),
(389,779,l),
(342,700,l),
(216,700,l)
);
},
{
attr = {
gradient = {
colors = (
(
(64,255),
0
),
(
(191,255),
1
)
);
end = (0.1437,0.437);
start = (0.8289,0.0435);
};
identifier = ID0x600000c5e3e0;
};
closed = 1;
nodes = (
(86,598,l),
(25,700,l),
(342,700,l),
(281,598,l)
);
}
);
width = 367;
}
);
unicode = 301;
},
{
color = 4;
glyphname = idblgrave;
lastChange = "2022-06-06 09:42:41 +0000";
layers = (
{
attr = {
color = "1";
};
layerId = "33AE93C6-B8B3-427A-A53B-F24970E840CE";
shapes = (
{
pos = (19,0);
ref = idotless;
},
{
attr = {
gradient = {
colors = (
(
(191,255),
0
),
(
(64,255),
1
)
);
end = (0.7053,1.0789);
start = (0.3543,0.0329);
};
identifier = ID0x600000c5e920;
};
closed = 1;
nodes = (
(104,570,l),
(72,699,l),
(72,700,l),
(103,700,l),
(128,570,l)
);
},
{
attr = {
gradient = {
colors = (
(
(191,255),
0
),
(
(64,255),
1
)
);
end = (0.7053,1.0789);
start = (0.3543,0.0329);
};
identifier = ID0x600000c5e920;
};
closed = 1;
nodes = (
(52,570,l),
(20,699,l),
(20,700,l),
(51,700,l),
(76,570,l)
);
}
);
width = 149;
},
{
attr = {
color = "1";
};
layerId = "E87239EE-82B8-404C-B23A-53843E270889";
shapes = (
{
pos = (10,0);
ref = idotless;
},
{
attr = {
gradient = {
colors = (
(
(191,255),
0
),
(
(64,255),
1
)
);
end = (0.7053,1.0789);
start = (0.3543,0.0329);
};
identifier = ID0x600000c5eae0;
};
closed = 1;
nodes = (
(196,590,l),
(91,819,l),
(91,820,l),
(252,820,l),
(297,590,l)
);
},
{
attr = {
gradient = {
colors = (
(
(191,255),
0
),
(
(64,255),
1
)
);
end = (0.7053,1.0789);
start = (0.3543,0.0329);
};
identifier = ID0x600000c5eae0;
};
closed = 1;
nodes = (
(26,590,l),
(-79,819,l),
(-79,820,l),
(82,820,l),
(127,590,l)
);
}
);
width = 304;
},
{
attr = {
color = "1";
};
layerId = m003;
shapes = (
{
pos = (10,0);
ref = idotless;
},
{
attr = {
gradient = {
colors = (
(
(191,255),
0
),
(
(64,255),
1
)
);
end = (0.7053,1.0789);
start = (0.3543,0.0329);
};
identifier = ID0x600000c5eae0;
};
closed = 1;
nodes = (
(196,590,l),
(91,819,l),
(91,820,l),
(252,820,l),
(297,590,l)
);
},
{
attr = {
gradient = {
colors = (
(
(191,255),
0
),
(
(64,255),
1
)
);
end = (0.7053,1.0789);
start = (0.3543,0.0329);
};
identifier = ID0x600000c5eae0;
};
closed = 1;
nodes = (
(26,590,l),
(-79,819,l),
(-79,820,l),
(82,820,l),
(127,590,l)
);
}
);
width = 304;
}
);
unicode = 521;
},
{
color = 4;
glyphname = idieresis;
lastChange = "2022-06-06 09:42:41 +0000";
layers = (
{
attr = {
color = "1";
};
layerId = "33AE93C6-B8B3-427A-A53B-F24970E840CE";
shapes = (
{
ref = idotless;
},
{
attr = {
gradient = {
colors = (
(
(191,255),
0
),
(
(64,255),
1
)
);
end = (0.425,-0.0572);
start = (0.6213,1.0235);
};
identifier = ID0x600000c5eca0;
};
closed = 1;
nodes = (
(20,601,l),
(20,635,l),
(51,635,l),
(51,601,l)
);
},
{
attr = {
gradient = {
colors = (
(
(191,255),
0
),
(
(64,255),
1
)
);
end = (0.3707,-0.0282);
start = (0.6727,0.9761);
};
identifier = ID0x600000c5eca0;
};
closed = 1;
nodes = (
(75,601,l),
(75,635,l),
(106,635,l),
(106,601,l)
);
}
);
width = 130;
},
{
attr = {
color = "1";
};
layerId = "E87239EE-82B8-404C-B23A-53843E270889";
shapes = (
{
pos = (11,0);
ref = idotless;
},
{
attr = {
gradient = {
colors = (
(
(191,255),
0
),
(
(64,255),
1
)
);
end = (0.651,1.0683);
start = (0.483,0.056);
};
identifier = ID0x600000c5ee60;
};
closed = 1;
nodes = (
(-22,640,l),
(-22,772,l),
(134,772,l),
(134,640,l)
);
},
{
attr = {
gradient = {
colors = (
(
(191,255),
0
),
(
(64,255),
1
)
);
end = (0.7053,1.0789);
start = (0.3543,0.0329);
};
identifier = ID0x600000c5ee60;
};
closed = 1;
nodes = (
(166,640,l),
(166,772,l),
(322,772,l),
(322,640,l)
);
}
);
width = 300;
},
{
attr = {
color = "1";
};
layerId = m003;
shapes = (
{
pos = (11,0);
ref = idotless;
},
{
attr = {
gradient = {
colors = (
(
(191,255),
0
),
(
(64,255),
1
)
);
end = (0.651,1.0683);
start = (0.483,0.056);
};
identifier = ID0x600000c5ee60;
};
closed = 1;
nodes = (
(-22,640,l),
(-22,772,l),
(134,772,l),
(134,640,l)
);
},
{
attr = {
gradient = {
colors = (
(
(191,255),
0
),
(
(64,255),
1
)
);
end = (0.7053,1.0789);
start = (0.3543,0.0329);
};
identifier = ID0x600000c5ee60;
};
closed = 1;
nodes = (
(166,640,l),
(166,772,l),
(322,772,l),
(322,640,l)
);
}
);
width = 300;
}
);
unicode = 239;
},
{
color = 4;
glyphname = ihookabove;
lastChange = "2022-06-06 09:42:41 +0000";
layers = (
{
attr = {
color = "1";
};
layerId = "33AE93C6-B8B3-427A-A53B-F24970E840CE";
shapes = (
{
ref = idotless;
},
{
attr = {
gradient = {
colors = (
(
(64,255),
0
),
(
(191,255),
1
)
);
end = (0.0416,0.8836);
start = (0.6428,0.1867);
};
identifier = ID0x600000c5faa0;
};
closed = 1;
nodes = (
(28,654,l),
(28,678,l),
(87,678,l),
(105,655,l),
(105,654,l)
);
},
{
attr = {
gradient = {
colors = (
(
(191,255),
0
),
(
(64,255),
1
)
);
end = (0.2224,-0.0167);
start = (0.6536,0.9461);
};
identifier = ID0x600000c5faa0;
};
closed = 1;
nodes = (
(49,583,l),
(49,584,l),
(87,678,l),
(105,655,l),
(105,654,l),
(72,583,l)
);
}
);
width = 130;
},
{
attr = {
color = "1";
};
layerId = "E87239EE-82B8-404C-B23A-53843E270889";
shapes = (
{
ref = idotless;
},
{
attr = {
gradient = {
colors = (
(
(64,255),
0
),
(
(191,255),
1
)
);
end = (0.0611,0.8551);
start = (0.4734,0.0581);
};
identifier = ID0x600000c5fc60;
};
closed = 1;
nodes = (
(19,746,l),
(19,860,l),
(170,860,l),
(267,747,l),
(267,746,l)
);
},
{
attr = {
gradient = {
colors = (
(
(191,255),
0
),
(
(64,255),
1
)
);
end = (0.372,0.0258);
start = (0.6171,0.8745);
};
identifier = ID0x600000c5fc60;
};
closed = 1;
nodes = (
(89,586,l),
(88,586,l),
(170,860,l),
(267,747,l),
(267,746,l),
(186,586,l)
);
}
);
width = 284;
},
{
attr = {
color = "1";
};
layerId = m003;
shapes = (
{
ref = idotless;
},
{
attr = {
gradient = {
colors = (
(
(64,255),
0
),
(
(191,255),
1
)
);
end = (0.0611,0.8551);
start = (0.4734,0.0581);
};
identifier = ID0x600000c5fc60;
};
closed = 1;
nodes = (
(19,746,l),
(19,860,l),
(170,860,l),
(267,747,l),
(267,746,l)
);
},
{
attr = {
gradient = {
colors = (
(
(191,255),
0
),
(
(64,255),
1
)
);
end = (0.372,0.0258);
start = (0.6171,0.8745);
};
identifier = ID0x600000c5fc60;
};
closed = 1;
nodes = (
(89,586,l),
(88,586,l),
(170,860,l),
(267,747,l),
(267,746,l),
(186,586,l)
);
}
);
width = 284;
}
);
unicode = 7881;
},
{
color = 4;
glyphname = iinvertedbreve;
lastChange = "2022-06-06 09:42:41 +0000";
layers = (
{
attr = {
color = "1";
};
layerId = "33AE93C6-B8B3-427A-A53B-F24970E840CE";
shapes = (
{
ref = idotless;
},
{
attr = {
gradient = {
colors = (
(
(191,255),
0
),
(
(64,255),
1
)
);
end = (0.1193,1.0055);
start = (0.8636,0.0217);
};
identifier = ID0x600000c5e220;
};
closed = 1;
nodes = (
(30,590,l),
(4,590,l),
(4,591,l),
(26,640,l),
(49,640,l)
);
},
{
attr = {
gradient = {
colors = (
(
(191,255),
0
),
(
(64,255),
1
)
);
end = (0.499,0.9432);
start = (0.493,0.009);
};
identifier = ID0x600000c5e220;
};
closed = 1;
nodes = (
(98,640,l),
(120,591,l),
(120,590,l),
(94,590,l),
(75,640,l)
);
},
{
attr = {
gradient = {
colors = (
(
(191,255),
0
),
(
(64,255),
1
)
);
end = (0.9148,0.7304);
start = (0.127,0.5525);
};
identifier = ID0x600000c5e220;
};
closed = 1;
nodes = (
(98,640,l),
(26,640,l),
(36,662,l),
(88,662,l)
);
}
);
width = 130;
},
{
attr = {
color = "1";
};
layerId = "E87239EE-82B8-404C-B23A-53843E270889";
shapes = (
{
pos = (41,0);
ref = idotless;
},
{
attr = {
gradient = {
colors = (
(
(64,255),
0
),
(
(191,255),
1
)
);
end = (0.6431,0.013);
start = (0.411,0.9896);
};
identifier = ID0x600000c5e3e0;
};
closed = 1;
nodes = (
(114,598,l),
(-22,598,l),
(-22,600,l),
(25,678,l),
(161,678,l)
);
},
{
attr = {
gradient = {
colors = (
(
(64,255),
0
),
(
(191,255),
1
)
);
end = (0.5849,0.0544);
start = (0.2871,0.9626);
};
identifier = ID0x600000c5e3e0;
};
closed = 1;
nodes = (
(342,678,l),
(389,599,l),
(389,598,l),
(263,598,l),
(216,678,l)
);
},
{
attr = {
gradient = {
colors = (
(
(64,255),
0
),
(
(191,255),
1
)
);
end = (0.1437,0.437);
start = (0.8289,0.0435);
};
identifier = ID0x600000c5e3e0;
};
closed = 1;
nodes = (
(342,678,l),
(25,678,l),
(86,780,l),
(281,780,l)
);
}
);
width = 367;
},
{
attr = {
color = "1";
};
layerId = m003;
shapes = (
{
pos = (41,0);
ref = idotless;
},
{
attr = {
gradient = {
colors = (
(
(64,255),
0
),
(
(191,255),
1
)
);
end = (0.6431,0.013);
start = (0.411,0.9896);
};
identifier = ID0x600000c5e3e0;
};
closed = 1;
nodes = (
(114,598,l),
(-22,598,l),
(-22,600,l),
(25,678,l),
(161,678,l)
);
},
{
attr = {
gradient = {
colors = (
(
(64,255),
0
),
(
(191,255),
1
)
);
end = (0.5849,0.0544);
start = (0.2871,0.9626);
};
identifier = ID0x600000c5e3e0;
};
closed = 1;
nodes = (
(342,678,l),
(389,599,l),
(389,598,l),
(263,598,l),
(216,678,l)
);
},
{
attr = {
gradient = {
colors = (
(
(64,255),
0
),
(
(191,255),
1
)
);
end = (0.1437,0.437);
start = (0.8289,0.0435);
};
identifier = ID0x600000c5e3e0;
};
closed = 1;
nodes = (
(342,678,l),
(25,678,l),
(86,780,l),
(281,780,l)
);
}
);
width = 367;
}
);
unicode = 523;
},
{
color = 4;
glyphname = imacron;
lastChange = "2022-06-06 09:42:41 +0000";
layers = (
{
attr = {
color = "1";
};
layerId = "33AE93C6-B8B3-427A-A53B-F24970E840CE";
shapes = (
{
ref = idotless;
},
{
attr = {
gradient = {
colors = (
(
(191,255),
0
),
(
(64,255),
1
)
);
end = (0.9584,-0.3023);
start = (0.0715,1.2204);
};
identifier = ID0x60000331f480;
};
closed = 1;
nodes = (
(8,611,l),
(8,635,l),
(118,635,l),
(118,611,l)
);
}
);
width = 130;
},
{
attr = {
color = "1";
};
layerId = "E87239EE-82B8-404C-B23A-53843E270889";
shapes = (
{
ref = idotless;
},
{
attr = {
gradient = {
colors = (
(
(191,255),
0
),
(
(64,255),
1
)
);
end = (0.7053,1.0789);
start = (0.3543,0.0329);
};
identifier = ID0x60000062a140;
};
closed = 1;
nodes = (
(-36,638,l),
(-36,750,l),
(320,750,l),
(320,638,l)
);
}
);
width = 284;
},
{
attr = {
color = "1";
};
layerId = m003;
shapes = (
{
ref = idotless;
},
{
attr = {
gradient = {
colors = (
(
(191,255),
0
),
(
(64,255),
1
)
);
end = (0.7053,1.0789);
start = (0.3543,0.0329);
};
identifier = ID0x60000062a140;
};
closed = 1;
nodes = (
(-36,638,l),
(-36,750,l),
(320,750,l),
(320,638,l)
);
}
);
width = 284;
}
);
unicode = 299;
},
{
color = 4;
glyphname = itilde;
lastChange = "2022-06-06 09:42:41 +0000";
layers = (
{
attr = {
color = "1";
};
layerId = "33AE93C6-B8B3-427A-A53B-F24970E840CE";
shapes = (
{
ref = idotless;
},
{
attr = {
gradient = {
colors = (
(
(64,255),
0
),
(
(191,255),
1
)
);
end = (0.2296,0.0026);
start = (0.9852,0.6189);
};
identifier = ID0x600000c589a0;
};
closed = 1;
nodes = (
(23,629,l),
(43,630,l),
(43,581,l),
(23,581,l)
);
},
{
attr = {
gradient = {
colors = (
(
(64,255),
0
),
(
(191,255),
1
)
);
end = (0.8068,0.953);
start = (0.1553,0.418);
};
identifier = ID0x600000c589a0;
};
closed = 1;
nodes = (
(104,593,l),
(84,593,l),
(84,642,l),
(104,642,l)
);
},
{
attr = {
gradient = {
colors = (
(
(64,255),
0
),
(
(191,255),
1
)
);
end = (0.4877,0.9217);
start = (0.4155,-0.0037);
};
identifier = ID0x600000c589a0;
};
closed = 1;
nodes = (
(23,630,l),
(43,639,l),
(44,639,l),
(103,593,l),
(103,592,l),
(83,583,l),
(82,583,l),
(23,629,l)
);
}
);
width = 130;
},
{
attr = {
color = "1";
};
layerId = "E87239EE-82B8-404C-B23A-53843E270889";
shapes = (
{
pos = (32,0);
ref = idotless;
},
{
attr = {
gradient = {
colors = (
(
(64,255),
0
),
(
(191,255),
1
)
);
end = (0.2296,0.0026);
start = (0.9852,0.6189);
};
identifier = ID0x600000c58b60;
};
closed = 1;
nodes = (
(18,722,l),
(123,713,l),
(123,603,l),
(18,603,l)
);
},
{
attr = {
gradient = {
colors = (
(
(64,255),
0
),
(
(191,255),
1
)
);
end = (0.8068,0.953);
start = (0.1553,0.418);
};
identifier = ID0x600000c58b60;
};
closed = 1;
nodes = (
(316,640,l),
(211,640,l),
(211,759,l),
(316,759,l)
);
},
{
attr = {
gradient = {
colors = (
(
(64,255),
0
),
(
(191,255),
1
)
);
end = (0.4877,0.9217);
start = (0.4155,-0.0037);
};
identifier = ID0x600000c58b60;
};
closed = 1;
nodes = (
(18,723,l),
(106,762,l),
(107,762,l),
(316,640,l),
(316,639,l),
(228,600,l),
(227,600,l),
(18,722,l)
);
}
);
width = 334;
},
{
attr = {
color = "1";
};
layerId = m003;
shapes = (
{
pos = (32,0);
ref = idotless;
},
{
attr = {
gradient = {
colors = (
(
(64,255),
0
),
(
(191,255),
1
)
);
end = (0.2296,0.0026);
start = (0.9852,0.6189);
};
identifier = ID0x600000c58b60;
};
closed = 1;
nodes = (
(18,722,l),
(123,713,l),
(123,603,l),
(18,603,l)
);
},
{
attr = {
gradient = {
colors = (
(
(64,255),
0
),
(
(191,255),
1
)
);
end = (0.8068,0.953);
start = (0.1553,0.418);
};
identifier = ID0x600000c58b60;
};
closed = 1;
nodes = (
(316,640,l),
(211,640,l),
(211,759,l),
(316,759,l)
);
},
{
attr = {
gradient = {
colors = (
(
(64,255),
0
),
(
(191,255),
1
)
);
end = (0.4877,0.9217);
start = (0.4155,-0.0037);
};
identifier = ID0x600000c58b60;
};
closed = 1;
nodes = (
(18,723,l),
(106,762,l),
(107,762,l),
(316,640,l),
(316,639,l),
(228,600,l),
(227,600,l),
(18,722,l)
);
}
);
width = 334;
}
);
unicode = 297;
},
{
color = 1;
glyphname = j;
kernLeft = j;
kernRight = j;
lastChange = "2022-06-06 09:42:41 +0000";
layers = (
{
attr = {
color = "1";
};
layerId = "33AE93C6-B8B3-427A-A53B-F24970E840CE";
shapes = (
{
attr = {
gradient = {
colors = (
(
(64,255),
0
),
(
(191,255),
0.52947
),
(
(64,255),
1
)
);
end = (0.6914,1.0016);
start = (0.2834,0.0985);
};
};
closed = 1;
nodes = (
(73,503,l),
(74,503,l),
(74,-177,l),
(51,-200,l),
(50,-200,l),
(50,480,l)
);
},
{
attr = {
gradient = {
colors = (
(
(64,255),
0
),
(
(191,255),
1
)
);
end = (0.5297,0.2101);
start = (0.7085,0.9567);
};
};
closed = 1;
nodes = (
(51,542,l),
(50,542,l),
(50,615,l),
(74,615,l),
(74,565,l)
);
},
{
attr = {
gradient = {
colors = (
(
(64,255),
0
),
(
(191,255),
1
)
);
end = (0.6339,0.9005);
start = (0.319,0.1049);
};
};
closed = 1;
nodes = (
(-12,-200,l),
(-12,-176,l),
(50,-176,l),
(50,-177,l),
(50,-200,l)
);
}
);
width = 124;
},
{
attr = {
color = "1";
};
layerId = "E87239EE-82B8-404C-B23A-53843E270889";
shapes = (
{
attr = {
gradient = {
colors = (
(
(64,255),
0
),
(
(191,255),
0.52921
),
(
(64,255),
1
)
);
end = (0.3878,0.9806);
start = (0.4539,0.1459);
};
};
closed = 1;
nodes = (
(255,500,l),
(256,503,l),
(256,-99,l),
(63,-206,l),
(62,-206,l),
(62,393,l)
);
},
{
attr = {
gradient = {
colors = (
(
(191,255),
0
),
(
(64,255),
1
)
);
end = (0.6058,0.9102);
start = (0.264,0.171);
};
};
closed = 1;
nodes = (
(63,469,l),
(62,469,l),
(62,682,l),
(256,682,l),
(256,576,l)
);
},
{
attr = {
gradient = {
colors = (
(
(64,255),
0
),
(
(191,255),
1
)
);
end = (0.7802,0.9605);
start = (0.4958,0.0704);
};
};
closed = 1;
nodes = (
(-150,-206,l),
(-150,-26,l),
(62,-26,l),
(62,-27,l),
(62,-206,l)
);
}
);
width = 301;
},
{
attr = {
color = "1";
};
layerId = m003;
shapes = (
{
attr = {
gradient = {
colors = (
(
(64,255),
0
),
(
(191,255),
0.52921
),
(
(64,255),
1
)
);
end = (0.3878,0.9806);
start = (0.4539,0.1459);
};
};
closed = 1;
nodes = (
(255,500,l),
(256,503,l),
(256,-99,l),
(63,-206,l),
(62,-206,l),
(62,393,l)
);
},
{
attr = {
gradient = {
colors = (
(
(191,255),
0
),
(
(64,255),
1
)
);
end = (0.6058,0.9102);
start = (0.264,0.171);
};
};
closed = 1;
nodes = (
(63,469,l),
(62,469,l),
(62,682,l),
(256,682,l),
(256,576,l)
);
},
{
attr = {
gradient = {
colors = (
(
(64,255),
0
),
(
(191,255),
1
)
);
end = (0.7802,0.9605);
start = (0.4958,0.0704);
};
};
closed = 1;
nodes = (
(-150,-206,l),
(-150,-26,l),
(62,-26,l),
(62,-27,l),
(62,-206,l)
);
}
);
width = 301;
}
);
unicode = 106;
},
{
color = 4;
glyphname = jdotless;
kernLeft = j;
kernRight = j;
lastChange = "2022-06-06 09:42:41 +0000";
layers = (
{
anchors = (
{
name = top;
pos = (63,500);
}
);
attr = {
color = "1";
};
layerId = "33AE93C6-B8B3-427A-A53B-F24970E840CE";
shapes = (
{
attr = {
gradient = {
colors = (
(
(64,255),
0
),
(
(191,255),
0.52947
),
(
(64,255),
1
)
);
end = (0.6914,1.0016);
start = (0.2834,0.0985);
};
};
closed = 1;
nodes = (
(76,503,l),
(77,503,l),
(77,-177,l),
(54,-200,l),
(53,-200,l),
(53,480,l)
);
},
{
attr = {
gradient = {
colors = (
(
(64,255),
0
),
(
(191,255),
1
)
);
end = (0.6339,0.9005);
start = (0.319,0.1049);
};
};
closed = 1;
nodes = (
(-9,-200,l),
(-9,-176,l),
(53,-176,l),
(53,-177,l),
(53,-200,l)
);
}
);
width = 130;
},
{
anchors = (
{
name = top;
pos = (159,530);
}
);
attr = {
color = "1";
};
layerId = "E87239EE-82B8-404C-B23A-53843E270889";
shapes = (
{
attr = {
gradient = {
colors = (
(
(64,255),
0
),
(
(191,255),
0.52921
),
(
(64,255),
1
)
);
end = (0.3878,0.9806);
start = (0.4539,0.1459);
};
};
closed = 1;
nodes = (
(255,530,l),
(256,530,l),
(256,-93,l),
(63,-200,l),
(62,-200,l),
(62,530,l)
);
},
{
attr = {
gradient = {
colors = (
(
(64,255),
0
),
(
(191,255),
1
)
);
end = (0.7802,0.9605);
start = (0.4958,0.0704);
};
};
closed = 1;
nodes = (
(-150,-200,l),
(-150,4,l),
(62,4,l),
(62,3,l),
(62,-200,l)
);
}
);
width = 301;
},
{
anchors = (
{
name = top;
pos = (159,530);
}
);
attr = {
color = "1";
};
layerId = m003;
shapes = (
{
attr = {
gradient = {
colors = (
(
(64,255),
0
),
(
(191,255),
0.52921
),
(
(64,255),
1
)
);
end = (0.3878,0.9806);
start = (0.4539,0.1459);
};
};
closed = 1;
nodes = (
(255,530,l),
(256,530,l),
(256,-93,l),
(63,-200,l),
(62,-200,l),
(62,530,l)
);
},
{
attr = {
gradient = {
colors = (
(
(64,255),
0
),
(
(191,255),
1
)
);
end = (0.7802,0.9605);
start = (0.4958,0.0704);
};
};
closed = 1;
nodes = (
(-150,-200,l),
(-150,4,l),
(62,4,l),
(62,3,l),
(62,-200,l)
);
}
);
width = 301;
}
);
metricLeft = j;
unicode = 567;
},
{
color = 3;
glyphname = k;
kernLeft = H;
kernRight = k;
lastChange = "2022-06-06 09:42:41 +0000";
layers = (
{
anchors = (
{
name = bottom;
pos = (112,0);
}
);
attr = {
color = "1";
};
layerId = "33AE93C6-B8B3-427A-A53B-F24970E840CE";
shapes = (
{
attr = {
gradient = {
colors = (
(
(64,255),
0
),
(
(191,255),
0.52889
),
(
(64,255),
1
)
);
end = (0.652,0.0627);
start = (0.4192,0.8964);
};
};
closed = 1;
nodes = (
(74,730,l),
(74,1,l),
(74,0,l),
(50,0,l),
(50,730,l)
);
},
{
attr = {
gradient = {
colors = (
(
(64,255),
0
),
(
(191,255),
1
)
);
end = (0.8878,0.5878);
start = (0.0693,0.513);
};
};
closed = 1;
nodes = (
(171,354,l),
(171,353,l),
(74,353,l),
(74,377,l),
(148,377,l)
);
},
{
attr = {
gradient = {
colors = (
(
(64,255),
0
),
(
(191,255),
1
)
);
end = (0.4056,0.1204);
start = (0.4192,0.8964);
};
};
closed = 1;
nodes = (
(148,0,l),
(147,0,l),
(147,353,l),
(171,353,l),
(171,0,l)
);
},
{
attr = {
gradient = {
colors = (
(
(191,255),
0
),
(
(64,255),
1
)
);
end = (0.3865,0.02);
start = (0.7456,0.9692);
};
};
closed = 1;
nodes = (
(147,598,l),
(148,598,l),
(148,377,l),
(124,377,l),
(124,575,l)
);
}
);
width = 216;
},
{
anchors = (
{
name = bottom;
pos = (395,0);
}
);
attr = {
color = "1";
};
layerId = "E87239EE-82B8-404C-B23A-53843E270889";
shapes = (
{
attr = {
gradient = {
colors = (
(
(64,255),
0
),
(
(191,255),
0.55524
),
(
(64,255),
1
)
);
end = (-0.0215,0.951);
start = (0.8544,-0.1436);
};
};
closed = 1;
nodes = (
(248,794,l),
(249,400,l),
(249,0,l),
(35,0,l),
(35,794,l)
);
},
{
attr = {
gradient = {
colors = (
(
(64,255),
0
),
(
(191,255),
1
)
);
end = (0.8878,0.5878);
start = (0.0693,0.513);
};
};
closed = 1;
nodes = (
(772,194,l),
(772,193,l),
(249,193,l),
(249,397,l),
(665,397,l)
);
},
{
attr = {
gradient = {
colors = (
(
(64,255),
0
),
(
(191,255),
1
)
);
end = (0.6168,0.0388);
start = (0.2264,0.8989);
};
};
closed = 1;
nodes = (
(559,0,l),
(558,0,l),
(558,193,l),
(772,193,l),
(772,0,l)
);
},
{
attr = {
gradient = {
colors = (
(
(64,255),
0
),
(
(191,255),
1
)
);
end = (0.4877,0.9217);
start = (0.4155,-0.0037);
};
};
closed = 1;
nodes = (
(664,663,l),
(665,663,l),
(665,397,l),
(451,397,l),
(451,556,l)
);
}
);
width = 779;
},
{
anchors = (
{
name = bottom;
pos = (395,0);
}
);
attr = {
color = "1";
};
layerId = m003;
shapes = (
{
attr = {
gradient = {
colors = (
(
(64,255),
0
),
(
(191,255),
0.55524
),
(
(64,255),
1
)
);
end = (-0.0215,0.951);
start = (0.8544,-0.1436);
};
};
closed = 1;
nodes = (
(248,794,l),
(249,400,l),
(249,0,l),
(35,0,l),
(35,794,l)
);
},
{
attr = {
gradient = {
colors = (
(
(64,255),
0
),
(
(191,255),
1
)
);
end = (0.8878,0.5878);
start = (0.0693,0.513);
};
};
closed = 1;
nodes = (
(772,194,l),
(772,193,l),
(249,193,l),
(249,397,l),
(665,397,l)
);
},
{
attr = {
gradient = {
colors = (
(
(64,255),
0
),
(
(191,255),
1
)
);
end = (0.6168,0.0388);
start = (0.2264,0.8989);
};
};
closed = 1;
nodes = (
(559,0,l),
(558,0,l),
(558,193,l),
(772,193,l),
(772,0,l)
);
},
{
attr = {
gradient = {
colors = (
(
(64,255),
0
),
(
(191,255),
1
)
);
end = (0.4877,0.9217);
start = (0.4155,-0.0037);
};
};
closed = 1;
nodes = (
(664,663,l),
(665,663,l),
(665,397,l),
(451,397,l),
(451,556,l)
);
}
);
width = 779;
}
);
unicode = 107;
},
{
color = 4;
glyphname = kgreenlandic;
kernLeft = H;
kernRight = k;
lastChange = "2022-06-06 09:42:41 +0000";
layers = (
{
attr = {
color = "1";
};
layerId = "33AE93C6-B8B3-427A-A53B-F24970E840CE";
shapes = (
{
attr = {
gradient = {
colors = (
(
(64,255),
0
),
(
(191,255),
0.51642
),
(
(64,255),
1
)
);
end = (0.9334,0);
start = (0.2454,0.9618);
};
};
closed = 1;
nodes = (
(208,0,l),
(124,353,l),
(144,373,l),
(234,0,l)
);
},
{
attr = {
gradient = {
colors = (
(
(64,255),
0
),
(
(191,255),
0.52889
),
(
(64,255),
1
)
);
end = (0.652,0.0627);
start = (0.4192,0.8964);
};
};
closed = 1;
nodes = (
(77,598,l),
(77,1,l),
(77,0,l),
(53,0,l),
(53,598,l)
);
},
{
attr = {
gradient = {
colors = (
(
(64,255),
0
),
(
(191,255),
0.5
),
(
(64,255),
1
)
);
end = (0.0587,0.1922);
start = (0.9871,0.9521);
};
};
closed = 1;
nodes = (
(77,377,l),
(157,377,l),
(157,353,l),
(77,353,l)
);
},
{
attr = {
gradient = {
colors = (
(
(64,255),
0
),
(
(191,255),
1
)
);
end = (0.2746,0.29);
start = (0.4852,0.9879);
};
};
closed = 1;
nodes = (
(158,353,l),
(157,353,l),
(157,598,l),
(181,598,l),
(181,376,l)
);
}
);
width = 287;
},
{
attr = {
color = "1";
};
layerId = "E87239EE-82B8-404C-B23A-53843E270889";
shapes = (
{
attr = {
gradient = {
colors = (
(
(64,255),
0
),
(
(191,255),
0.53265
),
(
(64,255),
1
)
);
end = (0.4992,0.8139);
start = (0.701,-0.0017);
};
};
closed = 1;
nodes = (
(530,0,l),
(354,240,l),
(568,363,l),
(841,0,l)
);
},
{
attr = {
gradient = {
colors = (
(
(64,255),
0
),
(
(191,255),
0.55524
),
(
(64,255),
1
)
);
end = (-0.0215,0.951);
start = (0.8544,-0.1436);
};
};
closed = 1;
nodes = (
(248,794,l),
(249,400,l),
(249,0,l),
(35,0,l),
(35,794,l)
);
},
{
attr = {
gradient = {
colors = (
(
(64,255),
0
),
(
(191,255),
0.5
),
(
(64,255),
1
)
);
end = (0.0587,0.1922);
start = (0.9871,0.9521);
};
};
closed = 1;
nodes = (
(249,437,l),
(478,437,l),
(478,193,l),
(249,193,l)
);
},
{
attr = {
gradient = {
colors = (
(
(64,255),
0
),
(
(191,255),
1
)
);
end = (0.2746,0.29);
start = (0.4852,0.9879);
};
};
closed = 1;
nodes = (
(479,193,l),
(478,193,l),
(478,663,l),
(732,663,l),
(732,390,l)
);
}
);
width = 876;
},
{
attr = {
color = "1";
};
layerId = m003;
shapes = (
{
attr = {
gradient = {
colors = (
(
(64,255),
0
),
(
(191,255),
0.53265
),
(
(64,255),
1
)
);
end = (0.4992,0.8139);
start = (0.701,-0.0017);
};
};
closed = 1;
nodes = (
(530,0,l),
(354,240,l),
(568,363,l),
(841,0,l)
);
},
{
attr = {
gradient = {
colors = (
(
(64,255),
0
),
(
(191,255),
0.55524
),
(
(64,255),
1
)
);
end = (-0.0215,0.951);
start = (0.8544,-0.1436);
};
};
closed = 1;
nodes = (
(248,794,l),
(249,400,l),
(249,0,l),
(35,0,l),
(35,794,l)
);
},
{
attr = {
gradient = {
colors = (
(
(64,255),
0
),
(
(191,255),
0.5
),
(
(64,255),
1
)
);
end = (0.0587,0.1922);
start = (0.9871,0.9521);
};
};
closed = 1;
nodes = (
(249,437,l),
(478,437,l),
(478,193,l),
(249,193,l)
);
},
{
attr = {
gradient = {
colors = (
(
(64,255),
0
),
(
(191,255),
1
)
);
end = (0.2746,0.29);
start = (0.4852,0.9879);
};
};
closed = 1;
nodes = (
(479,193,l),
(478,193,l),
(478,663,l),
(732,663,l),
(732,390,l)
);
}
);
width = 876;
}
);
unicode = 312;
},
{
color = 4;
glyphname = l;
kernLeft = l;
kernRight = l;
lastChange = "2022-06-06 10:16:33 +0000";
layers = (
{
anchors = (
{
name = bottom;
pos = (92,0);
},
{
name = top;
pos = (74,730);
}
);
attr = {
color = "1";
};
layerId = "33AE93C6-B8B3-427A-A53B-F24970E840CE";
shapes = (
{
attr = {
gradient = {
colors = (
(
(64,255),
0
),
(
(191,255),
0.52889
),
(
(64,255),
1
)
);
end = (0.652,0.0627);
start = (0.4192,0.8964);
};
};
closed = 1;
nodes = (
(74,730,l),
(74,0,l),
(73,0,l),
(50,23,l),
(50,730,l)
);
},
{
attr = {
gradient = {
colors = (
(
(191,255),
0
),
(
(64,255),
1
)
);
end = (0.086,0.0815);
start = (0.863,0.8719);
};
};
closed = 1;
nodes = (
(74,0,l),
(74,24,l),
(136,24,l),
(136,23,l),
(136,0,l)
);
}
);
width = 166;
},
{
anchors = (
{
name = bottom;
pos = (259,0);
},
{
name = top;
pos = (149,794);
}
);
attr = {
color = "1";
};
layerId = "E87239EE-82B8-404C-B23A-53843E270889";
shapes = (
{
attr = {
gradient = {
colors = (
(
(64,255),
0
),
(
(191,255),
0.55524
),
(
(64,255),
1
)
);
end = (-0.0215,0.951);
start = (0.8544,-0.1436);
};
};
closed = 1;
nodes = (
(249,794,l),
(249,0,l),
(248,0,l),
(35,107,l),
(35,794,l)
);
},
{
attr = {
gradient = {
colors = (
(
(191,255),
0
),
(
(64,255),
1
)
);
end = (0.0345,0.7875);
start = (0.9042,0.1573);
};
};
closed = 1;
nodes = (
(249,0,l),
(249,204,l),
(461,204,l),
(461,203,l),
(461,0,l)
);
}
);
width = 476;
},
{
anchors = (
{
name = bottom;
pos = (259,0);
},
{
name = top;
pos = (149,794);
}
);
attr = {
color = "1";
};
layerId = m003;
shapes = (
{
attr = {
gradient = {
colors = (
(
(64,255),
0
),
(
(191,255),
0.55524
),
(
(64,255),
1
)
);
end = (-0.0215,0.951);
start = (0.8544,-0.1436);
};
};
closed = 1;
nodes = (
(249,794,l),
(249,0,l),
(248,0,l),
(35,107,l),
(35,794,l)
);
},
{
attr = {
gradient = {
colors = (
(
(191,255),
0
),
(
(64,255),
1
)
);
end = (0.0345,0.7875);
start = (0.9042,0.1573);
};
};
closed = 1;
nodes = (
(249,0,l),
(249,204,l),
(461,204,l),
(461,203,l),
(461,0,l)
);
}
);
width = 486;
}
);
unicode = 108;
},
{
color = 2;
glyphname = lslash;
lastChange = "2022-06-06 09:42:41 +0000";
layers = (
{
attr = {
color = "1";
};
layerId = "33AE93C6-B8B3-427A-A53B-F24970E840CE";
shapes = (
{
attr = {
gradient = {
colors = (
(
(128,255),
0.03599
),
(
(64,255),
0.5044
),
(
(191,255),
1
)
);
end = (0.9313,0.7093);
start = (0.0538,0.0697);
};
identifier = ID0x60000049aa00;
};
closed = 1;
nodes = (
(69,294,l),
(53,312,l),
(160,441,l),
(160,440,l),
(176,423,l)
);
},
{
pos = (44,0);
ref = l;
}
);
width = 236;
},
{
attr = {
color = "1";
};
layerId = "E87239EE-82B8-404C-B23A-53843E270889";
shapes = (
{
attr = {
gradient = {
colors = (
(
(128,255),
0
),
(
(64,255),
0.51565
),
(
(191,255),
1
)
);
end = (0.9498,0.912);
start = (0.0904,0.1467);
};
identifier = ID0x600000498620;
};
closed = 1;
nodes = (
(91,223,l),
(-5,363,l),
(441,699,l),
(442,698,l),
(537,559,l)
);
},
{
pos = (107,0);
ref = l;
}
);
width = 593;
},
{
attr = {
color = "1";
};
layerId = m003;
shapes = (
{
attr = {
gradient = {
colors = (
(
(128,255),
0
),
(
(64,255),
0.51565
),
(
(191,255),
1
)
);
end = (0.9498,0.912);
start = (0.0904,0.1467);
};
identifier = ID0x600000498620;
};
closed = 1;
nodes = (
(91,223,l),
(-5,363,l),
(441,699,l),
(442,698,l),
(537,559,l)
);
},
{
pos = (107,0);
ref = l;
}
);
width = 593;
}
);
unicode = 322;
},
